<ttFont>
<head>
    <!-- Most of this table will be recalculated by the compiler -->
    <tableVersion value="1.0"/>
    <fontRevision value="1.0"/>
    <checkSumAdjustment value="0xdfca23c"/>
    <magicNumber value="0x5f0f3cf5"/>
    <flags value="00000000 00001011"/>
    <unitsPerEm value="1000"/>
    <created value="Thu Apr  4 21:01:38 2019"/>
    <modified value="Thu Apr  4 21:01:40 2019"/>
    <xMin value="-170"/>
    <yMin value="-286"/>
    <xMax value="1145"/>
    <yMax value="1006"/>
    <macStyle value="00000000 00000000"/>
    <lowestRecPPEM value="6"/>
    <fontDirectionHint value="2"/>
    <indexToLocFormat value="0"/>
    <glyphDataFormat value="0"/>
  </head>
    <TTGlyph name=".notdef" xMin="60" yMin="-100" xMax="454" yMax="750">
      <contour>
        <pt x="60" y="-100" on="1"/>
        <pt x="60" y="750" on="1"/>
        <pt x="454" y="750" on="1"/>
        <pt x="454" y="-100" on="1"/>
      </contour>
    </TTGlyph>
    <TTGlyph name="A" xMin="-59" yMin="0" xMax="666" yMax="700">
      <contour>
        <pt x="-59" y="0" on="1"/>
        <pt x="369" y="700" on="1"/>
        <pt x="533" y="700" on="1"/>
        <pt x="666" y="0" on="1"/>
        <pt x="520" y="0" on="1"/>
        <pt x="488" y="184" on="1"/>
        <pt x="204" y="184" on="1"/>
        <pt x="96" y="0" on="1"/>
      </contour>
      <contour>
        <pt x="272" y="300" on="1"/>
        <pt x="468" y="300" on="1"/>
        <pt x="424" y="558" on="1"/>
      </contour>
    </TTGlyph>
    <TTGlyph name="AE" xMin="-59" yMin="0" xMax="1016" yMax="700">
      <contour>
        <pt x="-59" y="0" on="1"/>
        <pt x="371" y="700" on="1"/>
        <pt x="1016" y="700" on="1"/>
        <pt x="990" y="574" on="1"/>
        <pt x="566" y="574" on="1"/>
        <pt x="589" y="414" on="1"/>
        <pt x="830" y="414" on="1"/>
        <pt x="803" y="292" on="1"/>
        <pt x="608" y="292" on="1"/>
        <pt x="632" y="126" on="1"/>
        <pt x="894" y="126" on="1"/>
        <pt x="868" y="0" on="1"/>
        <pt x="511" y="0" on="1"/>
        <pt x="484" y="184" on="1"/>
        <pt x="201" y="184" on="1"/>
        <pt x="88" y="0" on="1"/>
      </contour>
      <contour>
        <pt x="272" y="300" on="1"/>
        <pt x="467" y="300" on="1"/>
        <pt x="430" y="558" on="1"/>
      </contour>
    </TTGlyph>
    <TTGlyph name="Aacute" xMin="-59" yMin="0" xMax="666" yMax="917">
      <component glyphName="A" x="0" y="0" flags="0x204"/>
      <component glyphName="acute" x="168" y="179" flags="0x4"/>
    </TTGlyph>
    <TTGlyph name="Abreve" xMin="-59" yMin="0" xMax="666" yMax="939">
      <component glyphName="A" x="0" y="0" flags="0x204"/>
      <component glyphName="breve" x="135" y="179" flags="0x4"/>
    </TTGlyph>
    <TTGlyph name="Acircumflex" xMin="-59" yMin="0" xMax="666" yMax="920">
      <component glyphName="A" x="0" y="0" flags="0x204"/>
      <component glyphName="circumflex" x="133" y="179" flags="0x4"/>
    </TTGlyph>
    <TTGlyph name="Adieresis" xMin="-59" yMin="0" xMax="666" yMax="926">
      <component glyphName="A" x="0" y="0" flags="0x204"/>
      <component glyphName="dieresis" x="100" y="179" flags="0x4"/>
    </TTGlyph>
    <TTGlyph name="Agrave" xMin="-59" yMin="0" xMax="666" yMax="917">
      <component glyphName="A" x="0" y="0" flags="0x204"/>
      <component glyphName="grave" x="114" y="179" flags="0x4"/>
    </TTGlyph>
    <TTGlyph name="Amacron" xMin="-59" yMin="0" xMax="666" yMax="892">
      <component glyphName="A" x="0" y="0" flags="0x204"/>
      <component glyphName="macron" x="135" y="179" flags="0x4"/>
    </TTGlyph>
    <TTGlyph name="Aogonek" xMin="-59" yMin="-221" xMax="666" yMax="700">
      <contour>
        <pt x="-59" y="0" on="1"/>
        <pt x="369" y="700" on="1"/>
        <pt x="533" y="700" on="1"/>
        <pt x="666" y="0" on="1"/>
        <pt x="609" y="-30" on="0"/>
        <pt x="554" y="-87" on="0"/>
        <pt x="554" y="-115" on="1"/>
        <pt x="554" y="-131" on="0"/>
        <pt x="577" y="-150" on="0"/>
        <pt x="596" y="-150" on="1"/>
        <pt x="606" y="-150" on="0"/>
        <pt x="627" y="-144" on="0"/>
        <pt x="636" y="-139" on="1"/>
        <pt x="642" y="-200" on="1"/>
        <pt x="623" y="-210" on="0"/>
        <pt x="580" y="-221" on="0"/>
        <pt x="559" y="-221" on="1"/>
        <pt x="519" y="-221" on="0"/>
        <pt x="471" y="-182" on="0"/>
        <pt x="471" y="-148" on="1"/>
        <pt x="471" y="-108" on="0"/>
        <pt x="530" y="-34" on="0"/>
        <pt x="588" y="0" on="1"/>
        <pt x="520" y="0" on="1"/>
        <pt x="488" y="184" on="1"/>
        <pt x="204" y="184" on="1"/>
        <pt x="96" y="0" on="1"/>
      </contour>
      <contour>
        <pt x="272" y="300" on="1"/>
        <pt x="468" y="300" on="1"/>
        <pt x="424" y="558" on="1"/>
      </contour>
    </TTGlyph>
    <TTGlyph name="Aring" xMin="-59" yMin="0" xMax="666" yMax="1006">
      <component glyphName="A" x="0" y="0" flags="0x204"/>
      <component glyphName="ring" x="135" y="179" flags="0x4"/>
    </TTGlyph>
    <TTGlyph name="Atilde" xMin="-59" yMin="0" xMax="676" yMax="921">
      <component glyphName="A" x="0" y="0" flags="0x204"/>
      <component glyphName="tilde" x="139" y="179" flags="0x4"/>
    </TTGlyph>
    <TTGlyph name="B" xMin="7" yMin="0" xMax="666" yMax="700">
      <contour>
        <pt x="156" y="700" on="1"/>
        <pt x="457" y="700" on="1"/>
        <pt x="552" y="700" on="0"/>
        <pt x="666" y="608" on="0"/>
        <pt x="666" y="533" on="1"/>
        <pt x="666" y="477" on="0"/>
        <pt x="604" y="383" on="0"/>
        <pt x="553" y="355" on="1"/>
        <pt x="590" y="333" on="0"/>
        <pt x="633" y="265" on="0"/>
        <pt x="633" y="223" on="1"/>
        <pt x="633" y="175" on="0"/>
        <pt x="592" y="93" on="0"/>
        <pt x="521" y="34" on="0"/>
        <pt x="423" y="0" on="0"/>
        <pt x="366" y="0" on="1"/>
        <pt x="7" y="0" on="1"/>
      </contour>
      <contour>
        <pt x="434" y="580" on="1"/>
        <pt x="272" y="580" on="1"/>
        <pt x="237" y="414" on="1"/>
        <pt x="410" y="414" on="1"/>
        <pt x="458" y="414" on="0"/>
        <pt x="521" y="468" on="0"/>
        <pt x="521" y="509" on="1"/>
        <pt x="521" y="542" on="0"/>
        <pt x="474" y="580" on="0"/>
      </contour>
      <contour>
        <pt x="369" y="120" on="1"/>
        <pt x="422" y="120" on="0"/>
        <pt x="490" y="178" on="0"/>
        <pt x="490" y="224" on="1"/>
        <pt x="490" y="260" on="0"/>
        <pt x="439" y="301" on="0"/>
        <pt x="394" y="301" on="1"/>
        <pt x="213" y="301" on="1"/>
        <pt x="175" y="120" on="1"/>
      </contour>
    </TTGlyph>
    <TTGlyph name="C" xMin="54" yMin="-12" xMax="729" yMax="708">
      <contour>
        <pt x="408" y="121" on="1"/>
        <pt x="459" y="121" on="0"/>
        <pt x="558" y="165" on="0"/>
        <pt x="598" y="205" on="1"/>
        <pt x="676" y="107" on="1"/>
        <pt x="621" y="53" on="0"/>
        <pt x="468" y="-12" on="0"/>
        <pt x="392" y="-12" on="1"/>
        <pt x="321" y="-12" on="0"/>
        <pt x="197" y="39" on="0"/>
        <pt x="106" y="129" on="0"/>
        <pt x="54" y="251" on="0"/>
        <pt x="54" y="321" on="1"/>
        <pt x="54" y="400" on="0"/>
        <pt x="115" y="542" on="0"/>
        <pt x="220" y="647" on="0"/>
        <pt x="362" y="708" on="0"/>
        <pt x="442" y="708" on="1"/>
        <pt x="537" y="708" on="0"/>
        <pt x="684" y="635" on="0"/>
        <pt x="729" y="567" on="1"/>
        <pt x="619" y="473" on="1"/>
        <pt x="589" y="522" on="0"/>
        <pt x="494" y="575" on="0"/>
        <pt x="434" y="575" on="1"/>
        <pt x="385" y="575" on="0"/>
        <pt x="300" y="536" on="0"/>
        <pt x="237" y="470" on="0"/>
        <pt x="200" y="379" on="0"/>
        <pt x="200" y="328" on="1"/>
        <pt x="200" y="284" on="0"/>
        <pt x="231" y="208" on="0"/>
        <pt x="287" y="153" on="0"/>
        <pt x="363" y="121" on="0"/>
      </contour>
    </TTGlyph>
    <TTGlyph name="Cacute" xMin="54" yMin="-12" xMax="729" yMax="917">
      <component glyphName="C" x="0" y="0" flags="0x204"/>
      <component glyphName="acute" x="176" y="179" flags="0x4"/>
    </TTGlyph>
    <TTGlyph name="Ccaron" xMin="54" yMin="-12" xMax="729" yMax="920">
      <component glyphName="C" x="0" y="0" flags="0x204"/>
      <component glyphName="caron" x="143" y="179" flags="0x4"/>
    </TTGlyph>
    <TTGlyph name="Ccedilla" xMin="54" yMin="-235" xMax="729" yMax="708">
      <contour>
        <pt x="408" y="121" on="1"/>
        <pt x="459" y="121" on="0"/>
        <pt x="558" y="165" on="0"/>
        <pt x="598" y="205" on="1"/>
        <pt x="676" y="107" on="1"/>
        <pt x="623" y="55" on="0"/>
        <pt x="477" y="-9" on="0"/>
        <pt x="404" y="-12" on="1"/>
        <pt x="386" y="-47" on="1"/>
        <pt x="423" y="-53" on="0"/>
        <pt x="462" y="-95" on="0"/>
        <pt x="462" y="-127" on="1"/>
        <pt x="462" y="-172" on="0"/>
        <pt x="382" y="-235" on="0"/>
        <pt x="325" y="-235" on="1"/>
        <pt x="285" y="-235" on="0"/>
        <pt x="224" y="-210" on="0"/>
        <pt x="201" y="-184" on="1"/>
        <pt x="251" y="-138" on="1"/>
        <pt x="267" y="-154" on="0"/>
        <pt x="306" y="-171" on="0"/>
        <pt x="328" y="-171" on="1"/>
        <pt x="353" y="-171" on="0"/>
        <pt x="384" y="-149" on="0"/>
        <pt x="384" y="-131" on="1"/>
        <pt x="384" y="-115" on="0"/>
        <pt x="357" y="-95" on="0"/>
        <pt x="335" y="-95" on="1"/>
        <pt x="296" y="-95" on="1"/>
        <pt x="340" y="-8" on="1"/>
        <pt x="278" y="1" on="0"/>
        <pt x="173" y="58" on="0"/>
        <pt x="97" y="145" on="0"/>
        <pt x="54" y="258" on="0"/>
        <pt x="54" y="321" on="1"/>
        <pt x="54" y="400" on="0"/>
        <pt x="115" y="542" on="0"/>
        <pt x="220" y="647" on="0"/>
        <pt x="362" y="708" on="0"/>
        <pt x="442" y="708" on="1"/>
        <pt x="537" y="708" on="0"/>
        <pt x="684" y="635" on="0"/>
        <pt x="729" y="567" on="1"/>
        <pt x="619" y="473" on="1"/>
        <pt x="589" y="522" on="0"/>
        <pt x="494" y="575" on="0"/>
        <pt x="434" y="575" on="1"/>
        <pt x="385" y="575" on="0"/>
        <pt x="300" y="536" on="0"/>
        <pt x="237" y="470" on="0"/>
        <pt x="200" y="379" on="0"/>
        <pt x="200" y="328" on="1"/>
        <pt x="200" y="284" on="0"/>
        <pt x="231" y="208" on="0"/>
        <pt x="287" y="153" on="0"/>
        <pt x="363" y="121" on="0"/>
      </contour>
    </TTGlyph>
    <TTGlyph name="Ccircumflex" xMin="54" yMin="-12" xMax="729" yMax="920">
      <component glyphName="C" x="0" y="0" flags="0x204"/>
      <component glyphName="circumflex" x="141" y="179" flags="0x4"/>
    </TTGlyph>
    <TTGlyph name="Cdotaccent" xMin="54" yMin="-12" xMax="729" yMax="926">
      <component glyphName="C" x="0" y="0" flags="0x204"/>
      <component glyphName="dotaccent" x="254" y="179" flags="0x4"/>
    </TTGlyph>
    <TTGlyph name="D" xMin="7" yMin="0" xMax="709" yMax="700">
      <contour>
        <pt x="7" y="0" on="1"/>
        <pt x="156" y="700" on="1"/>
        <pt x="385" y="700" on="1"/>
        <pt x="455" y="700" on="0"/>
        <pt x="575" y="653" on="0"/>
        <pt x="660" y="571" on="0"/>
        <pt x="709" y="456" on="0"/>
        <pt x="709" y="388" on="1"/>
        <pt x="709" y="309" on="0"/>
        <pt x="644" y="168" on="0"/>
        <pt x="535" y="62" on="0"/>
        <pt x="387" y="0" on="0"/>
        <pt x="305" y="0" on="1"/>
      </contour>
      <contour>
        <pt x="369" y="571" on="1"/>
        <pt x="271" y="571" on="1"/>
        <pt x="176" y="129" on="1"/>
        <pt x="317" y="129" on="1"/>
        <pt x="367" y="129" on="0"/>
        <pt x="457" y="168" on="0"/>
        <pt x="523" y="235" on="0"/>
        <pt x="561" y="326" on="0"/>
        <pt x="561" y="378" on="1"/>
        <pt x="561" y="462" on="0"/>
        <pt x="453" y="571" on="0"/>
      </contour>
    </TTGlyph>
    <TTGlyph name="Dcaron" xMin="7" yMin="0" xMax="709" yMax="920">
      <component glyphName="D" x="0" y="0" flags="0x204"/>
      <component glyphName="caron" x="145" y="179" flags="0x4"/>
    </TTGlyph>
    <TTGlyph name="Dcroat" xMin="16" yMin="0" xMax="733" yMax="700">
      <contour>
        <pt x="31" y="0" on="1"/>
        <pt x="93" y="293" on="1"/>
        <pt x="16" y="293" on="1"/>
        <pt x="40" y="408" on="1"/>
        <pt x="118" y="408" on="1"/>
        <pt x="180" y="700" on="1"/>
        <pt x="409" y="700" on="1"/>
        <pt x="479" y="700" on="0"/>
        <pt x="599" y="653" on="0"/>
        <pt x="684" y="571" on="0"/>
        <pt x="733" y="456" on="0"/>
        <pt x="733" y="388" on="1"/>
        <pt x="733" y="309" on="0"/>
        <pt x="668" y="168" on="0"/>
        <pt x="559" y="62" on="0"/>
        <pt x="411" y="0" on="0"/>
        <pt x="329" y="0" on="1"/>
      </contour>
      <contour>
        <pt x="393" y="571" on="1"/>
        <pt x="295" y="571" on="1"/>
        <pt x="260" y="408" on="1"/>
        <pt x="427" y="408" on="1"/>
        <pt x="403" y="293" on="1"/>
        <pt x="235" y="293" on="1"/>
        <pt x="200" y="129" on="1"/>
        <pt x="341" y="129" on="1"/>
        <pt x="391" y="129" on="0"/>
        <pt x="481" y="168" on="0"/>
        <pt x="547" y="235" on="0"/>
        <pt x="585" y="326" on="0"/>
        <pt x="585" y="378" on="1"/>
        <pt x="585" y="462" on="0"/>
        <pt x="477" y="571" on="0"/>
      </contour>
    </TTGlyph>
    <TTGlyph name="E" xMin="7" yMin="0" xMax="683" yMax="700">
      <contour>
        <pt x="7" y="0" on="1"/>
        <pt x="156" y="700" on="1"/>
        <pt x="683" y="700" on="1"/>
        <pt x="656" y="574" on="1"/>
        <pt x="271" y="574" on="1"/>
        <pt x="237" y="414" on="1"/>
        <pt x="490" y="414" on="1"/>
        <pt x="464" y="292" on="1"/>
        <pt x="211" y="292" on="1"/>
        <pt x="176" y="126" on="1"/>
        <pt x="565" y="126" on="1"/>
        <pt x="538" y="0" on="1"/>
      </contour>
    </TTGlyph>
    <TTGlyph name="Eacute" xMin="7" yMin="0" xMax="683" yMax="917">
      <component glyphName="E" x="0" y="0" flags="0x204"/>
      <component glyphName="acute" x="140" y="179" flags="0x4"/>
    </TTGlyph>
    <TTGlyph name="Ebreve" xMin="7" yMin="0" xMax="683" yMax="939">
      <component glyphName="E" x="0" y="0" flags="0x204"/>
      <component glyphName="breve" x="106" y="179" flags="0x4"/>
    </TTGlyph>
    <TTGlyph name="Ecaron" xMin="7" yMin="0" xMax="683" yMax="920">
      <component glyphName="E" x="0" y="0" flags="0x204"/>
      <component glyphName="caron" x="106" y="179" flags="0x4"/>
    </TTGlyph>
    <TTGlyph name="Ecircumflex" xMin="7" yMin="0" xMax="683" yMax="920">
      <component glyphName="E" x="0" y="0" flags="0x204"/>
      <component glyphName="circumflex" x="105" y="179" flags="0x4"/>
    </TTGlyph>
    <TTGlyph name="Edieresis" xMin="7" yMin="0" xMax="683" yMax="926">
      <component glyphName="E" x="0" y="0" flags="0x204"/>
      <component glyphName="dieresis" x="71" y="179" flags="0x4"/>
    </TTGlyph>
    <TTGlyph name="Edotaccent" xMin="7" yMin="0" xMax="683" yMax="926">
      <component glyphName="E" x="0" y="0" flags="0x204"/>
      <component glyphName="dotaccent" x="217" y="179" flags="0x4"/>
    </TTGlyph>
    <TTGlyph name="Egrave" xMin="7" yMin="0" xMax="683" yMax="917">
      <component glyphName="E" x="0" y="0" flags="0x204"/>
      <component glyphName="grave" x="86" y="179" flags="0x4"/>
    </TTGlyph>
    <TTGlyph name="Emacron" xMin="7" yMin="0" xMax="683" yMax="892">
      <component glyphName="E" x="0" y="0" flags="0x204"/>
      <component glyphName="macron" x="106" y="179" flags="0x4"/>
    </TTGlyph>
    <TTGlyph name="Eng" xMin="7" yMin="-215" xMax="765" yMax="700">
      <contour>
        <pt x="485" y="12" on="1"/>
        <pt x="242" y="475" on="1"/>
        <pt x="141" y="0" on="1"/>
        <pt x="7" y="0" on="1"/>
        <pt x="156" y="700" on="1"/>
        <pt x="291" y="700" on="1"/>
        <pt x="533" y="240" on="1"/>
        <pt x="631" y="700" on="1"/>
        <pt x="765" y="700" on="1"/>
        <pt x="601" y="-68" on="1"/>
        <pt x="586" y="-138" on="0"/>
        <pt x="491" y="-215" on="0"/>
        <pt x="419" y="-215" on="1"/>
        <pt x="397" y="-215" on="0"/>
        <pt x="351" y="-206" on="0"/>
        <pt x="338" y="-202" on="1"/>
        <pt x="360" y="-98" on="1"/>
        <pt x="370" y="-100" on="0"/>
        <pt x="394" y="-104" on="0"/>
        <pt x="411" y="-104" on="1"/>
        <pt x="436" y="-104" on="0"/>
        <pt x="466" y="-79" on="0"/>
        <pt x="471" y="-54" on="1"/>
      </contour>
    </TTGlyph>
    <TTGlyph name="Eogonek" xMin="7" yMin="-221" xMax="683" yMax="700">
      <contour>
        <pt x="7" y="0" on="1"/>
        <pt x="156" y="700" on="1"/>
        <pt x="683" y="700" on="1"/>
        <pt x="656" y="574" on="1"/>
        <pt x="271" y="574" on="1"/>
        <pt x="237" y="414" on="1"/>
        <pt x="490" y="414" on="1"/>
        <pt x="464" y="292" on="1"/>
        <pt x="211" y="292" on="1"/>
        <pt x="176" y="126" on="1"/>
        <pt x="565" y="126" on="1"/>
        <pt x="538" y="0" on="1"/>
        <pt x="481" y="-30" on="0"/>
        <pt x="426" y="-87" on="0"/>
        <pt x="426" y="-115" on="1"/>
        <pt x="426" y="-131" on="0"/>
        <pt x="449" y="-150" on="0"/>
        <pt x="468" y="-150" on="1"/>
        <pt x="478" y="-150" on="0"/>
        <pt x="499" y="-144" on="0"/>
        <pt x="508" y="-139" on="1"/>
        <pt x="514" y="-200" on="1"/>
        <pt x="495" y="-210" on="0"/>
        <pt x="452" y="-221" on="0"/>
        <pt x="431" y="-221" on="1"/>
        <pt x="391" y="-221" on="0"/>
        <pt x="343" y="-182" on="0"/>
        <pt x="343" y="-148" on="1"/>
        <pt x="343" y="-108" on="0"/>
        <pt x="402" y="-34" on="0"/>
        <pt x="460" y="0" on="1"/>
      </contour>
    </TTGlyph>
    <TTGlyph name="Eth" xMin="16" yMin="0" xMax="733" yMax="700">
      <contour>
        <pt x="31" y="0" on="1"/>
        <pt x="93" y="293" on="1"/>
        <pt x="16" y="293" on="1"/>
        <pt x="40" y="408" on="1"/>
        <pt x="118" y="408" on="1"/>
        <pt x="180" y="700" on="1"/>
        <pt x="409" y="700" on="1"/>
        <pt x="479" y="700" on="0"/>
        <pt x="599" y="653" on="0"/>
        <pt x="684" y="571" on="0"/>
        <pt x="733" y="456" on="0"/>
        <pt x="733" y="388" on="1"/>
        <pt x="733" y="309" on="0"/>
        <pt x="668" y="168" on="0"/>
        <pt x="559" y="62" on="0"/>
        <pt x="411" y="0" on="0"/>
        <pt x="329" y="0" on="1"/>
      </contour>
      <contour>
        <pt x="393" y="571" on="1"/>
        <pt x="295" y="571" on="1"/>
        <pt x="260" y="408" on="1"/>
        <pt x="427" y="408" on="1"/>
        <pt x="403" y="293" on="1"/>
        <pt x="235" y="293" on="1"/>
        <pt x="200" y="129" on="1"/>
        <pt x="341" y="129" on="1"/>
        <pt x="391" y="129" on="0"/>
        <pt x="481" y="168" on="0"/>
        <pt x="547" y="235" on="0"/>
        <pt x="585" y="326" on="0"/>
        <pt x="585" y="378" on="1"/>
        <pt x="585" y="462" on="0"/>
        <pt x="477" y="571" on="0"/>
      </contour>
    </TTGlyph>
    <TTGlyph name="Euro" xMin="32" yMin="-10" xMax="801" yMax="711">
      <contour>
        <pt x="469" y="319" on="1"/>
        <pt x="427" y="249" on="1"/>
        <pt x="250" y="249" on="1"/>
        <pt x="263" y="181" on="0"/>
        <pt x="366" y="102" on="0"/>
        <pt x="444" y="102" on="1"/>
        <pt x="498" y="102" on="0"/>
        <pt x="597" y="141" on="0"/>
        <pt x="631" y="176" on="1"/>
        <pt x="707" y="102" on="1"/>
        <pt x="652" y="48" on="0"/>
        <pt x="511" y="-10" on="0"/>
        <pt x="431" y="-10" on="1"/>
        <pt x="302" y="-10" on="0"/>
        <pt x="136" y="132" on="0"/>
        <pt x="123" y="249" on="1"/>
        <pt x="32" y="249" on="1"/>
        <pt x="47" y="319" on="1"/>
        <pt x="122" y="319" on="1"/>
        <pt x="123" y="335" on="0"/>
        <pt x="127" y="366" on="0"/>
        <pt x="130" y="381" on="1"/>
        <pt x="60" y="381" on="1"/>
        <pt x="75" y="452" on="1"/>
        <pt x="151" y="452" on="1"/>
        <pt x="174" y="509" on="0"/>
        <pt x="249" y="605" on="0"/>
        <pt x="346" y="673" on="0"/>
        <pt x="464" y="711" on="0"/>
        <pt x="528" y="711" on="1"/>
        <pt x="626" y="711" on="0"/>
        <pt x="767" y="635" on="0"/>
        <pt x="801" y="564" on="1"/>
        <pt x="699" y="500" on="1"/>
        <pt x="675" y="546" on="0"/>
        <pt x="576" y="599" on="0"/>
        <pt x="515" y="599" on="1"/>
        <pt x="441" y="599" on="0"/>
        <pt x="318" y="518" on="0"/>
        <pt x="284" y="452" on="1"/>
        <pt x="545" y="452" on="1"/>
        <pt x="503" y="381" on="1"/>
        <pt x="257" y="381" on="1"/>
        <pt x="253" y="366" on="0"/>
        <pt x="248" y="335" on="0"/>
        <pt x="247" y="319" on="1"/>
      </contour>
    </TTGlyph>
    <TTGlyph name="F" xMin="7" yMin="0" xMax="686" yMax="700">
      <contour>
        <pt x="7" y="0" on="1"/>
        <pt x="156" y="700" on="1"/>
        <pt x="686" y="700" on="1"/>
        <pt x="659" y="574" on="1"/>
        <pt x="271" y="574" on="1"/>
        <pt x="236" y="409" on="1"/>
        <pt x="493" y="409" on="1"/>
        <pt x="467" y="287" on="1"/>
        <pt x="210" y="287" on="1"/>
        <pt x="149" y="0" on="1"/>
      </contour>
    </TTGlyph>
    <TTGlyph name="G" xMin="51" yMin="-13" xMax="770" yMax="709">
      <contour>
        <pt x="757" y="324" on="1"/>
        <pt x="744" y="250" on="0"/>
        <pt x="675" y="126" on="0"/>
        <pt x="577" y="37" on="0"/>
        <pt x="452" y="-13" on="0"/>
        <pt x="383" y="-13" on="1"/>
        <pt x="312" y="-13" on="0"/>
        <pt x="190" y="36" on="0"/>
        <pt x="102" y="123" on="0"/>
        <pt x="51" y="242" on="0"/>
        <pt x="51" y="311" on="1"/>
        <pt x="51" y="392" on="0"/>
        <pt x="115" y="537" on="0"/>
        <pt x="222" y="645" on="0"/>
        <pt x="367" y="709" on="0"/>
        <pt x="447" y="709" on="1"/>
        <pt x="537" y="709" on="0"/>
        <pt x="688" y="632" on="0"/>
        <pt x="732" y="565" on="1"/>
        <pt x="620" y="472" on="1"/>
        <pt x="592" y="521" on="0"/>
        <pt x="493" y="575" on="0"/>
        <pt x="435" y="575" on="1"/>
        <pt x="386" y="575" on="0"/>
        <pt x="299" y="535" on="0"/>
        <pt x="234" y="466" on="0"/>
        <pt x="197" y="373" on="0"/>
        <pt x="197" y="320" on="1"/>
        <pt x="197" y="233" on="0"/>
        <pt x="310" y="119" on="0"/>
        <pt x="397" y="119" on="1"/>
        <pt x="466" y="119" on="0"/>
        <pt x="577" y="202" on="0"/>
        <pt x="596" y="268" on="1"/>
        <pt x="391" y="268" on="1"/>
        <pt x="417" y="393" on="1"/>
        <pt x="770" y="393" on="1"/>
      </contour>
    </TTGlyph>
    <TTGlyph name="Gbreve" xMin="51" yMin="-13" xMax="770" yMax="940">
      <component glyphName="G" x="0" y="0" flags="0x204"/>
      <component glyphName="breve" x="145" y="180" flags="0x4"/>
    </TTGlyph>
    <TTGlyph name="Gcircumflex" xMin="51" yMin="-13" xMax="770" yMax="921">
      <component glyphName="G" x="0" y="0" flags="0x204"/>
      <component glyphName="circumflex" x="144" y="180" flags="0x4"/>
    </TTGlyph>
    <TTGlyph name="Gcommaaccent" xMin="51" yMin="-286" xMax="770" yMax="709">
      <component glyphName="G" x="0" y="0" flags="0x204"/>
      <component glyphName="commaaccent" x="327" y="0" flags="0x4"/>
    </TTGlyph>
    <TTGlyph name="Gdotaccent" xMin="51" yMin="-13" xMax="770" yMax="927">
      <component glyphName="G" x="0" y="0" flags="0x204"/>
      <component glyphName="dotaccent" x="256" y="180" flags="0x4"/>
    </TTGlyph>
    <TTGlyph name="H" xMin="7" yMin="0" xMax="755" yMax="700">
      <contour>
        <pt x="7" y="0" on="1"/>
        <pt x="156" y="700" on="1"/>
        <pt x="298" y="700" on="1"/>
        <pt x="238" y="419" on="1"/>
        <pt x="554" y="419" on="1"/>
        <pt x="614" y="700" on="1"/>
        <pt x="755" y="700" on="1"/>
        <pt x="606" y="0" on="1"/>
        <pt x="465" y="0" on="1"/>
        <pt x="526" y="286" on="1"/>
        <pt x="210" y="286" on="1"/>
        <pt x="149" y="0" on="1"/>
      </contour>
    </TTGlyph>
    <TTGlyph name="Hbar" xMin="21" yMin="0" xMax="818" yMax="700">
      <contour>
        <pt x="21" y="0" on="1"/>
        <pt x="127" y="498" on="1"/>
        <pt x="61" y="498" on="1"/>
        <pt x="84" y="613" on="1"/>
        <pt x="151" y="613" on="1"/>
        <pt x="170" y="700" on="1"/>
        <pt x="312" y="700" on="1"/>
        <pt x="293" y="613" on="1"/>
        <pt x="609" y="613" on="1"/>
        <pt x="628" y="700" on="1"/>
        <pt x="770" y="700" on="1"/>
        <pt x="751" y="613" on="1"/>
        <pt x="818" y="613" on="1"/>
        <pt x="794" y="498" on="1"/>
        <pt x="727" y="498" on="1"/>
        <pt x="621" y="0" on="1"/>
        <pt x="479" y="0" on="1"/>
        <pt x="540" y="286" on="1"/>
        <pt x="224" y="286" on="1"/>
        <pt x="163" y="0" on="1"/>
      </contour>
      <contour>
        <pt x="252" y="419" on="1"/>
        <pt x="568" y="419" on="1"/>
        <pt x="585" y="498" on="1"/>
        <pt x="269" y="498" on="1"/>
      </contour>
    </TTGlyph>
    <TTGlyph name="Hcircumflex" xMin="7" yMin="0" xMax="755" yMax="920">
      <component glyphName="H" x="0" y="0" flags="0x204"/>
      <component glyphName="circumflex" x="146" y="179" flags="0x4"/>
    </TTGlyph>
    <TTGlyph name="I" xMin="7" yMin="0" xMax="298" yMax="700">
      <contour>
        <pt x="7" y="0" on="1"/>
        <pt x="156" y="700" on="1"/>
        <pt x="298" y="700" on="1"/>
        <pt x="149" y="0" on="1"/>
      </contour>
    </TTGlyph>
    <TTGlyph name="IJ" xMin="7" yMin="-9" xMax="938" yMax="700">
      <component glyphName="I" x="0" y="0" flags="0x4"/>
      <component glyphName="J" x="266" y="0" flags="0x4"/>
    </TTGlyph>
    <TTGlyph name="Iacute" xMin="7" yMin="0" xMax="447" yMax="917">
      <component glyphName="I" x="0" y="0" flags="0x204"/>
      <component glyphName="acute" x="-49" y="179" flags="0x4"/>
    </TTGlyph>
    <TTGlyph name="Ibreve" xMin="7" yMin="0" xMax="439" yMax="939">
      <component glyphName="I" x="0" y="0" flags="0x204"/>
      <component glyphName="breve" x="-82" y="179" flags="0x4"/>
    </TTGlyph>
    <TTGlyph name="Icircumflex" xMin="7" yMin="0" xMax="426" yMax="920">
      <component glyphName="I" x="0" y="0" flags="0x204"/>
      <component glyphName="circumflex" x="-83" y="179" flags="0x4"/>
    </TTGlyph>
    <TTGlyph name="Idieresis" xMin="7" yMin="0" xMax="439" yMax="926">
      <component glyphName="I" x="0" y="0" flags="0x204"/>
      <component glyphName="dieresis" x="-117" y="179" flags="0x4"/>
    </TTGlyph>
    <TTGlyph name="Idotaccent" xMin="7" yMin="0" xMax="335" yMax="926">
      <component glyphName="I" x="0" y="0" flags="0x204"/>
      <component glyphName="dotaccent" x="29" y="179" flags="0x4"/>
    </TTGlyph>
    <TTGlyph name="Igrave" xMin="7" yMin="0" xMax="300" yMax="917">
      <component glyphName="I" x="0" y="0" flags="0x204"/>
      <component glyphName="grave" x="-103" y="179" flags="0x4"/>
    </TTGlyph>
    <TTGlyph name="Imacron" xMin="7" yMin="0" xMax="428" yMax="892">
      <component glyphName="I" x="0" y="0" flags="0x204"/>
      <component glyphName="macron" x="-82" y="179" flags="0x4"/>
    </TTGlyph>
    <TTGlyph name="Iogonek" xMin="-47" yMin="-221" xMax="298" yMax="700">
      <contour>
        <pt x="7" y="0" on="1"/>
        <pt x="156" y="700" on="1"/>
        <pt x="298" y="700" on="1"/>
        <pt x="149" y="0" on="1"/>
        <pt x="148" y="0" on="1"/>
        <pt x="91" y="-30" on="0"/>
        <pt x="36" y="-87" on="0"/>
        <pt x="36" y="-115" on="1"/>
        <pt x="36" y="-131" on="0"/>
        <pt x="59" y="-150" on="0"/>
        <pt x="78" y="-150" on="1"/>
        <pt x="88" y="-150" on="0"/>
        <pt x="109" y="-144" on="0"/>
        <pt x="118" y="-139" on="1"/>
        <pt x="124" y="-200" on="1"/>
        <pt x="105" y="-210" on="0"/>
        <pt x="62" y="-221" on="0"/>
        <pt x="41" y="-221" on="1"/>
        <pt x="1" y="-221" on="0"/>
        <pt x="-47" y="-182" on="0"/>
        <pt x="-47" y="-148" on="1"/>
        <pt x="-47" y="-108" on="0"/>
        <pt x="12" y="-34" on="0"/>
        <pt x="70" y="0" on="1"/>
      </contour>
    </TTGlyph>
    <TTGlyph name="Itilde" xMin="7" yMin="0" xMax="459" yMax="921">
      <component glyphName="I" x="0" y="0" flags="0x204"/>
      <component glyphName="tilde" x="-78" y="179" flags="0x4"/>
    </TTGlyph>
    <TTGlyph name="J" xMin="14" yMin="-9" xMax="672" yMax="700">
      <contour>
        <pt x="575" y="249" on="1"/>
        <pt x="549" y="130" on="0"/>
        <pt x="388" y="-9" on="0"/>
        <pt x="275" y="-9" on="1"/>
        <pt x="166" y="-9" on="0"/>
        <pt x="29" y="103" on="0"/>
        <pt x="14" y="204" on="1"/>
        <pt x="146" y="250" on="1"/>
        <pt x="155" y="186" on="0"/>
        <pt x="218" y="121" on="0"/>
        <pt x="272" y="121" on="1"/>
        <pt x="333" y="121" on="0"/>
        <pt x="423" y="204" on="0"/>
        <pt x="438" y="273" on="1"/>
        <pt x="528" y="700" on="1"/>
        <pt x="672" y="700" on="1"/>
      </contour>
    </TTGlyph>
    <TTGlyph name="Jcircumflex" xMin="14" yMin="-9" xMax="801" yMax="920">
      <component glyphName="J" x="0" y="0" flags="0x204"/>
      <component glyphName="circumflex" x="292" y="179" flags="0x4"/>
    </TTGlyph>
    <TTGlyph name="K" xMin="7" yMin="0" xMax="776" yMax="700">
      <contour>
        <pt x="7" y="0" on="1"/>
        <pt x="156" y="700" on="1"/>
        <pt x="298" y="700" on="1"/>
        <pt x="234" y="397" on="1"/>
        <pt x="591" y="700" on="1"/>
        <pt x="776" y="700" on="1"/>
        <pt x="367" y="363" on="1"/>
        <pt x="632" y="0" on="1"/>
        <pt x="452" y="0" on="1"/>
        <pt x="220" y="332" on="1"/>
        <pt x="149" y="0" on="1"/>
      </contour>
    </TTGlyph>
    <TTGlyph name="Kcommaaccent" xMin="7" yMin="-286" xMax="776" yMax="700">
      <component glyphName="K" x="0" y="0" flags="0x204"/>
      <component glyphName="commaaccent" x="230" y="0" flags="0x4"/>
    </TTGlyph>
    <TTGlyph name="L" xMin="7" yMin="0" xMax="551" yMax="700">
      <contour>
        <pt x="7" y="0" on="1"/>
        <pt x="156" y="700" on="1"/>
        <pt x="298" y="700" on="1"/>
        <pt x="176" y="128" on="1"/>
        <pt x="551" y="128" on="1"/>
        <pt x="524" y="0" on="1"/>
      </contour>
    </TTGlyph>
    <TTGlyph name="Lacute" xMin="7" yMin="0" xMax="551" yMax="917">
      <component glyphName="L" x="0" y="0" flags="0x204"/>
      <component glyphName="acute" x="-49" y="179" flags="0x4"/>
    </TTGlyph>
    <TTGlyph name="Lcaron" xMin="7" yMin="0" xMax="619" yMax="720">
      <component glyphName="L" x="0" y="0" flags="0x4"/>
      <component glyphName="caronSlovak" x="288" y="0" flags="0x4"/>
    </TTGlyph>
    <TTGlyph name="Lcommaaccent" xMin="7" yMin="-286" xMax="551" yMax="700">
      <component glyphName="L" x="0" y="0" flags="0x204"/>
      <component glyphName="commaaccent" x="215" y="0" flags="0x4"/>
    </TTGlyph>
    <TTGlyph name="Ldot" xMin="7" yMin="0" xMax="551" yMax="700">
      <component glyphName="L" x="0" y="0" flags="0x4"/>
      <component glyphName="dotaccent" x="232" y="-306" flags="0x4"/>
    </TTGlyph>
    <TTGlyph name="Lslash" xMin="-10" yMin="0" xMax="577" yMax="700">
      <contour>
        <pt x="33" y="0" on="1"/>
        <pt x="77" y="208" on="1"/>
        <pt x="-10" y="159" on="1"/>
        <pt x="16" y="282" on="1"/>
        <pt x="103" y="331" on="1"/>
        <pt x="182" y="700" on="1"/>
        <pt x="324" y="700" on="1"/>
        <pt x="265" y="422" on="1"/>
        <pt x="467" y="535" on="1"/>
        <pt x="441" y="412" on="1"/>
        <pt x="239" y="298" on="1"/>
        <pt x="202" y="128" on="1"/>
        <pt x="577" y="128" on="1"/>
        <pt x="550" y="0" on="1"/>
      </contour>
    </TTGlyph>
    <TTGlyph name="M" xMin="7" yMin="0" xMax="896" yMax="700">
      <contour>
        <pt x="390" y="50" on="1"/>
        <pt x="250" y="515" on="1"/>
        <pt x="141" y="0" on="1"/>
        <pt x="7" y="0" on="1"/>
        <pt x="156" y="700" on="1"/>
        <pt x="334" y="700" on="1"/>
        <pt x="442" y="323" on="1"/>
        <pt x="710" y="700" on="1"/>
        <pt x="896" y="700" on="1"/>
        <pt x="747" y="0" on="1"/>
        <pt x="616" y="0" on="1"/>
        <pt x="724" y="513" on="1"/>
      </contour>
    </TTGlyph>
    <TTGlyph name="N" xMin="7" yMin="0" xMax="765" yMax="700">
      <contour>
        <pt x="156" y="700" on="1"/>
        <pt x="290" y="700" on="1"/>
        <pt x="532" y="235" on="1"/>
        <pt x="631" y="700" on="1"/>
        <pt x="765" y="700" on="1"/>
        <pt x="616" y="0" on="1"/>
        <pt x="492" y="0" on="1"/>
        <pt x="243" y="480" on="1"/>
        <pt x="141" y="0" on="1"/>
        <pt x="7" y="0" on="1"/>
      </contour>
    </TTGlyph>
    <TTGlyph name="Nacute" xMin="7" yMin="0" xMax="765" yMax="917">
      <component glyphName="N" x="0" y="0" flags="0x204"/>
      <component glyphName="acute" x="185" y="179" flags="0x4"/>
    </TTGlyph>
    <TTGlyph name="Ncaron" xMin="7" yMin="0" xMax="765" yMax="920">
      <component glyphName="N" x="0" y="0" flags="0x204"/>
      <component glyphName="caron" x="152" y="179" flags="0x4"/>
    </TTGlyph>
    <TTGlyph name="Ncommaaccent" xMin="7" yMin="-286" xMax="765" yMax="700">
      <component glyphName="N" x="0" y="0" flags="0x204"/>
      <component glyphName="commaaccent" x="239" y="0" flags="0x4"/>
    </TTGlyph>
    <TTGlyph name="Ntilde" xMin="7" yMin="0" xMax="765" yMax="921">
      <component glyphName="N" x="0" y="0" flags="0x204"/>
      <component glyphName="tilde" x="155" y="179" flags="0x4"/>
    </TTGlyph>
    <TTGlyph name="O" xMin="54" yMin="-11" xMax="781" yMax="711">
      <contour>
        <pt x="781" y="380" on="1"/>
        <pt x="781" y="300" on="0"/>
        <pt x="719" y="157" on="0"/>
        <pt x="614" y="51" on="0"/>
        <pt x="471" y="-11" on="0"/>
        <pt x="392" y="-11" on="1"/>
        <pt x="320" y="-11" on="0"/>
        <pt x="196" y="39" on="0"/>
        <pt x="106" y="127" on="0"/>
        <pt x="54" y="249" on="0"/>
        <pt x="54" y="320" on="1"/>
        <pt x="54" y="400" on="0"/>
        <pt x="116" y="543" on="0"/>
        <pt x="221" y="649" on="0"/>
        <pt x="364" y="711" on="0"/>
        <pt x="443" y="711" on="1"/>
        <pt x="515" y="711" on="0"/>
        <pt x="639" y="661" on="0"/>
        <pt x="729" y="573" on="0"/>
        <pt x="781" y="451" on="0"/>
      </contour>
      <contour>
        <pt x="636" y="371" on="1"/>
        <pt x="636" y="415" on="0"/>
        <pt x="606" y="492" on="0"/>
        <pt x="552" y="547" on="0"/>
        <pt x="478" y="578" on="0"/>
        <pt x="434" y="578" on="1"/>
        <pt x="385" y="578" on="0"/>
        <pt x="299" y="539" on="0"/>
        <pt x="236" y="471" on="0"/>
        <pt x="199" y="380" on="0"/>
        <pt x="199" y="329" on="1"/>
        <pt x="199" y="285" on="0"/>
        <pt x="230" y="208" on="0"/>
        <pt x="283" y="153" on="0"/>
        <pt x="358" y="122" on="0"/>
        <pt x="401" y="122" on="1"/>
        <pt x="450" y="122" on="0"/>
        <pt x="536" y="161" on="0"/>
        <pt x="599" y="229" on="0"/>
        <pt x="636" y="320" on="0"/>
      </contour>
    </TTGlyph>
    <TTGlyph name="OE" xMin="53" yMin="0" xMax="1145" yMax="701">
      <contour>
        <pt x="387" y="0" on="1"/>
        <pt x="316" y="0" on="0"/>
        <pt x="193" y="49" on="0"/>
        <pt x="104" y="135" on="0"/>
        <pt x="53" y="253" on="0"/>
        <pt x="53" y="321" on="1"/>
        <pt x="53" y="398" on="0"/>
        <pt x="115" y="537" on="0"/>
        <pt x="220" y="640" on="0"/>
        <pt x="361" y="701" on="0"/>
        <pt x="439" y="701" on="1"/>
        <pt x="446" y="701" on="0"/>
        <pt x="458" y="701" on="0"/>
        <pt x="465" y="700" on="1"/>
        <pt x="1145" y="700" on="1"/>
        <pt x="1119" y="574" on="1"/>
        <pt x="703" y="574" on="1"/>
        <pt x="730" y="540" on="0"/>
        <pt x="764" y="459" on="0"/>
        <pt x="768" y="414" on="1"/>
        <pt x="961" y="414" on="1"/>
        <pt x="935" y="292" on="1"/>
        <pt x="759" y="292" on="1"/>
        <pt x="748" y="246" on="0"/>
        <pt x="701" y="161" on="0"/>
        <pt x="669" y="126" on="1"/>
        <pt x="1023" y="126" on="1"/>
        <pt x="997" y="0" on="1"/>
      </contour>
      <contour>
        <pt x="396" y="132" on="1"/>
        <pt x="443" y="132" on="0"/>
        <pt x="526" y="170" on="0"/>
        <pt x="587" y="235" on="0"/>
        <pt x="623" y="323" on="0"/>
        <pt x="623" y="372" on="1"/>
        <pt x="623" y="456" on="0"/>
        <pt x="513" y="568" on="0"/>
        <pt x="429" y="568" on="1"/>
        <pt x="382" y="568" on="0"/>
        <pt x="299" y="530" on="0"/>
        <pt x="237" y="465" on="0"/>
        <pt x="200" y="378" on="0"/>
        <pt x="200" y="329" on="1"/>
        <pt x="200" y="244" on="0"/>
        <pt x="312" y="132" on="0"/>
      </contour>
    </TTGlyph>
    <TTGlyph name="Oacute" xMin="54" yMin="-11" xMax="781" yMax="917">
      <component glyphName="O" x="0" y="0" flags="0x204"/>
      <component glyphName="acute" x="174" y="179" flags="0x4"/>
    </TTGlyph>
    <TTGlyph name="Obreve" xMin="54" yMin="-11" xMax="781" yMax="939">
      <component glyphName="O" x="0" y="0" flags="0x204"/>
      <component glyphName="breve" x="141" y="179" flags="0x4"/>
    </TTGlyph>
    <TTGlyph name="Ocircumflex" xMin="54" yMin="-11" xMax="781" yMax="920">
      <component glyphName="O" x="0" y="0" flags="0x204"/>
      <component glyphName="circumflex" x="139" y="179" flags="0x4"/>
    </TTGlyph>
    <TTGlyph name="Odieresis" xMin="54" yMin="-11" xMax="781" yMax="926">
      <component glyphName="O" x="0" y="0" flags="0x204"/>
      <component glyphName="dieresis" x="105" y="179" flags="0x4"/>
    </TTGlyph>
    <TTGlyph name="Ograve" xMin="54" yMin="-11" xMax="781" yMax="917">
      <component glyphName="O" x="0" y="0" flags="0x204"/>
      <component glyphName="grave" x="120" y="179" flags="0x4"/>
    </TTGlyph>
    <TTGlyph name="Ohungarumlaut" xMin="54" yMin="-11" xMax="781" yMax="916">
      <component glyphName="O" x="0" y="0" flags="0x204"/>
      <component glyphName="hungarumlaut" x="150" y="179" flags="0x4"/>
    </TTGlyph>
    <TTGlyph name="Omacron" xMin="54" yMin="-11" xMax="781" yMax="892">
      <component glyphName="O" x="0" y="0" flags="0x204"/>
      <component glyphName="macron" x="140" y="179" flags="0x4"/>
    </TTGlyph>
    <TTGlyph name="Oslash" xMin="-5" yMin="-11" xMax="839" yMax="711">
      <contour>
        <pt x="127" y="0" on="1"/>
        <pt x="-5" y="0" on="1"/>
        <pt x="118" y="121" on="1"/>
        <pt x="87" y="161" on="0"/>
        <pt x="54" y="263" on="0"/>
        <pt x="54" y="320" on="1"/>
        <pt x="54" y="400" on="0"/>
        <pt x="116" y="543" on="0"/>
        <pt x="221" y="649" on="0"/>
        <pt x="364" y="711" on="0"/>
        <pt x="443" y="711" on="1"/>
        <pt x="503" y="711" on="0"/>
        <pt x="608" y="676" on="0"/>
        <pt x="651" y="645" on="1"/>
        <pt x="706" y="700" on="1"/>
        <pt x="839" y="700" on="1"/>
        <pt x="717" y="580" on="1"/>
        <pt x="747" y="539" on="0"/>
        <pt x="781" y="437" on="0"/>
        <pt x="781" y="380" on="1"/>
        <pt x="781" y="300" on="0"/>
        <pt x="719" y="157" on="0"/>
        <pt x="614" y="51" on="0"/>
        <pt x="471" y="-11" on="0"/>
        <pt x="392" y="-11" on="1"/>
        <pt x="332" y="-11" on="0"/>
        <pt x="226" y="24" on="0"/>
        <pt x="183" y="55" on="1"/>
      </contour>
      <contour>
        <pt x="199" y="329" on="1"/>
        <pt x="199" y="301" on="0"/>
        <pt x="212" y="247" on="0"/>
        <pt x="224" y="225" on="1"/>
        <pt x="548" y="545" on="1"/>
        <pt x="524" y="561" on="0"/>
        <pt x="466" y="578" on="0"/>
        <pt x="434" y="578" on="1"/>
        <pt x="385" y="578" on="0"/>
        <pt x="299" y="539" on="0"/>
        <pt x="236" y="471" on="0"/>
        <pt x="199" y="380" on="0"/>
      </contour>
      <contour>
        <pt x="636" y="371" on="1"/>
        <pt x="636" y="400" on="0"/>
        <pt x="623" y="453" on="0"/>
        <pt x="611" y="476" on="1"/>
        <pt x="286" y="156" on="1"/>
        <pt x="310" y="140" on="0"/>
        <pt x="368" y="122" on="0"/>
        <pt x="401" y="122" on="1"/>
        <pt x="450" y="122" on="0"/>
        <pt x="536" y="161" on="0"/>
        <pt x="599" y="229" on="0"/>
        <pt x="636" y="320" on="0"/>
      </contour>
    </TTGlyph>
    <TTGlyph name="Otilde" xMin="54" yMin="-11" xMax="781" yMax="921">
      <component glyphName="O" x="0" y="0" flags="0x204"/>
      <component glyphName="tilde" x="144" y="179" flags="0x4"/>
    </TTGlyph>
    <TTGlyph name="P" xMin="7" yMin="0" xMax="683" yMax="700">
      <contour>
        <pt x="7" y="0" on="1"/>
        <pt x="156" y="700" on="1"/>
        <pt x="468" y="700" on="1"/>
        <pt x="564" y="700" on="0"/>
        <pt x="683" y="590" on="0"/>
        <pt x="683" y="502" on="1"/>
        <pt x="683" y="452" on="0"/>
        <pt x="643" y="365" on="0"/>
        <pt x="573" y="301" on="0"/>
        <pt x="477" y="264" on="0"/>
        <pt x="423" y="264" on="1"/>
        <pt x="205" y="264" on="1"/>
        <pt x="149" y="0" on="1"/>
      </contour>
      <contour>
        <pt x="444" y="575" on="1"/>
        <pt x="271" y="575" on="1"/>
        <pt x="231" y="384" on="1"/>
        <pt x="420" y="384" on="1"/>
        <pt x="471" y="384" on="0"/>
        <pt x="539" y="444" on="0"/>
        <pt x="539" y="490" on="1"/>
        <pt x="539" y="529" on="0"/>
        <pt x="487" y="575" on="0"/>
      </contour>
    </TTGlyph>
    <TTGlyph name="Q" xMin="54" yMin="-32" xMax="781" yMax="711">
      <contour>
        <pt x="781" y="380" on="1"/>
        <pt x="781" y="290" on="0"/>
        <pt x="703" y="132" on="0"/>
        <pt x="638" y="78" on="1"/>
        <pt x="692" y="-15" on="1"/>
        <pt x="560" y="-32" on="1"/>
        <pt x="533" y="16" on="1"/>
        <pt x="500" y="3" on="0"/>
        <pt x="429" y="-11" on="0"/>
        <pt x="392" y="-11" on="1"/>
        <pt x="320" y="-11" on="0"/>
        <pt x="196" y="39" on="0"/>
        <pt x="106" y="127" on="0"/>
        <pt x="54" y="249" on="0"/>
        <pt x="54" y="320" on="1"/>
        <pt x="54" y="400" on="0"/>
        <pt x="116" y="543" on="0"/>
        <pt x="221" y="649" on="0"/>
        <pt x="364" y="711" on="0"/>
        <pt x="443" y="711" on="1"/>
        <pt x="515" y="711" on="0"/>
        <pt x="639" y="661" on="0"/>
        <pt x="729" y="573" on="0"/>
        <pt x="781" y="451" on="0"/>
      </contour>
      <contour>
        <pt x="533" y="259" on="1"/>
        <pt x="569" y="197" on="1"/>
        <pt x="600" y="231" on="0"/>
        <pt x="636" y="320" on="0"/>
        <pt x="636" y="371" on="1"/>
        <pt x="636" y="415" on="0"/>
        <pt x="606" y="492" on="0"/>
        <pt x="552" y="547" on="0"/>
        <pt x="478" y="578" on="0"/>
        <pt x="434" y="578" on="1"/>
        <pt x="385" y="578" on="0"/>
        <pt x="299" y="539" on="0"/>
        <pt x="236" y="471" on="0"/>
        <pt x="199" y="380" on="0"/>
        <pt x="199" y="329" on="1"/>
        <pt x="199" y="285" on="0"/>
        <pt x="230" y="208" on="0"/>
        <pt x="283" y="153" on="0"/>
        <pt x="358" y="122" on="0"/>
        <pt x="401" y="122" on="1"/>
        <pt x="418" y="122" on="0"/>
        <pt x="450" y="127" on="0"/>
        <pt x="466" y="132" on="1"/>
        <pt x="403" y="242" on="1"/>
      </contour>
    </TTGlyph>
    <TTGlyph name="R" xMin="7" yMin="0" xMax="683" yMax="700">
      <contour>
        <pt x="7" y="0" on="1"/>
        <pt x="156" y="700" on="1"/>
        <pt x="468" y="700" on="1"/>
        <pt x="564" y="700" on="0"/>
        <pt x="683" y="592" on="0"/>
        <pt x="683" y="505" on="1"/>
        <pt x="683" y="424" on="0"/>
        <pt x="580" y="302" on="0"/>
        <pt x="500" y="280" on="1"/>
        <pt x="605" y="0" on="1"/>
        <pt x="455" y="0" on="1"/>
        <pt x="362" y="270" on="1"/>
        <pt x="206" y="270" on="1"/>
        <pt x="149" y="0" on="1"/>
      </contour>
      <contour>
        <pt x="443" y="575" on="1"/>
        <pt x="271" y="575" on="1"/>
        <pt x="232" y="388" on="1"/>
        <pt x="420" y="388" on="1"/>
        <pt x="471" y="388" on="0"/>
        <pt x="538" y="447" on="0"/>
        <pt x="538" y="492" on="1"/>
        <pt x="538" y="530" on="0"/>
        <pt x="486" y="575" on="0"/>
      </contour>
    </TTGlyph>
    <TTGlyph name="Racute" xMin="7" yMin="0" xMax="683" yMax="917">
      <component glyphName="R" x="0" y="0" flags="0x204"/>
      <component glyphName="acute" x="144" y="179" flags="0x4"/>
    </TTGlyph>
    <TTGlyph name="Rcaron" xMin="7" yMin="0" xMax="683" yMax="920">
      <component glyphName="R" x="0" y="0" flags="0x204"/>
      <component glyphName="caron" x="110" y="179" flags="0x4"/>
    </TTGlyph>
    <TTGlyph name="Rcommaaccent" xMin="7" yMin="-286" xMax="683" yMax="700">
      <component glyphName="R" x="0" y="0" flags="0x204"/>
      <component glyphName="commaaccent" x="213" y="0" flags="0x4"/>
    </TTGlyph>
    <TTGlyph name="S" xMin="-12" yMin="-10" xMax="633" yMax="710">
      <contour>
        <pt x="-12" y="132" on="1"/>
        <pt x="83" y="230" on="1"/>
        <pt x="137" y="170" on="0"/>
        <pt x="253" y="111" on="0"/>
        <pt x="319" y="111" on="1"/>
        <pt x="379" y="111" on="0"/>
        <pt x="452" y="161" on="0"/>
        <pt x="452" y="202" on="1"/>
        <pt x="452" y="232" on="0"/>
        <pt x="405" y="269" on="0"/>
        <pt x="351" y="283" on="1"/>
        <pt x="220" y="317" on="1"/>
        <pt x="144" y="337" on="0"/>
        <pt x="65" y="427" on="0"/>
        <pt x="65" y="493" on="1"/>
        <pt x="65" y="592" on="0"/>
        <pt x="210" y="710" on="0"/>
        <pt x="333" y="710" on="1"/>
        <pt x="417" y="710" on="0"/>
        <pt x="576" y="647" on="0"/>
        <pt x="633" y="591" on="1"/>
        <pt x="543" y="489" on="1"/>
        <pt x="492" y="539" on="0"/>
        <pt x="380" y="589" on="0"/>
        <pt x="320" y="589" on="1"/>
        <pt x="266" y="589" on="0"/>
        <pt x="201" y="546" on="0"/>
        <pt x="201" y="509" on="1"/>
        <pt x="201" y="482" on="0"/>
        <pt x="243" y="447" on="0"/>
        <pt x="290" y="434" on="1"/>
        <pt x="415" y="404" on="1"/>
        <pt x="504" y="382" on="0"/>
        <pt x="593" y="291" on="0"/>
        <pt x="593" y="223" on="1"/>
        <pt x="593" y="118" on="0"/>
        <pt x="437" y="-10" on="0"/>
        <pt x="307" y="-10" on="1"/>
        <pt x="212" y="-10" on="0"/>
        <pt x="48" y="63" on="0"/>
      </contour>
    </TTGlyph>
    <TTGlyph name="Sacute" xMin="-12" yMin="-10" xMax="633" yMax="917">
      <component glyphName="S" x="0" y="0" flags="0x204"/>
      <component glyphName="acute" x="72" y="179" flags="0x4"/>
    </TTGlyph>
    <TTGlyph name="Scaron" xMin="-12" yMin="-10" xMax="633" yMax="920">
      <component glyphName="S" x="0" y="0" flags="0x204"/>
      <component glyphName="caron" x="39" y="179" flags="0x4"/>
    </TTGlyph>
    <TTGlyph name="Scedilla" xMin="-12" yMin="-235" xMax="633" yMax="710">
      <contour>
        <pt x="-12" y="132" on="1"/>
        <pt x="83" y="230" on="1"/>
        <pt x="137" y="170" on="0"/>
        <pt x="253" y="111" on="0"/>
        <pt x="319" y="111" on="1"/>
        <pt x="379" y="111" on="0"/>
        <pt x="452" y="161" on="0"/>
        <pt x="452" y="202" on="1"/>
        <pt x="452" y="232" on="0"/>
        <pt x="405" y="269" on="0"/>
        <pt x="351" y="283" on="1"/>
        <pt x="220" y="317" on="1"/>
        <pt x="144" y="337" on="0"/>
        <pt x="65" y="427" on="0"/>
        <pt x="65" y="493" on="1"/>
        <pt x="65" y="592" on="0"/>
        <pt x="210" y="710" on="0"/>
        <pt x="333" y="710" on="1"/>
        <pt x="417" y="710" on="0"/>
        <pt x="576" y="647" on="0"/>
        <pt x="633" y="591" on="1"/>
        <pt x="543" y="489" on="1"/>
        <pt x="492" y="539" on="0"/>
        <pt x="380" y="589" on="0"/>
        <pt x="320" y="589" on="1"/>
        <pt x="266" y="589" on="0"/>
        <pt x="201" y="546" on="0"/>
        <pt x="201" y="509" on="1"/>
        <pt x="201" y="482" on="0"/>
        <pt x="243" y="447" on="0"/>
        <pt x="290" y="434" on="1"/>
        <pt x="415" y="404" on="1"/>
        <pt x="504" y="382" on="0"/>
        <pt x="593" y="291" on="0"/>
        <pt x="593" y="223" on="1"/>
        <pt x="593" y="121" on="0"/>
        <pt x="446" y="-6" on="0"/>
        <pt x="323" y="-10" on="1"/>
        <pt x="304" y="-47" on="1"/>
        <pt x="341" y="-53" on="0"/>
        <pt x="380" y="-95" on="0"/>
        <pt x="380" y="-127" on="1"/>
        <pt x="380" y="-172" on="0"/>
        <pt x="300" y="-235" on="0"/>
        <pt x="243" y="-235" on="1"/>
        <pt x="203" y="-235" on="0"/>
        <pt x="142" y="-210" on="0"/>
        <pt x="119" y="-184" on="1"/>
        <pt x="169" y="-138" on="1"/>
        <pt x="185" y="-154" on="0"/>
        <pt x="224" y="-171" on="0"/>
        <pt x="246" y="-171" on="1"/>
        <pt x="271" y="-171" on="0"/>
        <pt x="302" y="-149" on="0"/>
        <pt x="302" y="-131" on="1"/>
        <pt x="302" y="-115" on="0"/>
        <pt x="275" y="-95" on="0"/>
        <pt x="253" y="-95" on="1"/>
        <pt x="214" y="-95" on="1"/>
        <pt x="258" y="-7" on="1"/>
        <pt x="178" y="1" on="0"/>
        <pt x="40" y="72" on="0"/>
      </contour>
    </TTGlyph>
    <TTGlyph name="Scircumflex" xMin="-12" yMin="-10" xMax="633" yMax="920">
      <component glyphName="S" x="0" y="0" flags="0x204"/>
      <component glyphName="circumflex" x="37" y="179" flags="0x4"/>
    </TTGlyph>
    <TTGlyph name="Scommaaccent" xMin="-12" yMin="-286" xMax="633" yMax="710">
      <component glyphName="S" x="0" y="0" flags="0x204"/>
      <component glyphName="commaaccent" x="224" y="0" flags="0x4"/>
    </TTGlyph>
    <TTGlyph name="T" xMin="83" yMin="0" xMax="715" yMax="700">
      <contour>
        <pt x="83" y="572" on="1"/>
        <pt x="111" y="700" on="1"/>
        <pt x="715" y="700" on="1"/>
        <pt x="687" y="572" on="1"/>
        <pt x="457" y="572" on="1"/>
        <pt x="335" y="0" on="1"/>
        <pt x="193" y="0" on="1"/>
        <pt x="315" y="572" on="1"/>
      </contour>
    </TTGlyph>
    <TTGlyph name="Tbar" xMin="83" yMin="0" xMax="715" yMax="700">
      <contour>
        <pt x="139" y="395" on="1"/>
        <pt x="277" y="395" on="1"/>
        <pt x="315" y="572" on="1"/>
        <pt x="83" y="572" on="1"/>
        <pt x="111" y="700" on="1"/>
        <pt x="715" y="700" on="1"/>
        <pt x="687" y="572" on="1"/>
        <pt x="457" y="572" on="1"/>
        <pt x="419" y="395" on="1"/>
        <pt x="557" y="395" on="1"/>
        <pt x="533" y="280" on="1"/>
        <pt x="395" y="280" on="1"/>
        <pt x="335" y="0" on="1"/>
        <pt x="193" y="0" on="1"/>
        <pt x="253" y="280" on="1"/>
        <pt x="115" y="280" on="1"/>
      </contour>
    </TTGlyph>
    <TTGlyph name="Tcaron" xMin="83" yMin="0" xMax="715" yMax="920">
      <component glyphName="T" x="0" y="0" flags="0x204"/>
      <component glyphName="caron" x="104" y="179" flags="0x4"/>
    </TTGlyph>
    <TTGlyph name="Tcedilla" xMin="83" yMin="-235" xMax="715" yMax="700">
      <contour>
        <pt x="83" y="572" on="1"/>
        <pt x="111" y="700" on="1"/>
        <pt x="715" y="700" on="1"/>
        <pt x="687" y="572" on="1"/>
        <pt x="457" y="572" on="1"/>
        <pt x="335" y="0" on="1"/>
        <pt x="301" y="0" on="1"/>
        <pt x="277" y="-47" on="1"/>
        <pt x="314" y="-53" on="0"/>
        <pt x="353" y="-95" on="0"/>
        <pt x="353" y="-127" on="1"/>
        <pt x="353" y="-172" on="0"/>
        <pt x="273" y="-235" on="0"/>
        <pt x="216" y="-235" on="1"/>
        <pt x="176" y="-235" on="0"/>
        <pt x="115" y="-210" on="0"/>
        <pt x="92" y="-184" on="1"/>
        <pt x="142" y="-138" on="1"/>
        <pt x="158" y="-154" on="0"/>
        <pt x="197" y="-171" on="0"/>
        <pt x="219" y="-171" on="1"/>
        <pt x="244" y="-171" on="0"/>
        <pt x="275" y="-149" on="0"/>
        <pt x="275" y="-131" on="1"/>
        <pt x="275" y="-115" on="0"/>
        <pt x="248" y="-95" on="0"/>
        <pt x="226" y="-95" on="1"/>
        <pt x="187" y="-95" on="1"/>
        <pt x="235" y="0" on="1"/>
        <pt x="193" y="0" on="1"/>
        <pt x="315" y="572" on="1"/>
      </contour>
    </TTGlyph>
    <TTGlyph name="Thorn" xMin="8" yMin="0" xMax="632" yMax="700">
      <contour>
        <pt x="8" y="0" on="1"/>
        <pt x="157" y="700" on="1"/>
        <pt x="298" y="700" on="1"/>
        <pt x="270" y="569" on="1"/>
        <pt x="423" y="569" on="1"/>
        <pt x="516" y="569" on="0"/>
        <pt x="632" y="462" on="0"/>
        <pt x="632" y="375" on="1"/>
        <pt x="632" y="324" on="0"/>
        <pt x="593" y="235" on="0"/>
        <pt x="525" y="170" on="0"/>
        <pt x="432" y="133" on="0"/>
        <pt x="378" y="133" on="1"/>
        <pt x="177" y="133" on="1"/>
        <pt x="149" y="0" on="1"/>
      </contour>
      <contour>
        <pt x="397" y="444" on="1"/>
        <pt x="244" y="444" on="1"/>
        <pt x="203" y="253" on="1"/>
        <pt x="374" y="253" on="1"/>
        <pt x="424" y="253" on="0"/>
        <pt x="487" y="315" on="0"/>
        <pt x="487" y="364" on="1"/>
        <pt x="487" y="401" on="0"/>
        <pt x="438" y="444" on="0"/>
      </contour>
    </TTGlyph>
    <TTGlyph name="U" xMin="57" yMin="-9" xMax="752" yMax="700">
      <contour>
        <pt x="662" y="278" on="1"/>
        <pt x="633" y="143" on="0"/>
        <pt x="457" y="-9" on="0"/>
        <pt x="330" y="-9" on="1"/>
        <pt x="255" y="-9" on="0"/>
        <pt x="141" y="40" on="0"/>
        <pt x="72" y="129" on="0"/>
        <pt x="50" y="253" on="0"/>
        <pt x="66" y="328" on="1"/>
        <pt x="145" y="700" on="1"/>
        <pt x="287" y="700" on="1"/>
        <pt x="205" y="314" on="1"/>
        <pt x="187" y="229" on="0"/>
        <pt x="261" y="124" on="0"/>
        <pt x="339" y="124" on="1"/>
        <pt x="407" y="124" on="0"/>
        <pt x="508" y="215" on="0"/>
        <pt x="524" y="291" on="1"/>
        <pt x="611" y="700" on="1"/>
        <pt x="752" y="700" on="1"/>
      </contour>
    </TTGlyph>
    <TTGlyph name="Uacute" xMin="57" yMin="-9" xMax="752" yMax="917">
      <component glyphName="U" x="0" y="0" flags="0x204"/>
      <component glyphName="acute" x="167" y="179" flags="0x4"/>
    </TTGlyph>
    <TTGlyph name="Ubreve" xMin="57" yMin="-9" xMax="752" yMax="939">
      <component glyphName="U" x="0" y="0" flags="0x204"/>
      <component glyphName="breve" x="134" y="179" flags="0x4"/>
    </TTGlyph>
    <TTGlyph name="Ucircumflex" xMin="57" yMin="-9" xMax="752" yMax="920">
      <component glyphName="U" x="0" y="0" flags="0x204"/>
      <component glyphName="circumflex" x="132" y="179" flags="0x4"/>
    </TTGlyph>
    <TTGlyph name="Udieresis" xMin="57" yMin="-9" xMax="752" yMax="926">
      <component glyphName="U" x="0" y="0" flags="0x204"/>
      <component glyphName="dieresis" x="99" y="179" flags="0x4"/>
    </TTGlyph>
    <TTGlyph name="Ugrave" xMin="57" yMin="-9" xMax="752" yMax="917">
      <component glyphName="U" x="0" y="0" flags="0x204"/>
      <component glyphName="grave" x="113" y="179" flags="0x4"/>
    </TTGlyph>
    <TTGlyph name="Uhungarumlaut" xMin="57" yMin="-9" xMax="766" yMax="916">
      <component glyphName="U" x="0" y="0" flags="0x204"/>
      <component glyphName="hungarumlaut" x="143" y="179" flags="0x4"/>
    </TTGlyph>
    <TTGlyph name="Umacron" xMin="57" yMin="-9" xMax="752" yMax="892">
      <component glyphName="U" x="0" y="0" flags="0x204"/>
      <component glyphName="macron" x="134" y="179" flags="0x4"/>
    </TTGlyph>
    <TTGlyph name="Uogonek" xMin="57" yMin="-221" xMax="752" yMax="700">
      <contour>
        <pt x="414" y="0" on="1"/>
        <pt x="357" y="-30" on="0"/>
        <pt x="302" y="-87" on="0"/>
        <pt x="302" y="-115" on="1"/>
        <pt x="302" y="-131" on="0"/>
        <pt x="325" y="-150" on="0"/>
        <pt x="344" y="-150" on="1"/>
        <pt x="354" y="-150" on="0"/>
        <pt x="375" y="-144" on="0"/>
        <pt x="384" y="-139" on="1"/>
        <pt x="390" y="-200" on="1"/>
        <pt x="371" y="-210" on="0"/>
        <pt x="328" y="-221" on="0"/>
        <pt x="307" y="-221" on="1"/>
        <pt x="267" y="-221" on="0"/>
        <pt x="219" y="-182" on="0"/>
        <pt x="219" y="-148" on="1"/>
        <pt x="219" y="-110" on="0"/>
        <pt x="270" y="-40" on="0"/>
        <pt x="321" y="-9" on="1"/>
        <pt x="249" y="-8" on="0"/>
        <pt x="138" y="43" on="0"/>
        <pt x="72" y="131" on="0"/>
        <pt x="50" y="254" on="0"/>
        <pt x="66" y="328" on="1"/>
        <pt x="145" y="700" on="1"/>
        <pt x="287" y="700" on="1"/>
        <pt x="205" y="314" on="1"/>
        <pt x="187" y="229" on="0"/>
        <pt x="261" y="124" on="0"/>
        <pt x="339" y="124" on="1"/>
        <pt x="407" y="124" on="0"/>
        <pt x="508" y="215" on="0"/>
        <pt x="524" y="291" on="1"/>
        <pt x="611" y="700" on="1"/>
        <pt x="752" y="700" on="1"/>
        <pt x="662" y="278" on="1"/>
        <pt x="638" y="166" on="0"/>
        <pt x="508" y="22" on="0"/>
        <pt x="413" y="0" on="1"/>
      </contour>
    </TTGlyph>
    <TTGlyph name="Uring" xMin="57" yMin="-9" xMax="752" yMax="1006">
      <component glyphName="U" x="0" y="0" flags="0x204"/>
      <component glyphName="ring" x="134" y="179" flags="0x4"/>
    </TTGlyph>
    <TTGlyph name="Utilde" xMin="57" yMin="-9" xMax="752" yMax="921">
      <component glyphName="U" x="0" y="0" flags="0x204"/>
      <component glyphName="tilde" x="137" y="179" flags="0x4"/>
    </TTGlyph>
    <TTGlyph name="V" xMin="90" yMin="0" xMax="815" yMax="700">
      <contour>
        <pt x="223" y="0" on="1"/>
        <pt x="90" y="700" on="1"/>
        <pt x="238" y="700" on="1"/>
        <pt x="334" y="149" on="1"/>
        <pt x="662" y="700" on="1"/>
        <pt x="815" y="700" on="1"/>
        <pt x="388" y="0" on="1"/>
      </contour>
    </TTGlyph>
    <TTGlyph name="W" xMin="120" yMin="0" xMax="993" yMax="700">
      <contour>
        <pt x="271" y="0" on="1"/>
        <pt x="122" y="0" on="1"/>
        <pt x="120" y="700" on="1"/>
        <pt x="260" y="700" on="1"/>
        <pt x="253" y="225" on="1"/>
        <pt x="487" y="700" on="1"/>
        <pt x="621" y="700" on="1"/>
        <pt x="654" y="225" on="1"/>
        <pt x="848" y="700" on="1"/>
        <pt x="993" y="700" on="1"/>
        <pt x="694" y="0" on="1"/>
        <pt x="544" y="0" on="1"/>
        <pt x="511" y="489" on="1"/>
      </contour>
    </TTGlyph>
    <TTGlyph name="Wacute" xMin="120" yMin="0" xMax="993" yMax="917">
      <component glyphName="W" x="0" y="0" flags="0x204"/>
      <component glyphName="acute" x="279" y="179" flags="0x4"/>
    </TTGlyph>
    <TTGlyph name="Wcircumflex" xMin="120" yMin="0" xMax="993" yMax="920">
      <component glyphName="W" x="0" y="0" flags="0x204"/>
      <component glyphName="circumflex" x="244" y="179" flags="0x4"/>
    </TTGlyph>
    <TTGlyph name="Wdieresis" xMin="120" yMin="0" xMax="993" yMax="926">
      <component glyphName="W" x="0" y="0" flags="0x204"/>
      <component glyphName="dieresis" x="211" y="179" flags="0x4"/>
    </TTGlyph>
    <TTGlyph name="Wgrave" xMin="120" yMin="0" xMax="993" yMax="917">
      <component glyphName="W" x="0" y="0" flags="0x204"/>
      <component glyphName="grave" x="225" y="179" flags="0x4"/>
    </TTGlyph>
    <TTGlyph name="X" xMin="-59" yMin="0" xMax="771" yMax="700">
      <contour>
        <pt x="113" y="0" on="1"/>
        <pt x="-59" y="0" on="1"/>
        <pt x="285" y="366" on="1"/>
        <pt x="113" y="700" on="1"/>
        <pt x="274" y="700" on="1"/>
        <pt x="388" y="470" on="1"/>
        <pt x="599" y="700" on="1"/>
        <pt x="771" y="700" on="1"/>
        <pt x="449" y="358" on="1"/>
        <pt x="633" y="0" on="1"/>
        <pt x="473" y="0" on="1"/>
        <pt x="346" y="255" on="1"/>
      </contour>
    </TTGlyph>
    <TTGlyph name="Y" xMin="87" yMin="0" xMax="791" yMax="700">
      <contour>
        <pt x="219" y="0" on="1"/>
        <pt x="276" y="267" on="1"/>
        <pt x="87" y="700" on="1"/>
        <pt x="238" y="700" on="1"/>
        <pt x="368" y="396" on="1"/>
        <pt x="624" y="700" on="1"/>
        <pt x="791" y="700" on="1"/>
        <pt x="417" y="267" on="1"/>
        <pt x="361" y="0" on="1"/>
      </contour>
    </TTGlyph>
    <TTGlyph name="Yacute" xMin="87" yMin="0" xMax="791" yMax="917">
      <component glyphName="Y" x="0" y="0" flags="0x204"/>
      <component glyphName="acute" x="157" y="179" flags="0x4"/>
    </TTGlyph>
    <TTGlyph name="Ycircumflex" xMin="87" yMin="0" xMax="791" yMax="920">
      <component glyphName="Y" x="0" y="0" flags="0x204"/>
      <component glyphName="circumflex" x="122" y="179" flags="0x4"/>
    </TTGlyph>
    <TTGlyph name="Ydieresis" xMin="87" yMin="0" xMax="791" yMax="926">
      <component glyphName="Y" x="0" y="0" flags="0x204"/>
      <component glyphName="dieresis" x="89" y="179" flags="0x4"/>
    </TTGlyph>
    <TTGlyph name="Ygrave" xMin="87" yMin="0" xMax="791" yMax="917">
      <component glyphName="Y" x="0" y="0" flags="0x204"/>
      <component glyphName="grave" x="103" y="179" flags="0x4"/>
    </TTGlyph>
    <TTGlyph name="Z" xMin="-34" yMin="0" xMax="678" yMax="700">
      <contour>
        <pt x="-34" y="0" on="1"/>
        <pt x="-13" y="99" on="1"/>
        <pt x="456" y="574" on="1"/>
        <pt x="91" y="574" on="1"/>
        <pt x="118" y="700" on="1"/>
        <pt x="678" y="700" on="1"/>
        <pt x="656" y="601" on="1"/>
        <pt x="186" y="126" on="1"/>
        <pt x="560" y="126" on="1"/>
        <pt x="533" y="0" on="1"/>
      </contour>
    </TTGlyph>
    <TTGlyph name="Zacute" xMin="-34" yMin="0" xMax="678" yMax="917">
      <component glyphName="Z" x="0" y="0" flags="0x204"/>
      <component glyphName="acute" x="101" y="179" flags="0x4"/>
    </TTGlyph>
    <TTGlyph name="Zcaron" xMin="-34" yMin="0" xMax="678" yMax="920">
      <component glyphName="Z" x="0" y="0" flags="0x204"/>
      <component glyphName="caron" x="68" y="179" flags="0x4"/>
    </TTGlyph>
    <TTGlyph name="Zdotaccent" xMin="-34" yMin="0" xMax="678" yMax="926">
      <component glyphName="Z" x="0" y="0" flags="0x204"/>
      <component glyphName="dotaccent" x="179" y="179" flags="0x4"/>
    </TTGlyph>
    <TTGlyph name="a" xMin="9" yMin="-6" xMax="514" yMax="530">
      <contour>
        <pt x="186" y="-6" on="1"/>
        <pt x="105" y="-6" on="0"/>
        <pt x="9" y="73" on="0"/>
        <pt x="9" y="139" on="1"/>
        <pt x="9" y="218" on="0"/>
        <pt x="127" y="311" on="0"/>
        <pt x="228" y="311" on="1"/>
        <pt x="265" y="311" on="0"/>
        <pt x="338" y="297" on="0"/>
        <pt x="370" y="285" on="1"/>
        <pt x="376" y="311" on="1"/>
        <pt x="387" y="364" on="0"/>
        <pt x="333" y="417" on="0"/>
        <pt x="270" y="417" on="1"/>
        <pt x="242" y="417" on="0"/>
        <pt x="171" y="401" on="0"/>
        <pt x="123" y="383" on="1"/>
        <pt x="90" y="486" on="1"/>
        <pt x="147" y="508" on="0"/>
        <pt x="252" y="530" on="0"/>
        <pt x="299" y="530" on="1"/>
        <pt x="418" y="530" on="0"/>
        <pt x="529" y="414" on="0"/>
        <pt x="508" y="313" on="1"/>
        <pt x="442" y="0" on="1"/>
        <pt x="310" y="0" on="1"/>
        <pt x="317" y="32" on="1"/>
        <pt x="285" y="13" on="0"/>
        <pt x="221" y="-6" on="0"/>
      </contour>
      <contour>
        <pt x="136" y="151" on="1"/>
        <pt x="136" y="123" on="0"/>
        <pt x="187" y="91" on="0"/>
        <pt x="232" y="91" on="1"/>
        <pt x="260" y="91" on="0"/>
        <pt x="312" y="105" on="0"/>
        <pt x="335" y="120" on="1"/>
        <pt x="352" y="198" on="1"/>
        <pt x="327" y="209" on="0"/>
        <pt x="268" y="221" on="0"/>
        <pt x="238" y="221" on="1"/>
        <pt x="191" y="221" on="0"/>
        <pt x="136" y="183" on="0"/>
      </contour>
    </TTGlyph>
    <TTGlyph name="a.school" xMin="30" yMin="-7" xMax="621" yMax="528">
      <contour>
        <pt x="378" y="0" on="1"/>
        <pt x="384" y="26" on="1"/>
        <pt x="356" y="10" on="0"/>
        <pt x="294" y="-7" on="0"/>
        <pt x="262" y="-7" on="1"/>
        <pt x="213" y="-7" on="0"/>
        <pt x="128" y="30" on="0"/>
        <pt x="66" y="94" on="0"/>
        <pt x="30" y="183" on="0"/>
        <pt x="30" y="234" on="1"/>
        <pt x="30" y="295" on="0"/>
        <pt x="76" y="402" on="0"/>
        <pt x="154" y="482" on="0"/>
        <pt x="260" y="528" on="0"/>
        <pt x="320" y="528" on="1"/>
        <pt x="366" y="528" on="0"/>
        <pt x="447" y="500" on="0"/>
        <pt x="478" y="474" on="1"/>
        <pt x="488" y="521" on="1"/>
        <pt x="621" y="521" on="1"/>
        <pt x="511" y="0" on="1"/>
      </contour>
      <contour>
        <pt x="162" y="246" on="1"/>
        <pt x="162" y="187" on="0"/>
        <pt x="240" y="109" on="0"/>
        <pt x="298" y="109" on="1"/>
        <pt x="329" y="109" on="0"/>
        <pt x="385" y="130" on="0"/>
        <pt x="408" y="149" on="1"/>
        <pt x="453" y="355" on="1"/>
        <pt x="432" y="380" on="0"/>
        <pt x="364" y="411" on="0"/>
        <pt x="325" y="411" on="1"/>
        <pt x="257" y="411" on="0"/>
        <pt x="162" y="315" on="0"/>
      </contour>
    </TTGlyph>
    <TTGlyph name="aacute" xMin="9" yMin="-6" xMax="518" yMax="738">
      <component glyphName="a" x="0" y="0" flags="0x204"/>
      <component glyphName="acute" x="22" y="0" flags="0x4"/>
    </TTGlyph>
    <TTGlyph name="aacute.school" xMin="30" yMin="-7" xMax="621" yMax="738">
      <component glyphName="a.school" x="0" y="0" flags="0x204"/>
      <component glyphName="acute" x="59" y="0" flags="0x4"/>
    </TTGlyph>
    <TTGlyph name="abreve" xMin="9" yMin="-6" xMax="514" yMax="760">
      <component glyphName="a" x="0" y="0" flags="0x204"/>
      <component glyphName="breve" x="-11" y="0" flags="0x4"/>
    </TTGlyph>
    <TTGlyph name="abreve.school" xMin="30" yMin="-7" xMax="621" yMax="760">
      <component glyphName="a.school" x="0" y="0" flags="0x204"/>
      <component glyphName="breve" x="26" y="0" flags="0x4"/>
    </TTGlyph>
    <TTGlyph name="acircumflex" xMin="9" yMin="-6" xMax="514" yMax="741">
      <component glyphName="a" x="0" y="0" flags="0x204"/>
      <component glyphName="circumflex" x="-13" y="0" flags="0x4"/>
    </TTGlyph>
    <TTGlyph name="acircumflex.school" xMin="30" yMin="-7" xMax="621" yMax="741">
      <component glyphName="a.school" x="0" y="0" flags="0x204"/>
      <component glyphName="circumflex" x="25" y="0" flags="0x4"/>
    </TTGlyph>
    <TTGlyph name="acute" xMin="224" yMin="608" xMax="496" yMax="738">
      <contour>
        <pt x="341" y="738" on="1"/>
        <pt x="496" y="738" on="1"/>
        <pt x="336" y="608" on="1"/>
        <pt x="224" y="608" on="1"/>
      </contour>
    </TTGlyph>
    <TTGlyph name="adieresis" xMin="9" yMin="-6" xMax="514" yMax="747">
      <component glyphName="a" x="0" y="0" flags="0x204"/>
      <component glyphName="dieresis" x="-46" y="0" flags="0x4"/>
    </TTGlyph>
    <TTGlyph name="adieresis.school" xMin="30" yMin="-7" xMax="621" yMax="747">
      <component glyphName="a.school" x="0" y="0" flags="0x204"/>
      <component glyphName="dieresis" x="-9" y="0" flags="0x4"/>
    </TTGlyph>
    <TTGlyph name="ae" xMin="20" yMin="-11" xMax="872" yMax="530">
      <contour>
        <pt x="212" y="-6" on="1"/>
        <pt x="125" y="-6" on="0"/>
        <pt x="20" y="76" on="0"/>
        <pt x="20" y="144" on="1"/>
        <pt x="20" y="222" on="0"/>
        <pt x="133" y="311" on="0"/>
        <pt x="230" y="311" on="1"/>
        <pt x="263" y="311" on="0"/>
        <pt x="329" y="300" on="0"/>
        <pt x="360" y="290" on="1"/>
        <pt x="366" y="317" on="1"/>
        <pt x="376" y="365" on="0"/>
        <pt x="320" y="417" on="0"/>
        <pt x="260" y="417" on="1"/>
        <pt x="232" y="417" on="0"/>
        <pt x="165" y="401" on="0"/>
        <pt x="116" y="383" on="1"/>
        <pt x="83" y="486" on="1"/>
        <pt x="143" y="508" on="0"/>
        <pt x="246" y="530" on="0"/>
        <pt x="294" y="530" on="1"/>
        <pt x="353" y="530" on="0"/>
        <pt x="440" y="494" on="0"/>
        <pt x="464" y="462" on="1"/>
        <pt x="501" y="494" on="0"/>
        <pt x="590" y="529" on="0"/>
        <pt x="636" y="529" on="1"/>
        <pt x="687" y="529" on="0"/>
        <pt x="775" y="491" on="0"/>
        <pt x="837" y="425" on="0"/>
        <pt x="872" y="332" on="0"/>
        <pt x="872" y="278" on="1"/>
        <pt x="872" y="267" on="0"/>
        <pt x="870" y="242" on="0"/>
        <pt x="867" y="215" on="1"/>
        <pt x="487" y="215" on="1"/>
        <pt x="496" y="165" on="0"/>
        <pt x="573" y="103" on="0"/>
        <pt x="628" y="103" on="1"/>
        <pt x="661" y="103" on="0"/>
        <pt x="719" y="123" on="0"/>
        <pt x="741" y="141" on="1"/>
        <pt x="816" y="54" on="1"/>
        <pt x="768" y="20" on="0"/>
        <pt x="674" y="-11" on="0"/>
        <pt x="618" y="-11" on="1"/>
        <pt x="555" y="-11" on="0"/>
        <pt x="449" y="34" on="0"/>
        <pt x="414" y="73" on="1"/>
        <pt x="363" y="32" on="0"/>
        <pt x="267" y="-6" on="0"/>
      </contour>
      <contour>
        <pt x="630" y="415" on="1"/>
        <pt x="584" y="415" on="0"/>
        <pt x="512" y="358" on="0"/>
        <pt x="496" y="312" on="1"/>
        <pt x="746" y="312" on="1"/>
        <pt x="737" y="358" on="0"/>
        <pt x="674" y="415" on="0"/>
      </contour>
      <contour>
        <pt x="146" y="154" on="1"/>
        <pt x="146" y="126" on="0"/>
        <pt x="196" y="91" on="0"/>
        <pt x="238" y="91" on="1"/>
        <pt x="274" y="91" on="0"/>
        <pt x="342" y="115" on="0"/>
        <pt x="373" y="139" on="1"/>
        <pt x="368" y="152" on="0"/>
        <pt x="359" y="183" on="0"/>
        <pt x="358" y="199" on="1"/>
        <pt x="334" y="209" on="0"/>
        <pt x="272" y="220" on="0"/>
        <pt x="243" y="220" on="1"/>
        <pt x="200" y="220" on="0"/>
        <pt x="146" y="183" on="0"/>
      </contour>
    </TTGlyph>
    <TTGlyph name="agrave" xMin="9" yMin="-6" xMax="514" yMax="738">
      <component glyphName="a" x="0" y="0" flags="0x204"/>
      <component glyphName="grave" x="-32" y="0" flags="0x4"/>
    </TTGlyph>
    <TTGlyph name="agrave.school" xMin="30" yMin="-7" xMax="621" yMax="738">
      <component glyphName="a.school" x="0" y="0" flags="0x204"/>
      <component glyphName="grave" x="5" y="0" flags="0x4"/>
    </TTGlyph>
    <TTGlyph name="amacron" xMin="9" yMin="-6" xMax="514" yMax="713">
      <component glyphName="a" x="0" y="0" flags="0x204"/>
      <component glyphName="macron" x="-11" y="0" flags="0x4"/>
    </TTGlyph>
    <TTGlyph name="amacron.school" xMin="30" yMin="-7" xMax="621" yMax="713">
      <component glyphName="a.school" x="0" y="0" flags="0x204"/>
      <component glyphName="macron" x="26" y="0" flags="0x4"/>
    </TTGlyph>
    <TTGlyph name="ampersand" xMin="14" yMin="-15" xMax="658" yMax="709">
      <contour>
        <pt x="619" y="81" on="1"/>
        <pt x="528" y="-15" on="1"/>
        <pt x="509" y="1" on="0"/>
        <pt x="469" y="35" on="0"/>
        <pt x="450" y="54" on="1"/>
        <pt x="404" y="23" on="0"/>
        <pt x="301" y="-10" on="0"/>
        <pt x="246" y="-10" on="1"/>
        <pt x="141" y="-10" on="0"/>
        <pt x="14" y="89" on="0"/>
        <pt x="14" y="172" on="1"/>
        <pt x="14" y="244" on="0"/>
        <pt x="100" y="349" on="0"/>
        <pt x="190" y="390" on="1"/>
        <pt x="174" y="421" on="0"/>
        <pt x="160" y="479" on="0"/>
        <pt x="160" y="509" on="1"/>
        <pt x="160" y="596" on="0"/>
        <pt x="278" y="709" on="0"/>
        <pt x="371" y="709" on="1"/>
        <pt x="447" y="709" on="0"/>
        <pt x="544" y="627" on="0"/>
        <pt x="544" y="564" on="1"/>
        <pt x="544" y="510" on="0"/>
        <pt x="478" y="420" on="0"/>
        <pt x="412" y="388" on="1"/>
        <pt x="356" y="360" on="1"/>
        <pt x="378" y="328" on="0"/>
        <pt x="434" y="259" on="0"/>
        <pt x="465" y="226" on="1"/>
        <pt x="487" y="255" on="0"/>
        <pt x="528" y="329" on="0"/>
        <pt x="547" y="373" on="1"/>
        <pt x="658" y="344" on="1"/>
        <pt x="632" y="283" on="0"/>
        <pt x="574" y="185" on="0"/>
        <pt x="542" y="147" on="1"/>
        <pt x="561" y="129" on="0"/>
        <pt x="600" y="95" on="0"/>
      </contour>
      <contour>
        <pt x="282" y="527" on="1"/>
        <pt x="282" y="507" on="0"/>
        <pt x="294" y="466" on="0"/>
        <pt x="307" y="442" on="1"/>
        <pt x="354" y="464" on="1"/>
        <pt x="387" y="480" on="0"/>
        <pt x="421" y="524" on="0"/>
        <pt x="421" y="549" on="1"/>
        <pt x="421" y="576" on="0"/>
        <pt x="387" y="608" on="0"/>
        <pt x="358" y="608" on="1"/>
        <pt x="324" y="608" on="0"/>
        <pt x="282" y="562" on="0"/>
      </contour>
      <contour>
        <pt x="141" y="190" on="1"/>
        <pt x="141" y="148" on="0"/>
        <pt x="207" y="97" on="0"/>
        <pt x="262" y="97" on="1"/>
        <pt x="292" y="97" on="0"/>
        <pt x="348" y="114" on="0"/>
        <pt x="376" y="131" on="1"/>
        <pt x="338" y="174" on="0"/>
        <pt x="268" y="263" on="0"/>
        <pt x="240" y="307" on="1"/>
        <pt x="189" y="284" on="0"/>
        <pt x="141" y="227" on="0"/>
      </contour>
    </TTGlyph>
    <TTGlyph name="aogonek" xMin="9" yMin="-221" xMax="514" yMax="530">
      <contour>
        <pt x="186" y="-6" on="1"/>
        <pt x="105" y="-6" on="0"/>
        <pt x="9" y="73" on="0"/>
        <pt x="9" y="139" on="1"/>
        <pt x="9" y="218" on="0"/>
        <pt x="127" y="311" on="0"/>
        <pt x="228" y="311" on="1"/>
        <pt x="265" y="311" on="0"/>
        <pt x="338" y="297" on="0"/>
        <pt x="370" y="285" on="1"/>
        <pt x="376" y="311" on="1"/>
        <pt x="387" y="364" on="0"/>
        <pt x="333" y="417" on="0"/>
        <pt x="270" y="417" on="1"/>
        <pt x="242" y="417" on="0"/>
        <pt x="171" y="401" on="0"/>
        <pt x="123" y="383" on="1"/>
        <pt x="90" y="486" on="1"/>
        <pt x="147" y="508" on="0"/>
        <pt x="252" y="530" on="0"/>
        <pt x="299" y="530" on="1"/>
        <pt x="418" y="530" on="0"/>
        <pt x="529" y="414" on="0"/>
        <pt x="508" y="313" on="1"/>
        <pt x="442" y="0" on="1"/>
        <pt x="385" y="-30" on="0"/>
        <pt x="330" y="-87" on="0"/>
        <pt x="330" y="-115" on="1"/>
        <pt x="330" y="-131" on="0"/>
        <pt x="353" y="-150" on="0"/>
        <pt x="372" y="-150" on="1"/>
        <pt x="382" y="-150" on="0"/>
        <pt x="403" y="-144" on="0"/>
        <pt x="412" y="-139" on="1"/>
        <pt x="418" y="-200" on="1"/>
        <pt x="399" y="-210" on="0"/>
        <pt x="356" y="-221" on="0"/>
        <pt x="335" y="-221" on="1"/>
        <pt x="295" y="-221" on="0"/>
        <pt x="247" y="-182" on="0"/>
        <pt x="247" y="-148" on="1"/>
        <pt x="247" y="-108" on="0"/>
        <pt x="306" y="-34" on="0"/>
        <pt x="364" y="0" on="1"/>
        <pt x="310" y="0" on="1"/>
        <pt x="317" y="32" on="1"/>
        <pt x="285" y="13" on="0"/>
        <pt x="221" y="-6" on="0"/>
      </contour>
      <contour>
        <pt x="136" y="151" on="1"/>
        <pt x="136" y="123" on="0"/>
        <pt x="187" y="91" on="0"/>
        <pt x="232" y="91" on="1"/>
        <pt x="260" y="91" on="0"/>
        <pt x="312" y="105" on="0"/>
        <pt x="335" y="120" on="1"/>
        <pt x="352" y="198" on="1"/>
        <pt x="327" y="209" on="0"/>
        <pt x="268" y="221" on="0"/>
        <pt x="238" y="221" on="1"/>
        <pt x="191" y="221" on="0"/>
        <pt x="136" y="183" on="0"/>
      </contour>
    </TTGlyph>
    <TTGlyph name="aogonek.school" xMin="30" yMin="-221" xMax="621" yMax="528">
      <contour>
        <pt x="378" y="0" on="1"/>
        <pt x="384" y="26" on="1"/>
        <pt x="356" y="10" on="0"/>
        <pt x="294" y="-7" on="0"/>
        <pt x="262" y="-7" on="1"/>
        <pt x="213" y="-7" on="0"/>
        <pt x="128" y="30" on="0"/>
        <pt x="66" y="94" on="0"/>
        <pt x="30" y="183" on="0"/>
        <pt x="30" y="234" on="1"/>
        <pt x="30" y="295" on="0"/>
        <pt x="76" y="402" on="0"/>
        <pt x="154" y="482" on="0"/>
        <pt x="260" y="528" on="0"/>
        <pt x="320" y="528" on="1"/>
        <pt x="366" y="528" on="0"/>
        <pt x="447" y="500" on="0"/>
        <pt x="478" y="474" on="1"/>
        <pt x="488" y="521" on="1"/>
        <pt x="621" y="521" on="1"/>
        <pt x="511" y="0" on="1"/>
        <pt x="454" y="-30" on="0"/>
        <pt x="399" y="-87" on="0"/>
        <pt x="399" y="-115" on="1"/>
        <pt x="399" y="-131" on="0"/>
        <pt x="422" y="-150" on="0"/>
        <pt x="441" y="-150" on="1"/>
        <pt x="451" y="-150" on="0"/>
        <pt x="472" y="-144" on="0"/>
        <pt x="481" y="-139" on="1"/>
        <pt x="487" y="-200" on="1"/>
        <pt x="468" y="-210" on="0"/>
        <pt x="425" y="-221" on="0"/>
        <pt x="404" y="-221" on="1"/>
        <pt x="364" y="-221" on="0"/>
        <pt x="316" y="-182" on="0"/>
        <pt x="316" y="-148" on="1"/>
        <pt x="316" y="-108" on="0"/>
        <pt x="375" y="-34" on="0"/>
        <pt x="433" y="0" on="1"/>
      </contour>
      <contour>
        <pt x="162" y="246" on="1"/>
        <pt x="162" y="187" on="0"/>
        <pt x="240" y="109" on="0"/>
        <pt x="298" y="109" on="1"/>
        <pt x="329" y="109" on="0"/>
        <pt x="385" y="130" on="0"/>
        <pt x="408" y="149" on="1"/>
        <pt x="453" y="355" on="1"/>
        <pt x="432" y="380" on="0"/>
        <pt x="364" y="411" on="0"/>
        <pt x="325" y="411" on="1"/>
        <pt x="257" y="411" on="0"/>
        <pt x="162" y="315" on="0"/>
      </contour>
    </TTGlyph>
    <TTGlyph name="aring" xMin="9" yMin="-6" xMax="514" yMax="827">
      <component glyphName="a" x="0" y="0" flags="0x204"/>
      <component glyphName="ring" x="-11" y="0" flags="0x4"/>
    </TTGlyph>
    <TTGlyph name="aring.school" xMin="30" yMin="-7" xMax="621" yMax="827">
      <component glyphName="a.school" x="0" y="0" flags="0x204"/>
      <component glyphName="ring" x="26" y="0" flags="0x4"/>
    </TTGlyph>
    <TTGlyph name="asciicircum" xMin="52" yMin="350" xMax="528" yMax="700">
      <contour>
        <pt x="52" y="350" on="1"/>
        <pt x="306" y="700" on="1"/>
        <pt x="421" y="700" on="1"/>
        <pt x="528" y="350" on="1"/>
        <pt x="419" y="350" on="1"/>
        <pt x="345" y="597" on="1"/>
        <pt x="166" y="350" on="1"/>
      </contour>
    </TTGlyph>
    <TTGlyph name="asciitilde" xMin="42" yMin="270" xMax="606" yMax="472">
      <contour>
        <pt x="307" y="439" on="1"/>
        <pt x="383" y="396" on="1"/>
        <pt x="405" y="383" on="0"/>
        <pt x="432" y="374" on="0"/>
        <pt x="443" y="374" on="1"/>
        <pt x="467" y="374" on="0"/>
        <pt x="503" y="409" on="0"/>
        <pt x="516" y="446" on="1"/>
        <pt x="606" y="425" on="1"/>
        <pt x="581" y="351" on="0"/>
        <pt x="497" y="270" on="0"/>
        <pt x="444" y="270" on="1"/>
        <pt x="422" y="270" on="0"/>
        <pt x="371" y="287" on="0"/>
        <pt x="341" y="304" on="1"/>
        <pt x="265" y="346" on="1"/>
        <pt x="243" y="359" on="0"/>
        <pt x="215" y="369" on="0"/>
        <pt x="204" y="369" on="1"/>
        <pt x="181" y="369" on="0"/>
        <pt x="144" y="334" on="0"/>
        <pt x="131" y="297" on="1"/>
        <pt x="42" y="317" on="1"/>
        <pt x="67" y="392" on="0"/>
        <pt x="151" y="472" on="0"/>
        <pt x="203" y="472" on="1"/>
        <pt x="225" y="472" on="0"/>
        <pt x="278" y="455" on="0"/>
      </contour>
    </TTGlyph>
    <TTGlyph name="asterisk" xMin="83" yMin="317" xMax="493" yMax="700">
      <contour>
        <pt x="398" y="359" on="1"/>
        <pt x="312" y="430" on="1"/>
        <pt x="290" y="317" on="1"/>
        <pt x="202" y="317" on="1"/>
        <pt x="228" y="433" on="1"/>
        <pt x="115" y="376" on="1"/>
        <pt x="83" y="456" on="1"/>
        <pt x="207" y="514" on="1"/>
        <pt x="110" y="589" on="1"/>
        <pt x="171" y="657" on="1"/>
        <pt x="260" y="585" on="1"/>
        <pt x="283" y="700" on="1"/>
        <pt x="370" y="700" on="1"/>
        <pt x="343" y="581" on="1"/>
        <pt x="459" y="640" on="1"/>
        <pt x="493" y="563" on="1"/>
        <pt x="366" y="502" on="1"/>
        <pt x="461" y="429" on="1"/>
      </contour>
    </TTGlyph>
    <TTGlyph name="at" xMin="31" yMin="-144" xMax="737" yMax="581">
      <contour>
        <pt x="342" y="48" on="1"/>
        <pt x="281" y="48" on="0"/>
        <pt x="196" y="138" on="0"/>
        <pt x="196" y="203" on="1"/>
        <pt x="196" y="241" on="0"/>
        <pt x="224" y="308" on="0"/>
        <pt x="271" y="357" on="0"/>
        <pt x="336" y="386" on="0"/>
        <pt x="373" y="386" on="1"/>
        <pt x="399" y="386" on="0"/>
        <pt x="448" y="368" on="0"/>
        <pt x="467" y="352" on="1"/>
        <pt x="471" y="372" on="1"/>
        <pt x="560" y="372" on="1"/>
        <pt x="518" y="169" on="1"/>
        <pt x="512" y="142" on="0"/>
        <pt x="535" y="113" on="0"/>
        <pt x="561" y="113" on="1"/>
        <pt x="608" y="113" on="0"/>
        <pt x="669" y="202" on="0"/>
        <pt x="669" y="271" on="1"/>
        <pt x="669" y="325" on="0"/>
        <pt x="627" y="417" on="0"/>
        <pt x="555" y="485" on="0"/>
        <pt x="455" y="523" on="0"/>
        <pt x="397" y="523" on="1"/>
        <pt x="334" y="523" on="0"/>
        <pt x="224" y="475" on="0"/>
        <pt x="144" y="392" on="0"/>
        <pt x="98" y="278" on="0"/>
        <pt x="98" y="213" on="1"/>
        <pt x="98" y="148" on="0"/>
        <pt x="143" y="40" on="0"/>
        <pt x="222" y="-38" on="0"/>
        <pt x="334" y="-81" on="0"/>
        <pt x="400" y="-81" on="1"/>
        <pt x="446" y="-81" on="0"/>
        <pt x="528" y="-63" on="0"/>
        <pt x="565" y="-44" on="1"/>
        <pt x="590" y="-100" on="1"/>
        <pt x="544" y="-122" on="0"/>
        <pt x="449" y="-144" on="0"/>
        <pt x="400" y="-144" on="1"/>
        <pt x="321" y="-144" on="0"/>
        <pt x="185" y="-91" on="0"/>
        <pt x="87" y="2" on="0"/>
        <pt x="31" y="132" on="0"/>
        <pt x="31" y="207" on="1"/>
        <pt x="31" y="287" on="0"/>
        <pt x="87" y="424" on="0"/>
        <pt x="185" y="524" on="0"/>
        <pt x="320" y="581" on="0"/>
        <pt x="399" y="581" on="1"/>
        <pt x="470" y="581" on="0"/>
        <pt x="594" y="534" on="0"/>
        <pt x="685" y="452" on="0"/>
        <pt x="737" y="340" on="0"/>
        <pt x="737" y="276" on="1"/>
        <pt x="737" y="226" on="0"/>
        <pt x="709" y="142" on="0"/>
        <pt x="659" y="82" on="0"/>
        <pt x="589" y="48" on="0"/>
        <pt x="548" y="48" on="1"/>
        <pt x="512" y="48" on="0"/>
        <pt x="461" y="69" on="0"/>
        <pt x="446" y="89" on="1"/>
        <pt x="424" y="70" on="0"/>
        <pt x="370" y="48" on="0"/>
      </contour>
      <contour>
        <pt x="283" y="210" on="1"/>
        <pt x="283" y="171" on="0"/>
        <pt x="328" y="122" on="0"/>
        <pt x="363" y="122" on="1"/>
        <pt x="381" y="122" on="0"/>
        <pt x="414" y="134" on="0"/>
        <pt x="429" y="147" on="1"/>
        <pt x="429" y="154" on="0"/>
        <pt x="431" y="171" on="0"/>
        <pt x="432" y="181" on="1"/>
        <pt x="451" y="273" on="1"/>
        <pt x="438" y="291" on="0"/>
        <pt x="400" y="310" on="0"/>
        <pt x="376" y="310" on="1"/>
        <pt x="338" y="310" on="0"/>
        <pt x="283" y="251" on="0"/>
      </contour>
    </TTGlyph>
    <TTGlyph name="at.cap" xMin="59" yMin="-13" xMax="765" yMax="712">
      <component glyphName="at" x="28" y="131" flags="0x4"/>
    </TTGlyph>
    <TTGlyph name="atilde" xMin="9" yMin="-6" xMax="529" yMax="742">
      <component glyphName="a" x="0" y="0" flags="0x204"/>
      <component glyphName="tilde" x="-8" y="0" flags="0x4"/>
    </TTGlyph>
    <TTGlyph name="atilde.school" xMin="30" yMin="-7" xMax="621" yMax="742">
      <component glyphName="a.school" x="0" y="0" flags="0x204"/>
      <component glyphName="tilde" x="30" y="0" flags="0x4"/>
    </TTGlyph>
    <TTGlyph name="b" xMin="-2" yMin="-7" xMax="589" yMax="730">
      <contour>
        <pt x="589" y="287" on="1"/>
        <pt x="589" y="226" on="0"/>
        <pt x="543" y="119" on="0"/>
        <pt x="465" y="39" on="0"/>
        <pt x="359" y="-7" on="0"/>
        <pt x="299" y="-7" on="1"/>
        <pt x="253" y="-7" on="0"/>
        <pt x="172" y="23" on="0"/>
        <pt x="141" y="51" on="1"/>
        <pt x="130" y="0" on="1"/>
        <pt x="-2" y="0" on="1"/>
        <pt x="147" y="700" on="1"/>
        <pt x="287" y="730" on="1"/>
        <pt x="237" y="496" on="1"/>
        <pt x="265" y="512" on="0"/>
        <pt x="326" y="528" on="0"/>
        <pt x="357" y="528" on="1"/>
        <pt x="406" y="528" on="0"/>
        <pt x="492" y="491" on="0"/>
        <pt x="553" y="427" on="0"/>
        <pt x="589" y="338" on="0"/>
      </contour>
      <contour>
        <pt x="322" y="412" on="1"/>
        <pt x="291" y="412" on="0"/>
        <pt x="234" y="391" on="0"/>
        <pt x="211" y="372" on="1"/>
        <pt x="167" y="169" on="1"/>
        <pt x="187" y="142" on="0"/>
        <pt x="255" y="110" on="0"/>
        <pt x="294" y="110" on="1"/>
        <pt x="363" y="110" on="0"/>
        <pt x="458" y="206" on="0"/>
        <pt x="458" y="275" on="1"/>
        <pt x="458" y="333" on="0"/>
        <pt x="381" y="412" on="0"/>
      </contour>
    </TTGlyph>
    <TTGlyph name="backslash" xMin="108" yMin="-209" xMax="462" yMax="700">
      <contour>
        <pt x="462" y="-209" on="1"/>
        <pt x="329" y="-209" on="1"/>
        <pt x="108" y="700" on="1"/>
        <pt x="240" y="700" on="1"/>
      </contour>
    </TTGlyph>
    <TTGlyph name="bar" xMin="-4" yMin="-212" xMax="315" yMax="700">
      <contour>
        <pt x="-4" y="-212" on="1"/>
        <pt x="190" y="700" on="1"/>
        <pt x="315" y="700" on="1"/>
        <pt x="121" y="-212" on="1"/>
      </contour>
    </TTGlyph>
    <TTGlyph name="braceleft" xMin="0" yMin="-219" xMax="472" yMax="710">
      <contour>
        <pt x="246" y="76" on="1"/>
        <pt x="190" y="-14" on="1"/>
        <pt x="159" y="-63" on="0"/>
        <pt x="194" y="-116" on="0"/>
        <pt x="232" y="-116" on="1"/>
        <pt x="246" y="-116" on="0"/>
        <pt x="272" y="-112" on="0"/>
        <pt x="284" y="-108" on="1"/>
        <pt x="283" y="-207" on="1"/>
        <pt x="259" y="-214" on="0"/>
        <pt x="217" y="-219" on="0"/>
        <pt x="197" y="-219" on="1"/>
        <pt x="141" y="-219" on="0"/>
        <pt x="68" y="-182" on="0"/>
        <pt x="36" y="-122" on="0"/>
        <pt x="46" y="-43" on="0"/>
        <pt x="73" y="-2" on="1"/>
        <pt x="126" y="80" on="1"/>
        <pt x="154" y="124" on="0"/>
        <pt x="131" y="195" on="0"/>
        <pt x="82" y="195" on="1"/>
        <pt x="0" y="195" on="1"/>
        <pt x="22" y="297" on="1"/>
        <pt x="104" y="297" on="1"/>
        <pt x="152" y="297" on="0"/>
        <pt x="203" y="360" on="0"/>
        <pt x="195" y="408" on="1"/>
        <pt x="178" y="503" on="1"/>
        <pt x="171" y="547" on="0"/>
        <pt x="192" y="623" on="0"/>
        <pt x="242" y="678" on="0"/>
        <pt x="317" y="710" on="0"/>
        <pt x="363" y="710" on="1"/>
        <pt x="391" y="710" on="0"/>
        <pt x="445" y="701" on="0"/>
        <pt x="472" y="688" on="1"/>
        <pt x="432" y="591" on="1"/>
        <pt x="417" y="598" on="0"/>
        <pt x="383" y="606" on="0"/>
        <pt x="370" y="606" on="1"/>
        <pt x="333" y="606" on="0"/>
        <pt x="286" y="552" on="0"/>
        <pt x="293" y="501" on="1"/>
        <pt x="310" y="397" on="1"/>
        <pt x="318" y="336" on="0"/>
        <pt x="239" y="251" on="0"/>
        <pt x="179" y="241" on="1"/>
        <pt x="236" y="225" on="0"/>
        <pt x="283" y="136" on="0"/>
      </contour>
    </TTGlyph>
    <TTGlyph name="braceright" xMin="-59" yMin="-222" xMax="413" yMax="707">
      <contour>
        <pt x="167" y="412" on="1"/>
        <pt x="223" y="502" on="1"/>
        <pt x="254" y="551" on="0"/>
        <pt x="219" y="604" on="0"/>
        <pt x="181" y="604" on="1"/>
        <pt x="167" y="604" on="0"/>
        <pt x="141" y="600" on="0"/>
        <pt x="129" y="596" on="1"/>
        <pt x="130" y="695" on="1"/>
        <pt x="154" y="702" on="0"/>
        <pt x="196" y="707" on="0"/>
        <pt x="216" y="707" on="1"/>
        <pt x="272" y="707" on="0"/>
        <pt x="345" y="670" on="0"/>
        <pt x="377" y="610" on="0"/>
        <pt x="367" y="531" on="0"/>
        <pt x="340" y="490" on="1"/>
        <pt x="287" y="408" on="1"/>
        <pt x="259" y="364" on="0"/>
        <pt x="282" y="293" on="0"/>
        <pt x="331" y="293" on="1"/>
        <pt x="413" y="293" on="1"/>
        <pt x="391" y="191" on="1"/>
        <pt x="309" y="191" on="1"/>
        <pt x="261" y="191" on="0"/>
        <pt x="210" y="128" on="0"/>
        <pt x="218" y="80" on="1"/>
        <pt x="235" y="-15" on="1"/>
        <pt x="242" y="-59" on="0"/>
        <pt x="221" y="-135" on="0"/>
        <pt x="171" y="-190" on="0"/>
        <pt x="96" y="-222" on="0"/>
        <pt x="50" y="-222" on="1"/>
        <pt x="22" y="-222" on="0"/>
        <pt x="-32" y="-213" on="0"/>
        <pt x="-59" y="-200" on="1"/>
        <pt x="-19" y="-103" on="1"/>
        <pt x="-4" y="-110" on="0"/>
        <pt x="30" y="-118" on="0"/>
        <pt x="43" y="-118" on="1"/>
        <pt x="80" y="-118" on="0"/>
        <pt x="127" y="-64" on="0"/>
        <pt x="120" y="-13" on="1"/>
        <pt x="103" y="91" on="1"/>
        <pt x="95" y="152" on="0"/>
        <pt x="174" y="237" on="0"/>
        <pt x="234" y="247" on="1"/>
        <pt x="177" y="263" on="0"/>
        <pt x="130" y="352" on="0"/>
      </contour>
    </TTGlyph>
    <TTGlyph name="bracketleft" xMin="-45" yMin="-213" xMax="442" yMax="700">
      <contour>
        <pt x="248" y="-213" on="1"/>
        <pt x="-45" y="-213" on="1"/>
        <pt x="149" y="700" on="1"/>
        <pt x="442" y="700" on="1"/>
        <pt x="419" y="593" on="1"/>
        <pt x="253" y="593" on="1"/>
        <pt x="105" y="-105" on="1"/>
        <pt x="271" y="-105" on="1"/>
      </contour>
    </TTGlyph>
    <TTGlyph name="bracketright" xMin="-63" yMin="-213" xMax="424" yMax="700">
      <contour>
        <pt x="131" y="700" on="1"/>
        <pt x="424" y="700" on="1"/>
        <pt x="230" y="-213" on="1"/>
        <pt x="-63" y="-213" on="1"/>
        <pt x="-40" y="-106" on="1"/>
        <pt x="126" y="-106" on="1"/>
        <pt x="274" y="592" on="1"/>
        <pt x="108" y="592" on="1"/>
      </contour>
    </TTGlyph>
    <TTGlyph name="breve" xMin="180" yMin="600" xMax="521" yMax="760">
      <contour>
        <pt x="337" y="677" on="1"/>
        <pt x="368" y="677" on="0"/>
        <pt x="419" y="716" on="0"/>
        <pt x="438" y="753" on="1"/>
        <pt x="521" y="727" on="1"/>
        <pt x="493" y="666" on="0"/>
        <pt x="396" y="600" on="0"/>
        <pt x="334" y="600" on="1"/>
        <pt x="265" y="600" on="0"/>
        <pt x="182" y="677" on="0"/>
        <pt x="180" y="743" on="1"/>
        <pt x="261" y="760" on="1"/>
        <pt x="264" y="719" on="0"/>
        <pt x="302" y="677" on="0"/>
      </contour>
    </TTGlyph>
    <TTGlyph name="bullet" xMin="74" yMin="217" xMax="305" yMax="447">
      <contour>
        <pt x="176" y="217" on="1"/>
        <pt x="133" y="217" on="0"/>
        <pt x="74" y="275" on="0"/>
        <pt x="74" y="317" on="1"/>
        <pt x="74" y="370" on="0"/>
        <pt x="151" y="447" on="0"/>
        <pt x="204" y="447" on="1"/>
        <pt x="247" y="447" on="0"/>
        <pt x="305" y="389" on="0"/>
        <pt x="305" y="346" on="1"/>
        <pt x="305" y="295" on="0"/>
        <pt x="227" y="217" on="0"/>
      </contour>
    </TTGlyph>
    <TTGlyph name="c" xMin="27" yMin="-11" xMax="529" yMax="530">
      <contour>
        <pt x="289" y="108" on="1"/>
        <pt x="321" y="108" on="0"/>
        <pt x="380" y="134" on="0"/>
        <pt x="409" y="160" on="1"/>
        <pt x="478" y="70" on="1"/>
        <pt x="434" y="30" on="0"/>
        <pt x="330" y="-11" on="0"/>
        <pt x="274" y="-11" on="1"/>
        <pt x="221" y="-11" on="0"/>
        <pt x="131" y="26" on="0"/>
        <pt x="65" y="91" on="0"/>
        <pt x="27" y="181" on="0"/>
        <pt x="27" y="234" on="1"/>
        <pt x="27" y="295" on="0"/>
        <pt x="72" y="404" on="0"/>
        <pt x="150" y="483" on="0"/>
        <pt x="256" y="530" on="0"/>
        <pt x="315" y="530" on="1"/>
        <pt x="380" y="530" on="0"/>
        <pt x="495" y="474" on="0"/>
        <pt x="529" y="425" on="1"/>
        <pt x="436" y="341" on="1"/>
        <pt x="413" y="376" on="0"/>
        <pt x="351" y="410" on="0"/>
        <pt x="313" y="410" on="1"/>
        <pt x="282" y="410" on="0"/>
        <pt x="226" y="383" on="0"/>
        <pt x="185" y="338" on="0"/>
        <pt x="161" y="276" on="0"/>
        <pt x="161" y="241" on="1"/>
        <pt x="161" y="183" on="0"/>
        <pt x="233" y="108" on="0"/>
      </contour>
    </TTGlyph>
    <TTGlyph name="cacute" xMin="27" yMin="-11" xMax="543" yMax="738">
      <component glyphName="c" x="0" y="0" flags="0x204"/>
      <component glyphName="acute" x="47" y="0" flags="0x4"/>
    </TTGlyph>
    <TTGlyph name="caron" xMin="174" yMin="606" xMax="537" yMax="741">
      <contour>
        <pt x="280" y="741" on="1"/>
        <pt x="337" y="668" on="1"/>
        <pt x="424" y="741" on="1"/>
        <pt x="537" y="741" on="1"/>
        <pt x="396" y="606" on="1"/>
        <pt x="258" y="606" on="1"/>
        <pt x="174" y="741" on="1"/>
      </contour>
    </TTGlyph>
    <TTGlyph name="caronSlovak" xMin="137" yMin="478" xMax="331" yMax="720">
      <contour>
        <pt x="197" y="720" on="1"/>
        <pt x="331" y="720" on="1"/>
        <pt x="234" y="478" on="1"/>
        <pt x="137" y="478" on="1"/>
      </contour>
    </TTGlyph>
    <TTGlyph name="ccaron" xMin="27" yMin="-11" xMax="550" yMax="741">
      <component glyphName="c" x="0" y="0" flags="0x204"/>
      <component glyphName="caron" x="13" y="0" flags="0x4"/>
    </TTGlyph>
    <TTGlyph name="ccedilla" xMin="27" yMin="-233" xMax="529" yMax="530">
      <contour>
        <pt x="289" y="108" on="1"/>
        <pt x="321" y="108" on="0"/>
        <pt x="380" y="134" on="0"/>
        <pt x="409" y="160" on="1"/>
        <pt x="478" y="70" on="1"/>
        <pt x="439" y="35" on="0"/>
        <pt x="350" y="-6" on="0"/>
        <pt x="301" y="-10" on="1"/>
        <pt x="283" y="-45" on="1"/>
        <pt x="320" y="-51" on="0"/>
        <pt x="359" y="-93" on="0"/>
        <pt x="359" y="-125" on="1"/>
        <pt x="359" y="-170" on="0"/>
        <pt x="279" y="-233" on="0"/>
        <pt x="222" y="-233" on="1"/>
        <pt x="182" y="-233" on="0"/>
        <pt x="121" y="-208" on="0"/>
        <pt x="98" y="-182" on="1"/>
        <pt x="148" y="-136" on="1"/>
        <pt x="164" y="-152" on="0"/>
        <pt x="203" y="-169" on="0"/>
        <pt x="225" y="-169" on="1"/>
        <pt x="250" y="-169" on="0"/>
        <pt x="281" y="-147" on="0"/>
        <pt x="281" y="-129" on="1"/>
        <pt x="281" y="-113" on="0"/>
        <pt x="254" y="-93" on="0"/>
        <pt x="232" y="-93" on="1"/>
        <pt x="193" y="-93" on="1"/>
        <pt x="236" y="-8" on="1"/>
        <pt x="145" y="5" on="0"/>
        <pt x="27" y="138" on="0"/>
        <pt x="27" y="234" on="1"/>
        <pt x="27" y="295" on="0"/>
        <pt x="72" y="404" on="0"/>
        <pt x="150" y="483" on="0"/>
        <pt x="256" y="530" on="0"/>
        <pt x="315" y="530" on="1"/>
        <pt x="380" y="530" on="0"/>
        <pt x="495" y="474" on="0"/>
        <pt x="529" y="425" on="1"/>
        <pt x="436" y="341" on="1"/>
        <pt x="413" y="376" on="0"/>
        <pt x="351" y="410" on="0"/>
        <pt x="313" y="410" on="1"/>
        <pt x="282" y="410" on="0"/>
        <pt x="226" y="383" on="0"/>
        <pt x="185" y="338" on="0"/>
        <pt x="161" y="276" on="0"/>
        <pt x="161" y="241" on="1"/>
        <pt x="161" y="183" on="0"/>
        <pt x="233" y="108" on="0"/>
      </contour>
    </TTGlyph>
    <TTGlyph name="ccircumflex" xMin="27" yMin="-11" xMax="529" yMax="741">
      <component glyphName="c" x="0" y="0" flags="0x204"/>
      <component glyphName="circumflex" x="12" y="0" flags="0x4"/>
    </TTGlyph>
    <TTGlyph name="cdotaccent" xMin="27" yMin="-11" xMax="529" yMax="747">
      <component glyphName="c" x="0" y="0" flags="0x204"/>
      <component glyphName="dotaccent" x="124" y="0" flags="0x4"/>
    </TTGlyph>
    <TTGlyph name="cedilla" xMin="52" yMin="-235" xMax="313" yMax="0">
      <contour>
        <pt x="313" y="-127" on="1"/>
        <pt x="313" y="-172" on="0"/>
        <pt x="233" y="-235" on="0"/>
        <pt x="176" y="-235" on="1"/>
        <pt x="136" y="-235" on="0"/>
        <pt x="75" y="-210" on="0"/>
        <pt x="52" y="-184" on="1"/>
        <pt x="102" y="-138" on="1"/>
        <pt x="118" y="-154" on="0"/>
        <pt x="157" y="-171" on="0"/>
        <pt x="179" y="-171" on="1"/>
        <pt x="204" y="-171" on="0"/>
        <pt x="235" y="-149" on="0"/>
        <pt x="235" y="-131" on="1"/>
        <pt x="235" y="-115" on="0"/>
        <pt x="208" y="-95" on="0"/>
        <pt x="186" y="-95" on="1"/>
        <pt x="147" y="-95" on="1"/>
        <pt x="195" y="0" on="1"/>
        <pt x="261" y="0" on="1"/>
        <pt x="237" y="-47" on="1"/>
        <pt x="274" y="-53" on="0"/>
        <pt x="313" y="-95" on="0"/>
      </contour>
    </TTGlyph>
    <TTGlyph name="cent" xMin="27" yMin="-110" xMax="529" yMax="623">
      <contour>
        <pt x="189" y="-110" on="1"/>
        <pt x="211" y="-4" on="1"/>
        <pt x="130" y="15" on="0"/>
        <pt x="27" y="145" on="0"/>
        <pt x="27" y="234" on="1"/>
        <pt x="27" y="295" on="0"/>
        <pt x="72" y="404" on="0"/>
        <pt x="150" y="483" on="0"/>
        <pt x="256" y="530" on="0"/>
        <pt x="315" y="530" on="1"/>
        <pt x="324" y="530" on="1"/>
        <pt x="344" y="623" on="1"/>
        <pt x="405" y="623" on="1"/>
        <pt x="384" y="522" on="1"/>
        <pt x="428" y="511" on="0"/>
        <pt x="504" y="460" on="0"/>
        <pt x="529" y="425" on="1"/>
        <pt x="436" y="341" on="1"/>
        <pt x="420" y="365" on="0"/>
        <pt x="381" y="396" on="0"/>
        <pt x="359" y="403" on="1"/>
        <pt x="296" y="108" on="1"/>
        <pt x="326" y="109" on="0"/>
        <pt x="381" y="135" on="0"/>
        <pt x="409" y="160" on="1"/>
        <pt x="478" y="70" on="1"/>
        <pt x="434" y="30" on="0"/>
        <pt x="330" y="-11" on="0"/>
        <pt x="274" y="-11" on="1"/>
        <pt x="271" y="-11" on="1"/>
        <pt x="250" y="-110" on="1"/>
      </contour>
      <contour>
        <pt x="161" y="241" on="1"/>
        <pt x="161" y="198" on="0"/>
        <pt x="203" y="132" on="0"/>
        <pt x="237" y="118" on="1"/>
        <pt x="299" y="409" on="1"/>
        <pt x="242" y="403" on="0"/>
        <pt x="161" y="307" on="0"/>
      </contour>
    </TTGlyph>
    <TTGlyph name="circumflex" xMin="146" yMin="605" xMax="509" yMax="741">
      <contour>
        <pt x="403" y="605" on="1"/>
        <pt x="347" y="679" on="1"/>
        <pt x="259" y="605" on="1"/>
        <pt x="146" y="605" on="1"/>
        <pt x="288" y="741" on="1"/>
        <pt x="425" y="741" on="1"/>
        <pt x="509" y="605" on="1"/>
      </contour>
    </TTGlyph>
    <TTGlyph name="colon" xMin="-3" yMin="-10" xMax="237" yMax="530">
      <component glyphName="period" x="0" y="0" flags="0x4"/>
      <component glyphName="period" x="80" y="378" flags="0x4"/>
    </TTGlyph>
    <TTGlyph name="comma" xMin="-90" yMin="-151" xMax="173" yMax="112">
      <contour>
        <pt x="34" y="112" on="1"/>
        <pt x="173" y="112" on="1"/>
        <pt x="12" y="-151" on="1"/>
        <pt x="-90" y="-151" on="1"/>
      </contour>
    </TTGlyph>
    <TTGlyph name="commaaccent" xMin="-99" yMin="-286" xMax="122" yMax="-81">
      <contour>
        <pt x="-5" y="-81" on="1"/>
        <pt x="122" y="-81" on="1"/>
        <pt x="-1" y="-286" on="1"/>
        <pt x="-99" y="-286" on="1"/>
      </contour>
    </TTGlyph>
    <TTGlyph name="copyright" xMin="52" yMin="-11" xMax="761" yMax="710">
      <contour>
        <pt x="52" y="307" on="1"/>
        <pt x="52" y="388" on="0"/>
        <pt x="115" y="535" on="0"/>
        <pt x="221" y="645" on="0"/>
        <pt x="364" y="710" on="0"/>
        <pt x="443" y="710" on="1"/>
        <pt x="511" y="710" on="0"/>
        <pt x="628" y="662" on="0"/>
        <pt x="713" y="577" on="0"/>
        <pt x="761" y="460" on="0"/>
        <pt x="761" y="392" on="1"/>
        <pt x="761" y="311" on="0"/>
        <pt x="698" y="164" on="0"/>
        <pt x="592" y="54" on="0"/>
        <pt x="449" y="-11" on="0"/>
        <pt x="370" y="-11" on="1"/>
        <pt x="302" y="-11" on="0"/>
        <pt x="185" y="37" on="0"/>
        <pt x="100" y="122" on="0"/>
        <pt x="52" y="239" on="0"/>
      </contour>
      <contour>
        <pt x="696" y="385" on="1"/>
        <pt x="696" y="442" on="0"/>
        <pt x="657" y="539" on="0"/>
        <pt x="588" y="609" on="0"/>
        <pt x="493" y="649" on="0"/>
        <pt x="437" y="649" on="1"/>
        <pt x="373" y="649" on="0"/>
        <pt x="257" y="594" on="0"/>
        <pt x="169" y="503" on="0"/>
        <pt x="117" y="381" on="0"/>
        <pt x="117" y="314" on="1"/>
        <pt x="117" y="257" on="0"/>
        <pt x="156" y="160" on="0"/>
        <pt x="224" y="89" on="0"/>
        <pt x="319" y="49" on="0"/>
        <pt x="375" y="49" on="1"/>
        <pt x="439" y="49" on="0"/>
        <pt x="556" y="104" on="0"/>
        <pt x="644" y="196" on="0"/>
        <pt x="696" y="318" on="0"/>
      </contour>
      <contour>
        <pt x="224" y="324" on="1"/>
        <pt x="224" y="367" on="0"/>
        <pt x="259" y="445" on="0"/>
        <pt x="318" y="504" on="0"/>
        <pt x="395" y="540" on="0"/>
        <pt x="438" y="540" on="1"/>
        <pt x="483" y="540" on="0"/>
        <pt x="564" y="497" on="0"/>
        <pt x="586" y="462" on="1"/>
        <pt x="516" y="405" on="1"/>
        <pt x="500" y="430" on="0"/>
        <pt x="457" y="455" on="0"/>
        <pt x="431" y="455" on="1"/>
        <pt x="386" y="455" on="0"/>
        <pt x="320" y="382" on="0"/>
        <pt x="320" y="333" on="1"/>
        <pt x="320" y="296" on="0"/>
        <pt x="368" y="246" on="0"/>
        <pt x="405" y="246" on="1"/>
        <pt x="427" y="246" on="0"/>
        <pt x="467" y="263" on="0"/>
        <pt x="489" y="281" on="1"/>
        <pt x="531" y="216" on="1"/>
        <pt x="503" y="191" on="0"/>
        <pt x="428" y="163" on="0"/>
        <pt x="389" y="163" on="1"/>
        <pt x="318" y="163" on="0"/>
        <pt x="224" y="255" on="0"/>
      </contour>
    </TTGlyph>
    <TTGlyph name="cordinal" xMin="81" yMin="302" xMax="459" yMax="710">
      <contour>
        <pt x="279" y="396" on="1"/>
        <pt x="304" y="396" on="0"/>
        <pt x="347" y="416" on="0"/>
        <pt x="367" y="435" on="1"/>
        <pt x="422" y="364" on="1"/>
        <pt x="389" y="334" on="0"/>
        <pt x="310" y="302" on="0"/>
        <pt x="268" y="302" on="1"/>
        <pt x="187" y="302" on="0"/>
        <pt x="81" y="408" on="0"/>
        <pt x="81" y="487" on="1"/>
        <pt x="81" y="533" on="0"/>
        <pt x="115" y="615" on="0"/>
        <pt x="174" y="675" on="0"/>
        <pt x="253" y="710" on="0"/>
        <pt x="298" y="710" on="1"/>
        <pt x="347" y="710" on="0"/>
        <pt x="434" y="667" on="0"/>
        <pt x="459" y="629" on="1"/>
        <pt x="387" y="564" on="1"/>
        <pt x="369" y="590" on="0"/>
        <pt x="323" y="616" on="0"/>
        <pt x="295" y="616" on="1"/>
        <pt x="251" y="616" on="0"/>
        <pt x="186" y="543" on="0"/>
        <pt x="186" y="493" on="1"/>
        <pt x="186" y="451" on="0"/>
        <pt x="238" y="396" on="0"/>
      </contour>
    </TTGlyph>
    <TTGlyph name="d" xMin="30" yMin="-7" xMax="666" yMax="730">
      <contour>
        <pt x="378" y="0" on="1"/>
        <pt x="384" y="26" on="1"/>
        <pt x="356" y="10" on="0"/>
        <pt x="294" y="-7" on="0"/>
        <pt x="262" y="-7" on="1"/>
        <pt x="213" y="-7" on="0"/>
        <pt x="128" y="30" on="0"/>
        <pt x="66" y="94" on="0"/>
        <pt x="30" y="183" on="0"/>
        <pt x="30" y="234" on="1"/>
        <pt x="30" y="295" on="0"/>
        <pt x="76" y="402" on="0"/>
        <pt x="154" y="482" on="0"/>
        <pt x="260" y="528" on="0"/>
        <pt x="320" y="528" on="1"/>
        <pt x="366" y="528" on="0"/>
        <pt x="446" y="500" on="0"/>
        <pt x="477" y="474" on="1"/>
        <pt x="525" y="700" on="1"/>
        <pt x="666" y="730" on="1"/>
        <pt x="511" y="0" on="1"/>
      </contour>
      <contour>
        <pt x="162" y="246" on="1"/>
        <pt x="162" y="187" on="0"/>
        <pt x="240" y="109" on="0"/>
        <pt x="298" y="109" on="1"/>
        <pt x="329" y="109" on="0"/>
        <pt x="385" y="130" on="0"/>
        <pt x="408" y="149" on="1"/>
        <pt x="452" y="356" on="1"/>
        <pt x="431" y="381" on="0"/>
        <pt x="364" y="411" on="0"/>
        <pt x="325" y="411" on="1"/>
        <pt x="257" y="411" on="0"/>
        <pt x="162" y="315" on="0"/>
      </contour>
    </TTGlyph>
    <TTGlyph name="dagger" xMin="81" yMin="0" xMax="449" yMax="700">
      <contour>
        <pt x="112" y="0" on="1"/>
        <pt x="199" y="413" on="1"/>
        <pt x="81" y="413" on="1"/>
        <pt x="103" y="519" on="1"/>
        <pt x="222" y="519" on="1"/>
        <pt x="260" y="700" on="1"/>
        <pt x="369" y="700" on="1"/>
        <pt x="330" y="519" on="1"/>
        <pt x="449" y="519" on="1"/>
        <pt x="426" y="413" on="1"/>
        <pt x="308" y="413" on="1"/>
        <pt x="220" y="0" on="1"/>
      </contour>
    </TTGlyph>
    <TTGlyph name="daggerdbl" xMin="31" yMin="0" xMax="449" yMax="700">
      <contour>
        <pt x="112" y="0" on="1"/>
        <pt x="150" y="181" on="1"/>
        <pt x="31" y="181" on="1"/>
        <pt x="54" y="287" on="1"/>
        <pt x="173" y="287" on="1"/>
        <pt x="199" y="413" on="1"/>
        <pt x="81" y="413" on="1"/>
        <pt x="103" y="519" on="1"/>
        <pt x="222" y="519" on="1"/>
        <pt x="260" y="700" on="1"/>
        <pt x="369" y="700" on="1"/>
        <pt x="330" y="519" on="1"/>
        <pt x="449" y="519" on="1"/>
        <pt x="426" y="413" on="1"/>
        <pt x="308" y="413" on="1"/>
        <pt x="281" y="287" on="1"/>
        <pt x="399" y="287" on="1"/>
        <pt x="377" y="181" on="1"/>
        <pt x="259" y="181" on="1"/>
        <pt x="220" y="0" on="1"/>
      </contour>
    </TTGlyph>
    <TTGlyph name="dcaron" xMin="30" yMin="-7" xMax="880" yMax="730">
      <component glyphName="d" x="0" y="0" flags="0x4"/>
      <component glyphName="caronSlovak" x="549" y="0" flags="0x4"/>
    </TTGlyph>
    <TTGlyph name="dcroat" xMin="30" yMin="-7" xMax="704" yMax="730">
      <contour>
        <pt x="378" y="0" on="1"/>
        <pt x="384" y="26" on="1"/>
        <pt x="356" y="10" on="0"/>
        <pt x="294" y="-7" on="0"/>
        <pt x="262" y="-7" on="1"/>
        <pt x="213" y="-7" on="0"/>
        <pt x="128" y="30" on="0"/>
        <pt x="66" y="94" on="0"/>
        <pt x="30" y="183" on="0"/>
        <pt x="30" y="234" on="1"/>
        <pt x="30" y="295" on="0"/>
        <pt x="76" y="402" on="0"/>
        <pt x="154" y="482" on="0"/>
        <pt x="260" y="528" on="0"/>
        <pt x="320" y="528" on="1"/>
        <pt x="366" y="528" on="0"/>
        <pt x="446" y="500" on="0"/>
        <pt x="477" y="474" on="1"/>
        <pt x="499" y="579" on="1"/>
        <pt x="365" y="579" on="1"/>
        <pt x="383" y="663" on="1"/>
        <pt x="517" y="663" on="1"/>
        <pt x="525" y="700" on="1"/>
        <pt x="666" y="730" on="1"/>
        <pt x="652" y="663" on="1"/>
        <pt x="704" y="663" on="1"/>
        <pt x="686" y="579" on="1"/>
        <pt x="634" y="579" on="1"/>
        <pt x="511" y="0" on="1"/>
      </contour>
      <contour>
        <pt x="162" y="246" on="1"/>
        <pt x="162" y="187" on="0"/>
        <pt x="240" y="109" on="0"/>
        <pt x="298" y="109" on="1"/>
        <pt x="329" y="109" on="0"/>
        <pt x="385" y="130" on="0"/>
        <pt x="408" y="149" on="1"/>
        <pt x="452" y="356" on="1"/>
        <pt x="431" y="381" on="0"/>
        <pt x="364" y="411" on="0"/>
        <pt x="325" y="411" on="1"/>
        <pt x="257" y="411" on="0"/>
        <pt x="162" y="315" on="0"/>
      </contour>
    </TTGlyph>
    <TTGlyph name="degree" xMin="105" yMin="418" xMax="393" yMax="709">
      <contour>
        <pt x="234" y="418" on="1"/>
        <pt x="178" y="418" on="0"/>
        <pt x="105" y="492" on="0"/>
        <pt x="105" y="547" on="1"/>
        <pt x="105" y="579" on="0"/>
        <pt x="131" y="639" on="0"/>
        <pt x="174" y="683" on="0"/>
        <pt x="231" y="709" on="0"/>
        <pt x="263" y="709" on="1"/>
        <pt x="319" y="709" on="0"/>
        <pt x="393" y="635" on="0"/>
        <pt x="393" y="580" on="1"/>
        <pt x="393" y="548" on="0"/>
        <pt x="367" y="488" on="0"/>
        <pt x="324" y="444" on="0"/>
        <pt x="266" y="418" on="0"/>
      </contour>
      <contour>
        <pt x="239" y="491" on="1"/>
        <pt x="271" y="491" on="0"/>
        <pt x="319" y="538" on="0"/>
        <pt x="319" y="571" on="1"/>
        <pt x="319" y="599" on="0"/>
        <pt x="283" y="636" on="0"/>
        <pt x="258" y="636" on="1"/>
        <pt x="226" y="636" on="0"/>
        <pt x="179" y="589" on="0"/>
        <pt x="179" y="556" on="1"/>
        <pt x="179" y="529" on="0"/>
        <pt x="214" y="491" on="0"/>
      </contour>
    </TTGlyph>
    <TTGlyph name="dieresis" xMin="196" yMin="602" xMax="556" yMax="747">
      <contour>
        <pt x="261" y="602" on="1"/>
        <pt x="233" y="602" on="0"/>
        <pt x="196" y="639" on="0"/>
        <pt x="196" y="666" on="1"/>
        <pt x="196" y="698" on="0"/>
        <pt x="245" y="747" on="0"/>
        <pt x="279" y="747" on="1"/>
        <pt x="306" y="747" on="0"/>
        <pt x="342" y="710" on="0"/>
        <pt x="342" y="683" on="1"/>
        <pt x="342" y="651" on="0"/>
        <pt x="293" y="602" on="0"/>
      </contour>
      <contour>
        <pt x="475" y="602" on="1"/>
        <pt x="447" y="602" on="0"/>
        <pt x="410" y="639" on="0"/>
        <pt x="410" y="666" on="1"/>
        <pt x="410" y="698" on="0"/>
        <pt x="459" y="747" on="0"/>
        <pt x="493" y="747" on="1"/>
        <pt x="520" y="747" on="0"/>
        <pt x="556" y="710" on="0"/>
        <pt x="556" y="683" on="1"/>
        <pt x="556" y="651" on="0"/>
        <pt x="507" y="602" on="0"/>
      </contour>
    </TTGlyph>
    <TTGlyph name="divide" xMin="55" yMin="58" xMax="526" yMax="660">
      <contour>
        <pt x="328" y="499" on="1"/>
        <pt x="297" y="499" on="0"/>
        <pt x="257" y="540" on="0"/>
        <pt x="257" y="570" on="1"/>
        <pt x="257" y="606" on="0"/>
        <pt x="310" y="660" on="0"/>
        <pt x="347" y="660" on="1"/>
        <pt x="377" y="660" on="0"/>
        <pt x="417" y="620" on="0"/>
        <pt x="417" y="589" on="1"/>
        <pt x="417" y="554" on="0"/>
        <pt x="364" y="499" on="0"/>
      </contour>
      <contour>
        <pt x="55" y="306" on="1"/>
        <pt x="77" y="412" on="1"/>
        <pt x="526" y="412" on="1"/>
        <pt x="503" y="306" on="1"/>
      </contour>
      <contour>
        <pt x="235" y="58" on="1"/>
        <pt x="204" y="58" on="0"/>
        <pt x="164" y="98" on="0"/>
        <pt x="164" y="128" on="1"/>
        <pt x="164" y="164" on="0"/>
        <pt x="217" y="219" on="0"/>
        <pt x="254" y="219" on="1"/>
        <pt x="285" y="219" on="0"/>
        <pt x="324" y="178" on="0"/>
        <pt x="324" y="148" on="1"/>
        <pt x="324" y="113" on="0"/>
        <pt x="271" y="58" on="0"/>
      </contour>
    </TTGlyph>
    <TTGlyph name="dollar" xMin="-22" yMin="-75" xMax="612" yMax="759">
      <contour>
        <pt x="182" y="-75" on="1"/>
        <pt x="202" y="21" on="1"/>
        <pt x="137" y="31" on="0"/>
        <pt x="22" y="95" on="0"/>
        <pt x="-22" y="146" on="1"/>
        <pt x="66" y="238" on="1"/>
        <pt x="103" y="197" on="0"/>
        <pt x="184" y="145" on="0"/>
        <pt x="227" y="135" on="1"/>
        <pt x="262" y="302" on="1"/>
        <pt x="204" y="317" on="1"/>
        <pt x="135" y="335" on="0"/>
        <pt x="63" y="418" on="0"/>
        <pt x="63" y="479" on="1"/>
        <pt x="63" y="575" on="0"/>
        <pt x="206" y="687" on="0"/>
        <pt x="327" y="687" on="1"/>
        <pt x="344" y="687" on="1"/>
        <pt x="359" y="759" on="1"/>
        <pt x="424" y="759" on="1"/>
        <pt x="407" y="680" on="1"/>
        <pt x="466" y="669" on="0"/>
        <pt x="572" y="616" on="0"/>
        <pt x="612" y="577" on="1"/>
        <pt x="528" y="483" on="1"/>
        <pt x="494" y="514" on="0"/>
        <pt x="423" y="556" on="0"/>
        <pt x="383" y="566" on="1"/>
        <pt x="351" y="413" on="1"/>
        <pt x="391" y="403" on="1"/>
        <pt x="474" y="382" on="0"/>
        <pt x="556" y="299" on="0"/>
        <pt x="556" y="237" on="1"/>
        <pt x="556" y="137" on="0"/>
        <pt x="401" y="15" on="0"/>
        <pt x="273" y="15" on="1"/>
        <pt x="266" y="15" on="1"/>
        <pt x="247" y="-75" on="1"/>
      </contour>
      <contour>
        <pt x="270" y="426" on="1"/>
        <pt x="287" y="422" on="1"/>
        <pt x="320" y="574" on="1"/>
        <pt x="311" y="574" on="1"/>
        <pt x="257" y="574" on="0"/>
        <pt x="191" y="531" on="0"/>
        <pt x="191" y="495" on="1"/>
        <pt x="191" y="470" on="0"/>
        <pt x="229" y="436" on="0"/>
      </contour>
      <contour>
        <pt x="331" y="290" on="1"/>
        <pt x="325" y="292" on="1"/>
        <pt x="290" y="128" on="1"/>
        <pt x="351" y="129" on="0"/>
        <pt x="424" y="176" on="0"/>
        <pt x="424" y="214" on="1"/>
        <pt x="424" y="242" on="0"/>
        <pt x="382" y="276" on="0"/>
      </contour>
    </TTGlyph>
    <TTGlyph name="dotaccent" xMin="160" yMin="602" xMax="306" yMax="747">
      <contour>
        <pt x="225" y="602" on="1"/>
        <pt x="197" y="602" on="0"/>
        <pt x="160" y="639" on="0"/>
        <pt x="160" y="666" on="1"/>
        <pt x="160" y="698" on="0"/>
        <pt x="209" y="747" on="0"/>
        <pt x="242" y="747" on="1"/>
        <pt x="270" y="747" on="0"/>
        <pt x="306" y="710" on="0"/>
        <pt x="306" y="683" on="1"/>
        <pt x="306" y="651" on="0"/>
        <pt x="257" y="602" on="0"/>
      </contour>
    </TTGlyph>
    <TTGlyph name="dotlessi" xMin="-2" yMin="0" xMax="242" yMax="521">
      <contour>
        <pt x="242" y="521" on="1"/>
        <pt x="132" y="0" on="1"/>
        <pt x="-2" y="0" on="1"/>
        <pt x="108" y="521" on="1"/>
      </contour>
    </TTGlyph>
    <TTGlyph name="dotlessj" xMin="-146" yMin="-215" xMax="243" yMax="521">
      <contour>
        <pt x="-146" y="-202" on="1"/>
        <pt x="-124" y="-98" on="1"/>
        <pt x="-113" y="-101" on="0"/>
        <pt x="-90" y="-104" on="0"/>
        <pt x="-73" y="-104" on="1"/>
        <pt x="-48" y="-104" on="0"/>
        <pt x="-19" y="-79" on="0"/>
        <pt x="-14" y="-54" on="1"/>
        <pt x="108" y="521" on="1"/>
        <pt x="243" y="521" on="1"/>
        <pt x="117" y="-68" on="1"/>
        <pt x="102" y="-138" on="0"/>
        <pt x="7" y="-215" on="0"/>
        <pt x="-65" y="-215" on="1"/>
        <pt x="-84" y="-215" on="0"/>
        <pt x="-133" y="-207" on="0"/>
      </contour>
    </TTGlyph>
    <TTGlyph name="e" xMin="28" yMin="-11" xMax="546" yMax="529">
      <contour>
        <pt x="490" y="54" on="1"/>
        <pt x="442" y="20" on="0"/>
        <pt x="348" y="-11" on="0"/>
        <pt x="292" y="-11" on="1"/>
        <pt x="235" y="-11" on="0"/>
        <pt x="137" y="26" on="0"/>
        <pt x="67" y="92" on="0"/>
        <pt x="28" y="184" on="0"/>
        <pt x="28" y="238" on="1"/>
        <pt x="28" y="297" on="0"/>
        <pt x="73" y="404" on="0"/>
        <pt x="149" y="483" on="0"/>
        <pt x="252" y="529" on="0"/>
        <pt x="310" y="529" on="1"/>
        <pt x="361" y="529" on="0"/>
        <pt x="449" y="491" on="0"/>
        <pt x="511" y="425" on="0"/>
        <pt x="546" y="332" on="0"/>
        <pt x="546" y="278" on="1"/>
        <pt x="546" y="267" on="0"/>
        <pt x="544" y="242" on="0"/>
        <pt x="541" y="215" on="1"/>
        <pt x="161" y="215" on="1"/>
        <pt x="170" y="165" on="0"/>
        <pt x="247" y="103" on="0"/>
        <pt x="302" y="103" on="1"/>
        <pt x="335" y="103" on="0"/>
        <pt x="393" y="123" on="0"/>
        <pt x="415" y="141" on="1"/>
      </contour>
      <contour>
        <pt x="303" y="415" on="1"/>
        <pt x="258" y="415" on="0"/>
        <pt x="186" y="358" on="0"/>
        <pt x="170" y="312" on="1"/>
        <pt x="420" y="312" on="1"/>
        <pt x="411" y="358" on="0"/>
        <pt x="348" y="415" on="0"/>
      </contour>
    </TTGlyph>
    <TTGlyph name="eacute" xMin="28" yMin="-11" xMax="546" yMax="738">
      <component glyphName="e" x="0" y="0" flags="0x204"/>
      <component glyphName="acute" x="39" y="0" flags="0x4"/>
    </TTGlyph>
    <TTGlyph name="ebreve" xMin="28" yMin="-11" xMax="546" yMax="760">
      <component glyphName="e" x="0" y="0" flags="0x204"/>
      <component glyphName="breve" x="5" y="0" flags="0x4"/>
    </TTGlyph>
    <TTGlyph name="ecaron" xMin="28" yMin="-11" xMax="546" yMax="741">
      <component glyphName="e" x="0" y="0" flags="0x204"/>
      <component glyphName="caron" x="5" y="0" flags="0x4"/>
    </TTGlyph>
    <TTGlyph name="ecircumflex" xMin="28" yMin="-11" xMax="546" yMax="741">
      <component glyphName="e" x="0" y="0" flags="0x204"/>
      <component glyphName="circumflex" x="4" y="0" flags="0x4"/>
    </TTGlyph>
    <TTGlyph name="edieresis" xMin="28" yMin="-11" xMax="546" yMax="747">
      <component glyphName="e" x="0" y="0" flags="0x204"/>
      <component glyphName="dieresis" x="-30" y="0" flags="0x4"/>
    </TTGlyph>
    <TTGlyph name="edotaccent" xMin="28" yMin="-11" xMax="546" yMax="747">
      <component glyphName="e" x="0" y="0" flags="0x204"/>
      <component glyphName="dotaccent" x="116" y="0" flags="0x4"/>
    </TTGlyph>
    <TTGlyph name="egrave" xMin="28" yMin="-11" xMax="546" yMax="738">
      <component glyphName="e" x="0" y="0" flags="0x204"/>
      <component glyphName="grave" x="-15" y="0" flags="0x4"/>
    </TTGlyph>
    <TTGlyph name="eight" xMin="21" yMin="-11" xMax="616" yMax="710">
      <contour>
        <pt x="281" y="-11" on="1"/>
        <pt x="224" y="-11" on="0"/>
        <pt x="127" y="16" on="0"/>
        <pt x="59" y="65" on="0"/>
        <pt x="21" y="134" on="0"/>
        <pt x="21" y="175" on="1"/>
        <pt x="21" y="241" on="0"/>
        <pt x="108" y="347" on="0"/>
        <pt x="176" y="370" on="1"/>
        <pt x="145" y="392" on="0"/>
        <pt x="110" y="457" on="0"/>
        <pt x="110" y="495" on="1"/>
        <pt x="110" y="539" on="0"/>
        <pt x="153" y="618" on="0"/>
        <pt x="227" y="676" on="0"/>
        <pt x="327" y="710" on="0"/>
        <pt x="383" y="710" on="1"/>
        <pt x="434" y="710" on="0"/>
        <pt x="520" y="683" on="0"/>
        <pt x="581" y="636" on="0"/>
        <pt x="616" y="570" on="0"/>
        <pt x="616" y="532" on="1"/>
        <pt x="616" y="474" on="0"/>
        <pt x="542" y="375" on="0"/>
        <pt x="485" y="350" on="1"/>
        <pt x="525" y="328" on="0"/>
        <pt x="572" y="256" on="0"/>
        <pt x="572" y="212" on="1"/>
        <pt x="572" y="166" on="0"/>
        <pt x="526" y="84" on="0"/>
        <pt x="448" y="24" on="0"/>
        <pt x="341" y="-11" on="0"/>
      </contour>
      <contour>
        <pt x="354" y="411" on="1"/>
        <pt x="405" y="411" on="0"/>
        <pt x="482" y="472" on="0"/>
        <pt x="482" y="514" on="1"/>
        <pt x="482" y="551" on="0"/>
        <pt x="419" y="600" on="0"/>
        <pt x="371" y="600" on="1"/>
        <pt x="318" y="600" on="0"/>
        <pt x="241" y="539" on="0"/>
        <pt x="241" y="496" on="1"/>
        <pt x="241" y="459" on="0"/>
        <pt x="305" y="411" on="0"/>
      </contour>
      <contour>
        <pt x="291" y="101" on="1"/>
        <pt x="351" y="101" on="0"/>
        <pt x="439" y="166" on="0"/>
        <pt x="439" y="212" on="1"/>
        <pt x="439" y="253" on="0"/>
        <pt x="363" y="307" on="0"/>
        <pt x="305" y="307" on="1"/>
        <pt x="244" y="307" on="0"/>
        <pt x="158" y="243" on="0"/>
        <pt x="158" y="197" on="1"/>
        <pt x="158" y="155" on="0"/>
        <pt x="233" y="101" on="0"/>
      </contour>
    </TTGlyph>
    <TTGlyph name="ellipsis" xMin="-3" yMin="-10" xMax="628" yMax="152">
      <component glyphName="period" x="0" y="0" flags="0x4"/>
      <component glyphName="period" x="235" y="0" flags="0x4"/>
      <component glyphName="period" x="471" y="0" flags="0x4"/>
    </TTGlyph>
    <TTGlyph name="emacron" xMin="28" yMin="-11" xMax="546" yMax="713">
      <component glyphName="e" x="0" y="0" flags="0x204"/>
      <component glyphName="macron" x="5" y="0" flags="0x4"/>
    </TTGlyph>
    <TTGlyph name="emdash" xMin="33" yMin="227" xMax="672" yMax="343">
      <contour>
        <pt x="58" y="343" on="1"/>
        <pt x="672" y="343" on="1"/>
        <pt x="647" y="227" on="1"/>
        <pt x="33" y="227" on="1"/>
      </contour>
    </TTGlyph>
    <TTGlyph name="emdash.cap" xMin="38" yMin="292" xMax="677" yMax="408">
      <component glyphName="emdash" x="5" y="65" flags="0x4"/>
    </TTGlyph>
    <TTGlyph name="endash" xMin="33" yMin="227" xMax="525" yMax="343">
      <contour>
        <pt x="58" y="343" on="1"/>
        <pt x="525" y="343" on="1"/>
        <pt x="500" y="227" on="1"/>
        <pt x="33" y="227" on="1"/>
      </contour>
    </TTGlyph>
    <TTGlyph name="endash.cap" xMin="37" yMin="292" xMax="529" yMax="408">
      <component glyphName="endash" x="4" y="65" flags="0x4"/>
    </TTGlyph>
    <TTGlyph name="eng" xMin="-2" yMin="-215" xMax="549" yMax="529">
      <contour>
        <pt x="-2" y="0" on="1"/>
        <pt x="108" y="521" on="1"/>
        <pt x="242" y="521" on="1"/>
        <pt x="234" y="484" on="1"/>
        <pt x="265" y="506" on="0"/>
        <pt x="337" y="529" on="0"/>
        <pt x="376" y="529" on="1"/>
        <pt x="422" y="529" on="0"/>
        <pt x="494" y="496" on="0"/>
        <pt x="538" y="439" on="0"/>
        <pt x="554" y="359" on="0"/>
        <pt x="544" y="312" on="1"/>
        <pt x="463" y="-68" on="1"/>
        <pt x="448" y="-138" on="0"/>
        <pt x="353" y="-215" on="0"/>
        <pt x="281" y="-215" on="1"/>
        <pt x="261" y="-215" on="0"/>
        <pt x="212" y="-207" on="0"/>
        <pt x="199" y="-202" on="1"/>
        <pt x="222" y="-98" on="1"/>
        <pt x="232" y="-101" on="0"/>
        <pt x="256" y="-104" on="0"/>
        <pt x="272" y="-104" on="1"/>
        <pt x="297" y="-104" on="0"/>
        <pt x="326" y="-79" on="0"/>
        <pt x="331" y="-54" on="1"/>
        <pt x="407" y="298" on="1"/>
        <pt x="417" y="349" on="0"/>
        <pt x="368" y="413" on="0"/>
        <pt x="319" y="413" on="1"/>
        <pt x="288" y="413" on="0"/>
        <pt x="231" y="389" on="0"/>
        <pt x="209" y="365" on="1"/>
        <pt x="132" y="0" on="1"/>
      </contour>
    </TTGlyph>
    <TTGlyph name="eogonek" xMin="28" yMin="-221" xMax="546" yMax="529">
      <contour>
        <pt x="353" y="-200" on="1"/>
        <pt x="334" y="-210" on="0"/>
        <pt x="291" y="-221" on="0"/>
        <pt x="270" y="-221" on="1"/>
        <pt x="230" y="-221" on="0"/>
        <pt x="182" y="-182" on="0"/>
        <pt x="182" y="-148" on="1"/>
        <pt x="182" y="-111" on="0"/>
        <pt x="232" y="-42" on="0"/>
        <pt x="281" y="-11" on="1"/>
        <pt x="226" y="-9" on="0"/>
        <pt x="132" y="30" on="0"/>
        <pt x="66" y="95" on="0"/>
        <pt x="28" y="185" on="0"/>
        <pt x="28" y="238" on="1"/>
        <pt x="28" y="297" on="0"/>
        <pt x="73" y="404" on="0"/>
        <pt x="149" y="483" on="0"/>
        <pt x="252" y="529" on="0"/>
        <pt x="310" y="529" on="1"/>
        <pt x="361" y="529" on="0"/>
        <pt x="449" y="491" on="0"/>
        <pt x="511" y="425" on="0"/>
        <pt x="546" y="332" on="0"/>
        <pt x="546" y="278" on="1"/>
        <pt x="546" y="267" on="0"/>
        <pt x="544" y="242" on="0"/>
        <pt x="541" y="215" on="1"/>
        <pt x="161" y="215" on="1"/>
        <pt x="170" y="165" on="0"/>
        <pt x="247" y="103" on="0"/>
        <pt x="302" y="103" on="1"/>
        <pt x="335" y="103" on="0"/>
        <pt x="393" y="123" on="0"/>
        <pt x="415" y="141" on="1"/>
        <pt x="490" y="54" on="1"/>
        <pt x="461" y="34" on="0"/>
        <pt x="404" y="6" on="0"/>
        <pt x="374" y="-1" on="1"/>
        <pt x="319" y="-31" on="0"/>
        <pt x="265" y="-87" on="0"/>
        <pt x="265" y="-115" on="1"/>
        <pt x="265" y="-131" on="0"/>
        <pt x="288" y="-150" on="0"/>
        <pt x="307" y="-150" on="1"/>
        <pt x="317" y="-150" on="0"/>
        <pt x="338" y="-144" on="0"/>
        <pt x="347" y="-139" on="1"/>
      </contour>
      <contour>
        <pt x="303" y="415" on="1"/>
        <pt x="258" y="415" on="0"/>
        <pt x="186" y="358" on="0"/>
        <pt x="170" y="312" on="1"/>
        <pt x="420" y="312" on="1"/>
        <pt x="411" y="358" on="0"/>
        <pt x="348" y="415" on="0"/>
      </contour>
    </TTGlyph>
    <TTGlyph name="equal" xMin="34" yMin="205" xMax="545" yMax="502">
      <component glyphName="minus" x="-21" y="-101" flags="0x4"/>
      <component glyphName="minus" x="19" y="90" flags="0x4"/>
    </TTGlyph>
    <TTGlyph name="eth" xMin="30" yMin="-9" xMax="594" yMax="763">
      <contour>
        <pt x="296" y="517" on="1"/>
        <pt x="261" y="593" on="1"/>
        <pt x="335" y="629" on="1"/>
        <pt x="319" y="643" on="0"/>
        <pt x="284" y="669" on="0"/>
        <pt x="265" y="679" on="1"/>
        <pt x="352" y="763" on="1"/>
        <pt x="380" y="746" on="0"/>
        <pt x="430" y="707" on="0"/>
        <pt x="451" y="685" on="1"/>
        <pt x="558" y="737" on="1"/>
        <pt x="594" y="661" on="1"/>
        <pt x="504" y="618" on="1"/>
        <pt x="537" y="566" on="0"/>
        <pt x="570" y="442" on="0"/>
        <pt x="570" y="372" on="1"/>
        <pt x="570" y="290" on="0"/>
        <pt x="524" y="150" on="0"/>
        <pt x="443" y="49" on="0"/>
        <pt x="332" y="-9" on="0"/>
        <pt x="267" y="-9" on="1"/>
        <pt x="163" y="-9" on="0"/>
        <pt x="30" y="121" on="0"/>
        <pt x="30" y="224" on="1"/>
        <pt x="30" y="277" on="0"/>
        <pt x="72" y="373" on="0"/>
        <pt x="144" y="444" on="0"/>
        <pt x="241" y="486" on="0"/>
        <pt x="295" y="486" on="1"/>
        <pt x="342" y="486" on="0"/>
        <pt x="416" y="454" on="0"/>
        <pt x="440" y="424" on="1"/>
        <pt x="438" y="460" on="0"/>
        <pt x="413" y="531" on="0"/>
        <pt x="391" y="563" on="1"/>
      </contour>
      <contour>
        <pt x="271" y="112" on="1"/>
        <pt x="327" y="112" on="0"/>
        <pt x="412" y="199" on="0"/>
        <pt x="412" y="257" on="1"/>
        <pt x="412" y="306" on="0"/>
        <pt x="347" y="372" on="0"/>
        <pt x="299" y="372" on="1"/>
        <pt x="242" y="372" on="0"/>
        <pt x="157" y="285" on="0"/>
        <pt x="157" y="227" on="1"/>
        <pt x="157" y="178" on="0"/>
        <pt x="222" y="112" on="0"/>
      </contour>
    </TTGlyph>
    <TTGlyph name="exclam" xMin="-3" yMin="-10" xMax="288" yMax="737">
      <contour>
        <pt x="56" y="210" on="1"/>
        <pt x="151" y="737" on="1"/>
        <pt x="288" y="737" on="1"/>
        <pt x="159" y="210" on="1"/>
      </contour>
      <contour>
        <pt x="68" y="-10" on="1"/>
        <pt x="38" y="-10" on="0"/>
        <pt x="-3" y="31" on="0"/>
        <pt x="-3" y="61" on="1"/>
        <pt x="-3" y="98" on="0"/>
        <pt x="51" y="152" on="0"/>
        <pt x="88" y="152" on="1"/>
        <pt x="118" y="152" on="0"/>
        <pt x="157" y="111" on="0"/>
        <pt x="157" y="81" on="1"/>
        <pt x="157" y="45" on="0"/>
        <pt x="103" y="-10" on="0"/>
      </contour>
    </TTGlyph>
    <TTGlyph name="exclamdown" xMin="-15" yMin="-35" xMax="276" yMax="712">
      <contour>
        <pt x="217" y="492" on="1"/>
        <pt x="122" y="-35" on="1"/>
        <pt x="-15" y="-35" on="1"/>
        <pt x="114" y="492" on="1"/>
      </contour>
      <contour>
        <pt x="205" y="712" on="1"/>
        <pt x="235" y="712" on="0"/>
        <pt x="276" y="671" on="0"/>
        <pt x="276" y="641" on="1"/>
        <pt x="276" y="604" on="0"/>
        <pt x="222" y="550" on="0"/>
        <pt x="185" y="550" on="1"/>
        <pt x="155" y="550" on="0"/>
        <pt x="116" y="591" on="0"/>
        <pt x="116" y="621" on="1"/>
        <pt x="116" y="657" on="0"/>
        <pt x="170" y="712" on="0"/>
      </contour>
    </TTGlyph>
    <TTGlyph name="f" xMin="49" yMin="0" xMax="505" yMax="752">
      <contour>
        <pt x="73" y="521" on="1"/>
        <pt x="186" y="521" on="1"/>
        <pt x="200" y="585" on="1"/>
        <pt x="217" y="666" on="0"/>
        <pt x="325" y="752" on="0"/>
        <pt x="408" y="752" on="1"/>
        <pt x="433" y="752" on="0"/>
        <pt x="488" y="743" on="0"/>
        <pt x="505" y="736" on="1"/>
        <pt x="482" y="622" on="1"/>
        <pt x="465" y="628" on="0"/>
        <pt x="431" y="634" on="0"/>
        <pt x="413" y="634" on="1"/>
        <pt x="379" y="634" on="0"/>
        <pt x="339" y="603" on="0"/>
        <pt x="332" y="572" on="1"/>
        <pt x="321" y="521" on="1"/>
        <pt x="459" y="521" on="1"/>
        <pt x="435" y="406" on="1"/>
        <pt x="297" y="406" on="1"/>
        <pt x="210" y="0" on="1"/>
        <pt x="76" y="0" on="1"/>
        <pt x="162" y="406" on="1"/>
        <pt x="49" y="406" on="1"/>
      </contour>
    </TTGlyph>
    <TTGlyph name="fi" xMin="49" yMin="0" xMax="704" yMax="752">
      <component glyphName="f" x="0" y="0" flags="0x4"/>
      <component glyphName="i" x="422" y="0" flags="0x4"/>
    </TTGlyph>
    <TTGlyph name="five" xMin="-5" yMin="-9" xMax="614" yMax="700">
      <contour>
        <pt x="80" y="350" on="1"/>
        <pt x="169" y="700" on="1"/>
        <pt x="614" y="700" on="1"/>
        <pt x="589" y="585" on="1"/>
        <pt x="256" y="585" on="1"/>
        <pt x="216" y="430" on="1"/>
        <pt x="241" y="436" on="0"/>
        <pt x="290" y="442" on="0"/>
        <pt x="316" y="442" on="1"/>
        <pt x="421" y="442" on="0"/>
        <pt x="555" y="334" on="0"/>
        <pt x="555" y="248" on="1"/>
        <pt x="555" y="194" on="0"/>
        <pt x="509" y="100" on="0"/>
        <pt x="430" y="31" on="0"/>
        <pt x="322" y="-9" on="0"/>
        <pt x="261" y="-9" on="1"/>
        <pt x="178" y="-9" on="0"/>
        <pt x="41" y="51" on="0"/>
        <pt x="-5" y="105" on="1"/>
        <pt x="91" y="191" on="1"/>
        <pt x="131" y="146" on="0"/>
        <pt x="215" y="106" on="0"/>
        <pt x="267" y="106" on="1"/>
        <pt x="330" y="106" on="0"/>
        <pt x="416" y="176" on="0"/>
        <pt x="416" y="229" on="1"/>
        <pt x="416" y="277" on="0"/>
        <pt x="336" y="336" on="0"/>
        <pt x="273" y="336" on="1"/>
        <pt x="247" y="336" on="0"/>
        <pt x="189" y="325" on="0"/>
        <pt x="161" y="316" on="1"/>
      </contour>
    </TTGlyph>
    <TTGlyph name="fl" xMin="49" yMin="0" xMax="709" yMax="752">
      <component glyphName="f" x="0" y="0" flags="0x4"/>
      <component glyphName="l" x="422" y="0" flags="0x4"/>
    </TTGlyph>
    <TTGlyph name="four" xMin="6" yMin="0" xMax="641" yMax="700">
      <contour>
        <pt x="641" y="700" on="1"/>
        <pt x="551" y="279" on="1"/>
        <pt x="636" y="279" on="1"/>
        <pt x="612" y="164" on="1"/>
        <pt x="527" y="164" on="1"/>
        <pt x="492" y="0" on="1"/>
        <pt x="359" y="0" on="1"/>
        <pt x="394" y="164" on="1"/>
        <pt x="6" y="164" on="1"/>
        <pt x="29" y="274" on="1"/>
        <pt x="487" y="700" on="1"/>
      </contour>
      <contour>
        <pt x="186" y="279" on="1"/>
        <pt x="418" y="279" on="1"/>
        <pt x="475" y="548" on="1"/>
      </contour>
    </TTGlyph>
    <TTGlyph name="fraction" xMin="-29" yMin="0" xMax="606" yMax="700">
      <contour>
        <pt x="68" y="0" on="1"/>
        <pt x="-29" y="0" on="1"/>
        <pt x="508" y="700" on="1"/>
        <pt x="606" y="700" on="1"/>
      </contour>
    </TTGlyph>
    <TTGlyph name="g" xMin="17" yMin="-217" xMax="620" yMax="528">
      <contour>
        <pt x="262" y="-3" on="1"/>
        <pt x="213" y="-3" on="0"/>
        <pt x="129" y="33" on="0"/>
        <pt x="67" y="97" on="0"/>
        <pt x="32" y="185" on="0"/>
        <pt x="32" y="236" on="1"/>
        <pt x="32" y="296" on="0"/>
        <pt x="77" y="403" on="0"/>
        <pt x="155" y="482" on="0"/>
        <pt x="260" y="528" on="0"/>
        <pt x="320" y="528" on="1"/>
        <pt x="366" y="528" on="0"/>
        <pt x="446" y="500" on="0"/>
        <pt x="476" y="475" on="1"/>
        <pt x="486" y="521" on="1"/>
        <pt x="620" y="521" on="1"/>
        <pt x="505" y="-26" on="1"/>
        <pt x="486" y="-118" on="0"/>
        <pt x="359" y="-217" on="0"/>
        <pt x="260" y="-217" on="1"/>
        <pt x="196" y="-217" on="0"/>
        <pt x="66" y="-178" on="0"/>
        <pt x="17" y="-144" on="1"/>
        <pt x="79" y="-43" on="1"/>
        <pt x="122" y="-71" on="0"/>
        <pt x="213" y="-102" on="0"/>
        <pt x="256" y="-102" on="1"/>
        <pt x="305" y="-102" on="0"/>
        <pt x="363" y="-56" on="0"/>
        <pt x="373" y="-11" on="1"/>
        <pt x="381" y="28" on="1"/>
        <pt x="354" y="13" on="0"/>
        <pt x="293" y="-3" on="0"/>
      </contour>
      <contour>
        <pt x="164" y="248" on="1"/>
        <pt x="164" y="189" on="0"/>
        <pt x="240" y="111" on="0"/>
        <pt x="298" y="111" on="1"/>
        <pt x="329" y="111" on="0"/>
        <pt x="384" y="131" on="0"/>
        <pt x="407" y="150" on="1"/>
        <pt x="451" y="357" on="1"/>
        <pt x="430" y="382" on="0"/>
        <pt x="363" y="411" on="0"/>
        <pt x="325" y="411" on="1"/>
        <pt x="258" y="411" on="0"/>
        <pt x="164" y="315" on="0"/>
      </contour>
    </TTGlyph>
    <TTGlyph name="g.alt" xMin="-53" yMin="-215" xMax="642" yMax="542">
      <contour>
        <pt x="67" y="318" on="1"/>
        <pt x="67" y="361" on="0"/>
        <pt x="106" y="439" on="0"/>
        <pt x="172" y="496" on="0"/>
        <pt x="262" y="530" on="0"/>
        <pt x="313" y="530" on="1"/>
        <pt x="362" y="530" on="0"/>
        <pt x="444" y="500" on="0"/>
        <pt x="473" y="474" on="1"/>
        <pt x="501" y="507" on="0"/>
        <pt x="568" y="542" on="0"/>
        <pt x="603" y="542" on="1"/>
        <pt x="615" y="542" on="0"/>
        <pt x="634" y="539" on="0"/>
        <pt x="642" y="535" on="1"/>
        <pt x="622" y="433" on="1"/>
        <pt x="613" y="436" on="0"/>
        <pt x="587" y="438" on="0"/>
        <pt x="573" y="438" on="1"/>
        <pt x="556" y="438" on="0"/>
        <pt x="524" y="433" on="0"/>
        <pt x="509" y="428" on="1"/>
        <pt x="518" y="411" on="0"/>
        <pt x="528" y="372" on="0"/>
        <pt x="528" y="351" on="1"/>
        <pt x="528" y="308" on="0"/>
        <pt x="490" y="231" on="0"/>
        <pt x="424" y="176" on="0"/>
        <pt x="334" y="143" on="0"/>
        <pt x="283" y="143" on="1"/>
        <pt x="263" y="143" on="0"/>
        <pt x="225" y="148" on="0"/>
        <pt x="208" y="153" on="1"/>
        <pt x="188" y="149" on="0"/>
        <pt x="165" y="129" on="0"/>
        <pt x="165" y="115" on="1"/>
        <pt x="165" y="103" on="0"/>
        <pt x="190" y="87" on="0"/>
        <pt x="214" y="84" on="1"/>
        <pt x="383" y="68" on="1"/>
        <pt x="447" y="61" on="0"/>
        <pt x="517" y="4" on="0"/>
        <pt x="517" y="-41" on="1"/>
        <pt x="517" y="-80" on="0"/>
        <pt x="475" y="-145" on="0"/>
        <pt x="400" y="-190" on="0"/>
        <pt x="294" y="-215" on="0"/>
        <pt x="229" y="-215" on="1"/>
        <pt x="100" y="-215" on="0"/>
        <pt x="-53" y="-150" on="0"/>
        <pt x="-53" y="-94" on="1"/>
        <pt x="-53" y="-54" on="0"/>
        <pt x="10" y="4" on="0"/>
        <pt x="63" y="17" on="1"/>
        <pt x="53" y="27" on="0"/>
        <pt x="42" y="54" on="0"/>
        <pt x="42" y="70" on="1"/>
        <pt x="42" y="110" on="0"/>
        <pt x="96" y="171" on="0"/>
        <pt x="140" y="184" on="1"/>
        <pt x="106" y="208" on="0"/>
        <pt x="67" y="277" on="0"/>
      </contour>
      <contour>
        <pt x="403" y="344" on="1"/>
        <pt x="403" y="380" on="0"/>
        <pt x="348" y="429" on="0"/>
        <pt x="308" y="429" on="1"/>
        <pt x="260" y="429" on="0"/>
        <pt x="192" y="367" on="0"/>
        <pt x="192" y="324" on="1"/>
        <pt x="192" y="288" on="0"/>
        <pt x="246" y="240" on="0"/>
        <pt x="288" y="240" on="1"/>
        <pt x="334" y="240" on="0"/>
        <pt x="403" y="302" on="0"/>
      </contour>
      <contour>
        <pt x="71" y="-73" on="1"/>
        <pt x="71" y="-100" on="0"/>
        <pt x="160" y="-131" on="0"/>
        <pt x="238" y="-131" on="1"/>
        <pt x="301" y="-131" on="0"/>
        <pt x="377" y="-99" on="0"/>
        <pt x="377" y="-74" on="1"/>
        <pt x="377" y="-64" on="0"/>
        <pt x="357" y="-48" on="0"/>
        <pt x="339" y="-46" on="1"/>
        <pt x="191" y="-32" on="1"/>
        <pt x="176" y="-31" on="0"/>
        <pt x="148" y="-26" on="0"/>
        <pt x="136" y="-22" on="1"/>
        <pt x="107" y="-26" on="0"/>
        <pt x="71" y="-54" on="0"/>
      </contour>
    </TTGlyph>
    <TTGlyph name="gbreve" xMin="17" yMin="-217" xMax="620" yMax="760">
      <component glyphName="g" x="0" y="0" flags="0x204"/>
      <component glyphName="breve" x="31" y="0" flags="0x4"/>
    </TTGlyph>
    <TTGlyph name="gbreve.alt" xMin="-53" yMin="-215" xMax="642" yMax="760">
      <component glyphName="g.alt" x="0" y="0" flags="0x204"/>
      <component glyphName="breve" x="26" y="0" flags="0x4"/>
    </TTGlyph>
    <TTGlyph name="gcircumflex" xMin="17" yMin="-217" xMax="620" yMax="741">
      <component glyphName="g" x="0" y="0" flags="0x204"/>
      <component glyphName="circumflex" x="29" y="0" flags="0x4"/>
    </TTGlyph>
    <TTGlyph name="gcircumflex.alt" xMin="-53" yMin="-215" xMax="642" yMax="741">
      <component glyphName="g.alt" x="0" y="0" flags="0x204"/>
      <component glyphName="circumflex" x="26" y="0" flags="0x4"/>
    </TTGlyph>
    <TTGlyph name="gcommaaccent" xMin="17" yMin="-217" xMax="620" yMax="819">
      <contour>
        <pt x="413" y="614" on="1"/>
        <pt x="286" y="614" on="1"/>
        <pt x="409" y="819" on="1"/>
        <pt x="507" y="819" on="1"/>
      </contour>
      <contour>
        <pt x="262" y="-3" on="1"/>
        <pt x="213" y="-3" on="0"/>
        <pt x="129" y="33" on="0"/>
        <pt x="67" y="97" on="0"/>
        <pt x="32" y="185" on="0"/>
        <pt x="32" y="236" on="1"/>
        <pt x="32" y="296" on="0"/>
        <pt x="77" y="403" on="0"/>
        <pt x="155" y="482" on="0"/>
        <pt x="260" y="528" on="0"/>
        <pt x="320" y="528" on="1"/>
        <pt x="366" y="528" on="0"/>
        <pt x="446" y="500" on="0"/>
        <pt x="476" y="475" on="1"/>
        <pt x="486" y="521" on="1"/>
        <pt x="620" y="521" on="1"/>
        <pt x="505" y="-26" on="1"/>
        <pt x="486" y="-118" on="0"/>
        <pt x="359" y="-217" on="0"/>
        <pt x="260" y="-217" on="1"/>
        <pt x="196" y="-217" on="0"/>
        <pt x="66" y="-178" on="0"/>
        <pt x="17" y="-144" on="1"/>
        <pt x="79" y="-43" on="1"/>
        <pt x="122" y="-71" on="0"/>
        <pt x="213" y="-102" on="0"/>
        <pt x="256" y="-102" on="1"/>
        <pt x="305" y="-102" on="0"/>
        <pt x="363" y="-56" on="0"/>
        <pt x="373" y="-11" on="1"/>
        <pt x="381" y="28" on="1"/>
        <pt x="354" y="13" on="0"/>
        <pt x="293" y="-3" on="0"/>
      </contour>
      <contour>
        <pt x="164" y="248" on="1"/>
        <pt x="164" y="189" on="0"/>
        <pt x="240" y="111" on="0"/>
        <pt x="298" y="111" on="1"/>
        <pt x="329" y="111" on="0"/>
        <pt x="384" y="131" on="0"/>
        <pt x="407" y="150" on="1"/>
        <pt x="451" y="357" on="1"/>
        <pt x="430" y="382" on="0"/>
        <pt x="363" y="411" on="0"/>
        <pt x="325" y="411" on="1"/>
        <pt x="258" y="411" on="0"/>
        <pt x="164" y="315" on="0"/>
      </contour>
    </TTGlyph>
    <TTGlyph name="gcommaaccent.alt" xMin="-53" yMin="-215" xMax="642" yMax="816">
      <contour>
        <pt x="413" y="611" on="1"/>
        <pt x="286" y="611" on="1"/>
        <pt x="409" y="816" on="1"/>
        <pt x="507" y="816" on="1"/>
      </contour>
      <contour>
        <pt x="67" y="318" on="1"/>
        <pt x="67" y="361" on="0"/>
        <pt x="106" y="439" on="0"/>
        <pt x="172" y="496" on="0"/>
        <pt x="262" y="530" on="0"/>
        <pt x="313" y="530" on="1"/>
        <pt x="362" y="530" on="0"/>
        <pt x="444" y="500" on="0"/>
        <pt x="473" y="474" on="1"/>
        <pt x="501" y="507" on="0"/>
        <pt x="568" y="542" on="0"/>
        <pt x="603" y="542" on="1"/>
        <pt x="615" y="542" on="0"/>
        <pt x="634" y="539" on="0"/>
        <pt x="642" y="535" on="1"/>
        <pt x="622" y="433" on="1"/>
        <pt x="613" y="436" on="0"/>
        <pt x="587" y="438" on="0"/>
        <pt x="573" y="438" on="1"/>
        <pt x="556" y="438" on="0"/>
        <pt x="524" y="433" on="0"/>
        <pt x="509" y="428" on="1"/>
        <pt x="518" y="411" on="0"/>
        <pt x="528" y="372" on="0"/>
        <pt x="528" y="351" on="1"/>
        <pt x="528" y="308" on="0"/>
        <pt x="490" y="231" on="0"/>
        <pt x="424" y="176" on="0"/>
        <pt x="334" y="143" on="0"/>
        <pt x="283" y="143" on="1"/>
        <pt x="263" y="143" on="0"/>
        <pt x="225" y="148" on="0"/>
        <pt x="208" y="153" on="1"/>
        <pt x="188" y="149" on="0"/>
        <pt x="165" y="129" on="0"/>
        <pt x="165" y="115" on="1"/>
        <pt x="165" y="103" on="0"/>
        <pt x="190" y="87" on="0"/>
        <pt x="214" y="84" on="1"/>
        <pt x="383" y="68" on="1"/>
        <pt x="447" y="61" on="0"/>
        <pt x="517" y="4" on="0"/>
        <pt x="517" y="-41" on="1"/>
        <pt x="517" y="-80" on="0"/>
        <pt x="475" y="-145" on="0"/>
        <pt x="400" y="-190" on="0"/>
        <pt x="294" y="-215" on="0"/>
        <pt x="229" y="-215" on="1"/>
        <pt x="100" y="-215" on="0"/>
        <pt x="-53" y="-150" on="0"/>
        <pt x="-53" y="-94" on="1"/>
        <pt x="-53" y="-54" on="0"/>
        <pt x="10" y="4" on="0"/>
        <pt x="63" y="17" on="1"/>
        <pt x="53" y="27" on="0"/>
        <pt x="42" y="54" on="0"/>
        <pt x="42" y="70" on="1"/>
        <pt x="42" y="110" on="0"/>
        <pt x="96" y="171" on="0"/>
        <pt x="140" y="184" on="1"/>
        <pt x="106" y="208" on="0"/>
        <pt x="67" y="277" on="0"/>
      </contour>
      <contour>
        <pt x="403" y="344" on="1"/>
        <pt x="403" y="380" on="0"/>
        <pt x="348" y="429" on="0"/>
        <pt x="308" y="429" on="1"/>
        <pt x="260" y="429" on="0"/>
        <pt x="192" y="367" on="0"/>
        <pt x="192" y="324" on="1"/>
        <pt x="192" y="288" on="0"/>
        <pt x="246" y="240" on="0"/>
        <pt x="288" y="240" on="1"/>
        <pt x="334" y="240" on="0"/>
        <pt x="403" y="302" on="0"/>
      </contour>
      <contour>
        <pt x="71" y="-73" on="1"/>
        <pt x="71" y="-100" on="0"/>
        <pt x="160" y="-131" on="0"/>
        <pt x="238" y="-131" on="1"/>
        <pt x="301" y="-131" on="0"/>
        <pt x="377" y="-99" on="0"/>
        <pt x="377" y="-74" on="1"/>
        <pt x="377" y="-64" on="0"/>
        <pt x="357" y="-48" on="0"/>
        <pt x="339" y="-46" on="1"/>
        <pt x="191" y="-32" on="1"/>
        <pt x="176" y="-31" on="0"/>
        <pt x="148" y="-26" on="0"/>
        <pt x="136" y="-22" on="1"/>
        <pt x="107" y="-26" on="0"/>
        <pt x="71" y="-54" on="0"/>
      </contour>
    </TTGlyph>
    <TTGlyph name="gdotaccent" xMin="17" yMin="-217" xMax="620" yMax="747">
      <component glyphName="g" x="0" y="0" flags="0x204"/>
      <component glyphName="dotaccent" x="141" y="0" flags="0x4"/>
    </TTGlyph>
    <TTGlyph name="gdotaccent.alt" xMin="-53" yMin="-215" xMax="642" yMax="747">
      <component glyphName="g.alt" x="0" y="0" flags="0x204"/>
      <component glyphName="dotaccent" x="139" y="0" flags="0x4"/>
    </TTGlyph>
    <TTGlyph name="germandbls" xMin="-2" yMin="-13" xMax="648" yMax="739">
      <contour>
        <pt x="434" y="351" on="1"/>
        <pt x="434" y="339" on="0"/>
        <pt x="452" y="321" on="0"/>
        <pt x="472" y="311" on="1"/>
        <pt x="544" y="276" on="1"/>
        <pt x="593" y="253" on="0"/>
        <pt x="638" y="194" on="0"/>
        <pt x="638" y="154" on="1"/>
        <pt x="638" y="82" on="0"/>
        <pt x="529" y="-13" on="0"/>
        <pt x="445" y="-13" on="1"/>
        <pt x="379" y="-13" on="0"/>
        <pt x="265" y="42" on="0"/>
        <pt x="227" y="92" on="1"/>
        <pt x="308" y="158" on="1"/>
        <pt x="336" y="121" on="0"/>
        <pt x="405" y="83" on="0"/>
        <pt x="442" y="83" on="1"/>
        <pt x="476" y="83" on="0"/>
        <pt x="516" y="114" on="0"/>
        <pt x="516" y="140" on="1"/>
        <pt x="516" y="156" on="0"/>
        <pt x="492" y="182" on="0"/>
        <pt x="463" y="195" on="1"/>
        <pt x="387" y="231" on="1"/>
        <pt x="347" y="250" on="0"/>
        <pt x="308" y="301" on="0"/>
        <pt x="308" y="335" on="1"/>
        <pt x="308" y="386" on="0"/>
        <pt x="373" y="443" on="0"/>
        <pt x="449" y="482" on="0"/>
        <pt x="514" y="520" on="0"/>
        <pt x="514" y="553" on="1"/>
        <pt x="514" y="584" on="0"/>
        <pt x="444" y="629" on="0"/>
        <pt x="394" y="629" on="1"/>
        <pt x="331" y="629" on="0"/>
        <pt x="252" y="557" on="0"/>
        <pt x="237" y="488" on="1"/>
        <pt x="132" y="0" on="1"/>
        <pt x="-2" y="0" on="1"/>
        <pt x="106" y="505" on="1"/>
        <pt x="130" y="617" on="0"/>
        <pt x="281" y="739" on="0"/>
        <pt x="396" y="739" on="1"/>
        <pt x="450" y="739" on="0"/>
        <pt x="543" y="714" on="0"/>
        <pt x="610" y="669" on="0"/>
        <pt x="648" y="607" on="0"/>
        <pt x="648" y="571" on="1"/>
        <pt x="648" y="512" on="0"/>
        <pt x="581" y="446" on="0"/>
        <pt x="501" y="406" on="0"/>
        <pt x="434" y="375" on="0"/>
      </contour>
    </TTGlyph>
    <TTGlyph name="grave" xMin="163" yMin="608" xMax="403" yMax="738">
      <contour>
        <pt x="317" y="738" on="1"/>
        <pt x="403" y="608" on="1"/>
        <pt x="295" y="608" on="1"/>
        <pt x="163" y="738" on="1"/>
      </contour>
    </TTGlyph>
    <TTGlyph name="greater" xMin="44" yMin="60" xMax="496" yMax="636">
      <contour>
        <pt x="219" y="636" on="1"/>
        <pt x="496" y="348" on="1"/>
        <pt x="97" y="60" on="1"/>
        <pt x="44" y="145" on="1"/>
        <pt x="341" y="353" on="1"/>
        <pt x="134" y="559" on="1"/>
      </contour>
    </TTGlyph>
    <TTGlyph name="guillemotleft" xMin="18" yMin="0" xMax="698" yMax="521">
      <component glyphName="guilsinglleft" x="0" y="0" flags="0x4"/>
      <component glyphName="guilsinglleft" x="247" y="0" flags="0x4"/>
    </TTGlyph>
    <TTGlyph name="guillemotright" xMin="-20" yMin="0" xMax="661" yMax="521">
      <contour>
        <pt x="228" y="0" on="1"/>
        <pt x="517" y="262" on="1"/>
        <pt x="341" y="521" on="1"/>
        <pt x="478" y="521" on="1"/>
        <pt x="661" y="261" on="1"/>
        <pt x="367" y="0" on="1"/>
      </contour>
      <contour>
        <pt x="-20" y="0" on="1"/>
        <pt x="269" y="262" on="1"/>
        <pt x="93" y="521" on="1"/>
        <pt x="230" y="521" on="1"/>
        <pt x="413" y="261" on="1"/>
        <pt x="119" y="0" on="1"/>
      </contour>
    </TTGlyph>
    <TTGlyph name="guilsinglleft" xMin="18" yMin="0" xMax="451" yMax="521">
      <contour>
        <pt x="451" y="521" on="1"/>
        <pt x="162" y="259" on="1"/>
        <pt x="338" y="0" on="1"/>
        <pt x="201" y="0" on="1"/>
        <pt x="18" y="260" on="1"/>
        <pt x="312" y="521" on="1"/>
      </contour>
    </TTGlyph>
    <TTGlyph name="guilsinglright" xMin="-20" yMin="0" xMax="413" yMax="521">
      <contour>
        <pt x="-20" y="0" on="1"/>
        <pt x="269" y="262" on="1"/>
        <pt x="93" y="521" on="1"/>
        <pt x="230" y="521" on="1"/>
        <pt x="413" y="261" on="1"/>
        <pt x="119" y="0" on="1"/>
      </contour>
    </TTGlyph>
    <TTGlyph name="h" xMin="-2" yMin="0" xMax="549" yMax="730">
      <contour>
        <pt x="-2" y="0" on="1"/>
        <pt x="147" y="700" on="1"/>
        <pt x="287" y="730" on="1"/>
        <pt x="235" y="484" on="1"/>
        <pt x="266" y="506" on="0"/>
        <pt x="338" y="529" on="0"/>
        <pt x="376" y="529" on="1"/>
        <pt x="422" y="529" on="0"/>
        <pt x="494" y="496" on="0"/>
        <pt x="538" y="438" on="0"/>
        <pt x="554" y="358" on="0"/>
        <pt x="544" y="311" on="1"/>
        <pt x="478" y="0" on="1"/>
        <pt x="343" y="0" on="1"/>
        <pt x="407" y="298" on="1"/>
        <pt x="417" y="349" on="0"/>
        <pt x="368" y="413" on="0"/>
        <pt x="319" y="413" on="1"/>
        <pt x="288" y="413" on="0"/>
        <pt x="232" y="389" on="0"/>
        <pt x="210" y="366" on="1"/>
        <pt x="132" y="0" on="1"/>
      </contour>
    </TTGlyph>
    <TTGlyph name="hbar" xMin="-2" yMin="0" xMax="549" yMax="730">
      <contour>
        <pt x="-2" y="0" on="1"/>
        <pt x="121" y="579" on="1"/>
        <pt x="64" y="579" on="1"/>
        <pt x="82" y="663" on="1"/>
        <pt x="139" y="663" on="1"/>
        <pt x="147" y="700" on="1"/>
        <pt x="287" y="730" on="1"/>
        <pt x="273" y="663" on="1"/>
        <pt x="408" y="663" on="1"/>
        <pt x="390" y="579" on="1"/>
        <pt x="255" y="579" on="1"/>
        <pt x="235" y="484" on="1"/>
        <pt x="266" y="506" on="0"/>
        <pt x="338" y="529" on="0"/>
        <pt x="376" y="529" on="1"/>
        <pt x="422" y="529" on="0"/>
        <pt x="494" y="496" on="0"/>
        <pt x="538" y="438" on="0"/>
        <pt x="554" y="358" on="0"/>
        <pt x="544" y="311" on="1"/>
        <pt x="478" y="0" on="1"/>
        <pt x="343" y="0" on="1"/>
        <pt x="407" y="298" on="1"/>
        <pt x="417" y="349" on="0"/>
        <pt x="368" y="413" on="0"/>
        <pt x="319" y="413" on="1"/>
        <pt x="288" y="413" on="0"/>
        <pt x="232" y="389" on="0"/>
        <pt x="210" y="366" on="1"/>
        <pt x="132" y="0" on="1"/>
      </contour>
    </TTGlyph>
    <TTGlyph name="hcircumflex" xMin="-2" yMin="0" xMax="549" yMax="920">
      <contour>
        <pt x="304" y="784" on="1"/>
        <pt x="248" y="858" on="1"/>
        <pt x="160" y="784" on="1"/>
        <pt x="47" y="784" on="1"/>
        <pt x="189" y="920" on="1"/>
        <pt x="326" y="920" on="1"/>
        <pt x="410" y="784" on="1"/>
      </contour>
      <contour>
        <pt x="-2" y="0" on="1"/>
        <pt x="147" y="700" on="1"/>
        <pt x="280" y="700" on="1"/>
        <pt x="234" y="484" on="1"/>
        <pt x="265" y="506" on="0"/>
        <pt x="337" y="529" on="0"/>
        <pt x="376" y="529" on="1"/>
        <pt x="422" y="529" on="0"/>
        <pt x="494" y="496" on="0"/>
        <pt x="538" y="438" on="0"/>
        <pt x="554" y="358" on="0"/>
        <pt x="544" y="311" on="1"/>
        <pt x="478" y="0" on="1"/>
        <pt x="343" y="0" on="1"/>
        <pt x="407" y="298" on="1"/>
        <pt x="417" y="349" on="0"/>
        <pt x="368" y="413" on="0"/>
        <pt x="319" y="413" on="1"/>
        <pt x="288" y="413" on="0"/>
        <pt x="231" y="389" on="0"/>
        <pt x="209" y="365" on="1"/>
        <pt x="132" y="0" on="1"/>
      </contour>
    </TTGlyph>
    <TTGlyph name="hungarumlaut" xMin="159" yMin="610" xMax="623" yMax="737">
      <contour>
        <pt x="285" y="737" on="1"/>
        <pt x="419" y="737" on="1"/>
        <pt x="263" y="610" on="1"/>
        <pt x="159" y="610" on="1"/>
      </contour>
      <contour>
        <pt x="487" y="737" on="1"/>
        <pt x="623" y="737" on="1"/>
        <pt x="458" y="610" on="1"/>
        <pt x="361" y="610" on="1"/>
      </contour>
    </TTGlyph>
    <TTGlyph name="hyphen" xMin="33" yMin="227" xMax="427" yMax="343">
      <contour>
        <pt x="58" y="343" on="1"/>
        <pt x="427" y="343" on="1"/>
        <pt x="402" y="227" on="1"/>
        <pt x="33" y="227" on="1"/>
      </contour>
    </TTGlyph>
    <TTGlyph name="hyphen.cap" xMin="37" yMin="292" xMax="431" yMax="408">
      <component glyphName="hyphen" x="4" y="65" flags="0x4"/>
    </TTGlyph>
    <TTGlyph name="i" xMin="-2" yMin="0" xMax="282" yMax="739">
      <contour>
        <pt x="196" y="583" on="1"/>
        <pt x="168" y="583" on="0"/>
        <pt x="128" y="623" on="0"/>
        <pt x="128" y="652" on="1"/>
        <pt x="128" y="687" on="0"/>
        <pt x="180" y="739" on="0"/>
        <pt x="214" y="739" on="1"/>
        <pt x="242" y="739" on="0"/>
        <pt x="282" y="699" on="0"/>
        <pt x="282" y="671" on="1"/>
        <pt x="282" y="636" on="0"/>
        <pt x="230" y="583" on="0"/>
      </contour>
      <contour>
        <pt x="242" y="521" on="1"/>
        <pt x="132" y="0" on="1"/>
        <pt x="-2" y="0" on="1"/>
        <pt x="108" y="521" on="1"/>
      </contour>
    </TTGlyph>
    <TTGlyph name="iacute" xMin="-2" yMin="0" xMax="395" yMax="738">
      <component glyphName="dotlessi" x="0" y="0" flags="0x204"/>
      <component glyphName="acute" x="-101" y="0" flags="0x4"/>
    </TTGlyph>
    <TTGlyph name="ibreve" xMin="-2" yMin="0" xMax="387" yMax="760">
      <component glyphName="dotlessi" x="0" y="0" flags="0x204"/>
      <component glyphName="breve" x="-134" y="0" flags="0x4"/>
    </TTGlyph>
    <TTGlyph name="icircumflex" xMin="-2" yMin="0" xMax="374" yMax="741">
      <component glyphName="dotlessi" x="0" y="0" flags="0x204"/>
      <component glyphName="circumflex" x="-135" y="0" flags="0x4"/>
    </TTGlyph>
    <TTGlyph name="idieresis" xMin="-2" yMin="0" xMax="387" yMax="747">
      <component glyphName="dotlessi" x="0" y="0" flags="0x204"/>
      <component glyphName="dieresis" x="-169" y="0" flags="0x4"/>
    </TTGlyph>
    <TTGlyph name="idotaccent" xMin="-2" yMin="0" xMax="282" yMax="739">
      <component glyphName="i" x="0" y="0" flags="0x4"/>
    </TTGlyph>
    <TTGlyph name="igrave" xMin="-2" yMin="0" xMax="248" yMax="738">
      <component glyphName="dotlessi" x="0" y="0" flags="0x204"/>
      <component glyphName="grave" x="-155" y="0" flags="0x4"/>
    </TTGlyph>
    <TTGlyph name="ij" xMin="-2" yMin="-215" xMax="522" yMax="739">
      <component glyphName="i" x="0" y="0" flags="0x4"/>
      <component glyphName="j" x="240" y="0" flags="0x4"/>
    </TTGlyph>
    <TTGlyph name="imacron" xMin="-2" yMin="0" xMax="376" yMax="713">
      <component glyphName="dotlessi" x="0" y="0" flags="0x204"/>
      <component glyphName="macron" x="-134" y="0" flags="0x4"/>
    </TTGlyph>
    <TTGlyph name="iogonek" xMin="-63" yMin="-221" xMax="282" yMax="739">
      <contour>
        <pt x="196" y="583" on="1"/>
        <pt x="168" y="583" on="0"/>
        <pt x="128" y="623" on="0"/>
        <pt x="128" y="652" on="1"/>
        <pt x="128" y="687" on="0"/>
        <pt x="180" y="739" on="0"/>
        <pt x="214" y="739" on="1"/>
        <pt x="242" y="739" on="0"/>
        <pt x="282" y="699" on="0"/>
        <pt x="282" y="671" on="1"/>
        <pt x="282" y="636" on="0"/>
        <pt x="230" y="583" on="0"/>
      </contour>
      <contour>
        <pt x="132" y="0" on="1"/>
        <pt x="75" y="-30" on="0"/>
        <pt x="20" y="-87" on="0"/>
        <pt x="20" y="-115" on="1"/>
        <pt x="20" y="-131" on="0"/>
        <pt x="43" y="-150" on="0"/>
        <pt x="62" y="-150" on="1"/>
        <pt x="72" y="-150" on="0"/>
        <pt x="93" y="-144" on="0"/>
        <pt x="102" y="-139" on="1"/>
        <pt x="108" y="-200" on="1"/>
        <pt x="89" y="-210" on="0"/>
        <pt x="46" y="-221" on="0"/>
        <pt x="25" y="-221" on="1"/>
        <pt x="-15" y="-221" on="0"/>
        <pt x="-63" y="-182" on="0"/>
        <pt x="-63" y="-148" on="1"/>
        <pt x="-63" y="-108" on="0"/>
        <pt x="-4" y="-34" on="0"/>
        <pt x="54" y="0" on="1"/>
        <pt x="-2" y="0" on="1"/>
        <pt x="108" y="521" on="1"/>
        <pt x="242" y="521" on="1"/>
      </contour>
    </TTGlyph>
    <TTGlyph name="itilde" xMin="-2" yMin="0" xMax="407" yMax="742">
      <component glyphName="dotlessi" x="0" y="0" flags="0x204"/>
      <component glyphName="tilde" x="-130" y="0" flags="0x4"/>
    </TTGlyph>
    <TTGlyph name="j" xMin="-146" yMin="-215" xMax="282" yMax="739">
      <contour>
        <pt x="196" y="583" on="1"/>
        <pt x="168" y="583" on="0"/>
        <pt x="128" y="623" on="0"/>
        <pt x="128" y="652" on="1"/>
        <pt x="128" y="687" on="0"/>
        <pt x="180" y="739" on="0"/>
        <pt x="214" y="739" on="1"/>
        <pt x="242" y="739" on="0"/>
        <pt x="282" y="699" on="0"/>
        <pt x="282" y="671" on="1"/>
        <pt x="282" y="636" on="0"/>
        <pt x="230" y="583" on="0"/>
      </contour>
      <contour>
        <pt x="-65" y="-215" on="1"/>
        <pt x="-84" y="-215" on="0"/>
        <pt x="-133" y="-207" on="0"/>
        <pt x="-146" y="-202" on="1"/>
        <pt x="-124" y="-98" on="1"/>
        <pt x="-113" y="-101" on="0"/>
        <pt x="-90" y="-104" on="0"/>
        <pt x="-73" y="-104" on="1"/>
        <pt x="-48" y="-104" on="0"/>
        <pt x="-19" y="-79" on="0"/>
        <pt x="-14" y="-54" on="1"/>
        <pt x="108" y="521" on="1"/>
        <pt x="243" y="521" on="1"/>
        <pt x="117" y="-68" on="1"/>
        <pt x="102" y="-138" on="0"/>
        <pt x="7" y="-215" on="0"/>
      </contour>
    </TTGlyph>
    <TTGlyph name="jcircumflex" xMin="-146" yMin="-215" xMax="374" yMax="741">
      <component glyphName="dotlessj" x="0" y="0" flags="0x204"/>
      <component glyphName="circumflex" x="-135" y="0" flags="0x4"/>
    </TTGlyph>
    <TTGlyph name="k" xMin="-2" yMin="0" xMax="618" yMax="730">
      <contour>
        <pt x="-2" y="0" on="1"/>
        <pt x="147" y="700" on="1"/>
        <pt x="287" y="730" on="1"/>
        <pt x="195" y="296" on="1"/>
        <pt x="452" y="521" on="1"/>
        <pt x="618" y="521" on="1"/>
        <pt x="312" y="261" on="1"/>
        <pt x="520" y="0" on="1"/>
        <pt x="357" y="0" on="1"/>
        <pt x="181" y="231" on="1"/>
        <pt x="132" y="0" on="1"/>
      </contour>
    </TTGlyph>
    <TTGlyph name="kcommaaccent" xMin="-2" yMin="-286" xMax="618" yMax="730">
      <component glyphName="k" x="0" y="0" flags="0x204"/>
      <component glyphName="commaaccent" x="157" y="0" flags="0x4"/>
    </TTGlyph>
    <TTGlyph name="kgreenlandic" xMin="-2" yMin="0" xMax="619" yMax="521">
      <contour>
        <pt x="-2" y="0" on="1"/>
        <pt x="109" y="521" on="1"/>
        <pt x="242" y="521" on="1"/>
        <pt x="194" y="295" on="1"/>
        <pt x="453" y="521" on="1"/>
        <pt x="619" y="521" on="1"/>
        <pt x="312" y="260" on="1"/>
        <pt x="517" y="0" on="1"/>
        <pt x="355" y="0" on="1"/>
        <pt x="181" y="230" on="1"/>
        <pt x="132" y="0" on="1"/>
      </contour>
    </TTGlyph>
    <TTGlyph name="l" xMin="-2" yMin="0" xMax="287" yMax="730">
      <contour>
        <pt x="287" y="730" on="1"/>
        <pt x="132" y="0" on="1"/>
        <pt x="-2" y="0" on="1"/>
        <pt x="147" y="700" on="1"/>
      </contour>
    </TTGlyph>
    <TTGlyph name="lacute" xMin="-2" yMin="0" xMax="434" yMax="917">
      <contour>
        <pt x="279" y="917" on="1"/>
        <pt x="434" y="917" on="1"/>
        <pt x="274" y="787" on="1"/>
        <pt x="162" y="787" on="1"/>
      </contour>
      <contour>
        <pt x="-2" y="0" on="1"/>
        <pt x="147" y="700" on="1"/>
        <pt x="280" y="700" on="1"/>
        <pt x="132" y="0" on="1"/>
      </contour>
    </TTGlyph>
    <TTGlyph name="lcaron" xMin="-2" yMin="0" xMax="501" yMax="730">
      <component glyphName="l" x="0" y="0" flags="0x4"/>
      <component glyphName="caronSlovak" x="170" y="0" flags="0x4"/>
    </TTGlyph>
    <TTGlyph name="lcommaaccent" xMin="-107" yMin="-286" xMax="287" yMax="730">
      <component glyphName="l" x="0" y="0" flags="0x204"/>
      <component glyphName="commaaccent" x="-8" y="0" flags="0x4"/>
    </TTGlyph>
    <TTGlyph name="ldot" xMin="-2" yMin="0" xMax="414" yMax="730">
      <component glyphName="l" x="0" y="0" flags="0x4"/>
      <component glyphName="dotaccent" x="108" y="-317" flags="0x4"/>
    </TTGlyph>
    <TTGlyph name="less" xMin="66" yMin="60" xMax="518" yMax="636">
      <contour>
        <pt x="343" y="60" on="1"/>
        <pt x="66" y="348" on="1"/>
        <pt x="465" y="636" on="1"/>
        <pt x="518" y="551" on="1"/>
        <pt x="221" y="343" on="1"/>
        <pt x="428" y="137" on="1"/>
      </contour>
    </TTGlyph>
    <TTGlyph name="lslash" xMin="-2" yMin="0" xMax="338" yMax="730">
      <contour>
        <pt x="25" y="334" on="1"/>
        <pt x="104" y="383" on="1"/>
        <pt x="171" y="700" on="1"/>
        <pt x="311" y="730" on="1"/>
        <pt x="258" y="480" on="1"/>
        <pt x="338" y="530" on="1"/>
        <pt x="311" y="405" on="1"/>
        <pt x="231" y="355" on="1"/>
        <pt x="156" y="0" on="1"/>
        <pt x="22" y="0" on="1"/>
        <pt x="77" y="258" on="1"/>
        <pt x="-2" y="209" on="1"/>
      </contour>
    </TTGlyph>
    <TTGlyph name="m" xMin="-2" yMin="0" xMax="856" yMax="529">
      <contour>
        <pt x="-2" y="0" on="1"/>
        <pt x="108" y="521" on="1"/>
        <pt x="242" y="521" on="1"/>
        <pt x="233" y="480" on="1"/>
        <pt x="264" y="504" on="0"/>
        <pt x="331" y="529" on="0"/>
        <pt x="368" y="529" on="1"/>
        <pt x="419" y="529" on="0"/>
        <pt x="493" y="484" on="0"/>
        <pt x="512" y="445" on="1"/>
        <pt x="551" y="486" on="0"/>
        <pt x="643" y="529" on="0"/>
        <pt x="694" y="529" on="1"/>
        <pt x="737" y="529" on="0"/>
        <pt x="805" y="496" on="0"/>
        <pt x="846" y="439" on="0"/>
        <pt x="860" y="359" on="0"/>
        <pt x="850" y="313" on="1"/>
        <pt x="783" y="0" on="1"/>
        <pt x="649" y="0" on="1"/>
        <pt x="713" y="301" on="1"/>
        <pt x="723" y="350" on="0"/>
        <pt x="680" y="413" on="0"/>
        <pt x="636" y="413" on="1"/>
        <pt x="608" y="413" on="0"/>
        <pt x="554" y="386" on="0"/>
        <pt x="529" y="358" on="1"/>
        <pt x="529" y="347" on="0"/>
        <pt x="526" y="324" on="0"/>
        <pt x="524" y="313" on="1"/>
        <pt x="457" y="0" on="1"/>
        <pt x="323" y="0" on="1"/>
        <pt x="387" y="299" on="1"/>
        <pt x="397" y="350" on="0"/>
        <pt x="355" y="413" on="0"/>
        <pt x="310" y="413" on="1"/>
        <pt x="282" y="413" on="0"/>
        <pt x="232" y="389" on="0"/>
        <pt x="209" y="365" on="1"/>
        <pt x="132" y="0" on="1"/>
      </contour>
    </TTGlyph>
    <TTGlyph name="macron" xMin="177" yMin="623" xMax="510" yMax="713">
      <contour>
        <pt x="510" y="713" on="1"/>
        <pt x="491" y="623" on="1"/>
        <pt x="177" y="623" on="1"/>
        <pt x="196" y="713" on="1"/>
      </contour>
    </TTGlyph>
    <TTGlyph name="minus" xMin="55" yMin="306" xMax="526" yMax="412">
      <contour>
        <pt x="526" y="412" on="1"/>
        <pt x="504" y="306" on="1"/>
        <pt x="55" y="306" on="1"/>
        <pt x="78" y="412" on="1"/>
      </contour>
    </TTGlyph>
    <TTGlyph name="multiply" xMin="42" yMin="139" xMax="530" yMax="576">
      <contour>
        <pt x="95" y="139" on="1"/>
        <pt x="42" y="207" on="1"/>
        <pt x="222" y="360" on="1"/>
        <pt x="107" y="513" on="1"/>
        <pt x="182" y="576" on="1"/>
        <pt x="297" y="424" on="1"/>
        <pt x="477" y="576" on="1"/>
        <pt x="530" y="507" on="1"/>
        <pt x="350" y="354" on="1"/>
        <pt x="464" y="203" on="1"/>
        <pt x="388" y="141" on="1"/>
        <pt x="275" y="291" on="1"/>
      </contour>
    </TTGlyph>
    <TTGlyph name="n" xMin="-2" yMin="0" xMax="549" yMax="529">
      <contour>
        <pt x="-2" y="0" on="1"/>
        <pt x="108" y="521" on="1"/>
        <pt x="242" y="521" on="1"/>
        <pt x="234" y="484" on="1"/>
        <pt x="265" y="506" on="0"/>
        <pt x="337" y="529" on="0"/>
        <pt x="376" y="529" on="1"/>
        <pt x="422" y="529" on="0"/>
        <pt x="494" y="496" on="0"/>
        <pt x="538" y="438" on="0"/>
        <pt x="554" y="358" on="0"/>
        <pt x="544" y="311" on="1"/>
        <pt x="478" y="0" on="1"/>
        <pt x="343" y="0" on="1"/>
        <pt x="407" y="298" on="1"/>
        <pt x="417" y="349" on="0"/>
        <pt x="368" y="413" on="0"/>
        <pt x="319" y="413" on="1"/>
        <pt x="288" y="413" on="0"/>
        <pt x="231" y="389" on="0"/>
        <pt x="209" y="365" on="1"/>
        <pt x="132" y="0" on="1"/>
      </contour>
    </TTGlyph>
    <TTGlyph name="nacute" xMin="-2" yMin="0" xMax="567" yMax="738">
      <component glyphName="n" x="0" y="0" flags="0x204"/>
      <component glyphName="acute" x="71" y="0" flags="0x4"/>
    </TTGlyph>
    <TTGlyph name="ncaron" xMin="-2" yMin="0" xMax="575" yMax="741">
      <component glyphName="n" x="0" y="0" flags="0x204"/>
      <component glyphName="caron" x="38" y="0" flags="0x4"/>
    </TTGlyph>
    <TTGlyph name="ncommaaccent" xMin="-2" yMin="-286" xMax="549" yMax="529">
      <component glyphName="n" x="0" y="0" flags="0x204"/>
      <component glyphName="commaaccent" x="164" y="0" flags="0x4"/>
    </TTGlyph>
    <TTGlyph name="nine" xMin="10" yMin="-11" xMax="617" yMax="707">
      <contour>
        <pt x="354" y="707" on="1"/>
        <pt x="473" y="707" on="0"/>
        <pt x="617" y="554" on="0"/>
        <pt x="617" y="426" on="1"/>
        <pt x="617" y="337" on="0"/>
        <pt x="554" y="177" on="0"/>
        <pt x="446" y="59" on="0"/>
        <pt x="300" y="-11" on="0"/>
        <pt x="219" y="-11" on="1"/>
        <pt x="159" y="-11" on="0"/>
        <pt x="48" y="32" on="0"/>
        <pt x="10" y="70" on="1"/>
        <pt x="101" y="160" on="1"/>
        <pt x="128" y="134" on="0"/>
        <pt x="197" y="107" on="0"/>
        <pt x="240" y="107" on="1"/>
        <pt x="281" y="107" on="0"/>
        <pt x="357" y="141" on="0"/>
        <pt x="418" y="202" on="0"/>
        <pt x="463" y="286" on="0"/>
        <pt x="474" y="335" on="1"/>
        <pt x="435" y="301" on="0"/>
        <pt x="336" y="264" on="0"/>
        <pt x="285" y="264" on="1"/>
        <pt x="194" y="264" on="0"/>
        <pt x="75" y="371" on="0"/>
        <pt x="75" y="454" on="1"/>
        <pt x="75" y="506" on="0"/>
        <pt x="120" y="598" on="0"/>
        <pt x="195" y="667" on="0"/>
        <pt x="297" y="707" on="0"/>
      </contour>
      <contour>
        <pt x="323" y="369" on="1"/>
        <pt x="366" y="369" on="0"/>
        <pt x="448" y="403" on="0"/>
        <pt x="485" y="437" on="1"/>
        <pt x="484" y="508" on="0"/>
        <pt x="407" y="591" on="0"/>
        <pt x="345" y="591" on="1"/>
        <pt x="288" y="591" on="0"/>
        <pt x="207" y="520" on="0"/>
        <pt x="207" y="470" on="1"/>
        <pt x="207" y="426" on="0"/>
        <pt x="272" y="369" on="0"/>
      </contour>
    </TTGlyph>
    <TTGlyph name="notequal" xMin="6" yMin="103" xMax="569" yMax="602">
      <contour>
        <pt x="6" y="103" on="1"/>
        <pt x="97" y="205" on="1"/>
        <pt x="33" y="205" on="1"/>
        <pt x="56" y="311" on="1"/>
        <pt x="192" y="311" on="1"/>
        <pt x="268" y="396" on="1"/>
        <pt x="74" y="396" on="1"/>
        <pt x="97" y="502" on="1"/>
        <pt x="363" y="502" on="1"/>
        <pt x="453" y="602" on="1"/>
        <pt x="569" y="602" on="1"/>
        <pt x="479" y="502" on="1"/>
        <pt x="545" y="502" on="1"/>
        <pt x="523" y="396" on="1"/>
        <pt x="384" y="396" on="1"/>
        <pt x="308" y="311" on="1"/>
        <pt x="504" y="311" on="1"/>
        <pt x="482" y="205" on="1"/>
        <pt x="213" y="205" on="1"/>
        <pt x="122" y="103" on="1"/>
      </contour>
    </TTGlyph>
    <TTGlyph name="ntilde" xMin="-2" yMin="0" xMax="578" yMax="742">
      <component glyphName="n" x="0" y="0" flags="0x204"/>
      <component glyphName="tilde" x="41" y="0" flags="0x4"/>
    </TTGlyph>
    <TTGlyph name="numbersign" xMin="9" yMin="0" xMax="743" yMax="700">
      <contour>
        <pt x="9" y="0" on="1"/>
        <pt x="104" y="194" on="1"/>
        <pt x="9" y="194" on="1"/>
        <pt x="30" y="292" on="1"/>
        <pt x="152" y="292" on="1"/>
        <pt x="210" y="408" on="1"/>
        <pt x="104" y="408" on="1"/>
        <pt x="125" y="506" on="1"/>
        <pt x="258" y="506" on="1"/>
        <pt x="353" y="700" on="1"/>
        <pt x="475" y="700" on="1"/>
        <pt x="379" y="506" on="1"/>
        <pt x="527" y="506" on="1"/>
        <pt x="622" y="700" on="1"/>
        <pt x="743" y="700" on="1"/>
        <pt x="647" y="506" on="1"/>
        <pt x="742" y="506" on="1"/>
        <pt x="721" y="408" on="1"/>
        <pt x="599" y="408" on="1"/>
        <pt x="542" y="292" on="1"/>
        <pt x="647" y="292" on="1"/>
        <pt x="627" y="194" on="1"/>
        <pt x="494" y="194" on="1"/>
        <pt x="398" y="0" on="1"/>
        <pt x="278" y="0" on="1"/>
        <pt x="373" y="194" on="1"/>
        <pt x="226" y="194" on="1"/>
        <pt x="130" y="0" on="1"/>
      </contour>
      <contour>
        <pt x="274" y="292" on="1"/>
        <pt x="421" y="292" on="1"/>
        <pt x="479" y="408" on="1"/>
        <pt x="331" y="408" on="1"/>
      </contour>
    </TTGlyph>
    <TTGlyph name="o" xMin="30" yMin="-10" xMax="577" yMax="531">
      <contour>
        <pt x="30" y="241" on="1"/>
        <pt x="30" y="300" on="0"/>
        <pt x="76" y="406" on="0"/>
        <pt x="155" y="485" on="0"/>
        <pt x="262" y="531" on="0"/>
        <pt x="321" y="531" on="1"/>
        <pt x="375" y="531" on="0"/>
        <pt x="470" y="493" on="0"/>
        <pt x="538" y="426" on="0"/>
        <pt x="577" y="334" on="0"/>
        <pt x="577" y="281" on="1"/>
        <pt x="577" y="222" on="0"/>
        <pt x="530" y="116" on="0"/>
        <pt x="451" y="37" on="0"/>
        <pt x="345" y="-10" on="0"/>
        <pt x="286" y="-10" on="1"/>
        <pt x="232" y="-10" on="0"/>
        <pt x="137" y="28" on="0"/>
        <pt x="69" y="95" on="0"/>
        <pt x="30" y="188" on="0"/>
      </contour>
      <contour>
        <pt x="292" y="109" on="1"/>
        <pt x="323" y="109" on="0"/>
        <pt x="379" y="135" on="0"/>
        <pt x="421" y="180" on="0"/>
        <pt x="445" y="241" on="0"/>
        <pt x="445" y="275" on="1"/>
        <pt x="445" y="334" on="0"/>
        <pt x="371" y="412" on="0"/>
        <pt x="314" y="412" on="1"/>
        <pt x="283" y="412" on="0"/>
        <pt x="227" y="386" on="0"/>
        <pt x="186" y="341" on="0"/>
        <pt x="162" y="281" on="0"/>
        <pt x="162" y="247" on="1"/>
        <pt x="162" y="187" on="0"/>
        <pt x="236" y="109" on="0"/>
      </contour>
    </TTGlyph>
    <TTGlyph name="oacute" xMin="30" yMin="-10" xMax="577" yMax="738">
      <component glyphName="o" x="0" y="0" flags="0x204"/>
      <component glyphName="acute" x="54" y="0" flags="0x4"/>
    </TTGlyph>
    <TTGlyph name="obreve" xMin="30" yMin="-10" xMax="577" yMax="760">
      <component glyphName="o" x="0" y="0" flags="0x204"/>
      <component glyphName="breve" x="21" y="0" flags="0x4"/>
    </TTGlyph>
    <TTGlyph name="ocircumflex" xMin="30" yMin="-10" xMax="577" yMax="741">
      <component glyphName="o" x="0" y="0" flags="0x204"/>
      <component glyphName="circumflex" x="19" y="0" flags="0x4"/>
    </TTGlyph>
    <TTGlyph name="odieresis" xMin="30" yMin="-10" xMax="577" yMax="747">
      <component glyphName="o" x="0" y="0" flags="0x204"/>
      <component glyphName="dieresis" x="-15" y="0" flags="0x4"/>
    </TTGlyph>
    <TTGlyph name="oe" xMin="30" yMin="-11" xMax="964" yMax="531">
      <contour>
        <pt x="30" y="241" on="1"/>
        <pt x="30" y="300" on="0"/>
        <pt x="76" y="406" on="0"/>
        <pt x="155" y="485" on="0"/>
        <pt x="262" y="531" on="0"/>
        <pt x="321" y="531" on="1"/>
        <pt x="384" y="531" on="0"/>
        <pt x="489" y="477" on="0"/>
        <pt x="523" y="431" on="1"/>
        <pt x="560" y="476" on="0"/>
        <pt x="668" y="529" on="0"/>
        <pt x="728" y="529" on="1"/>
        <pt x="779" y="529" on="0"/>
        <pt x="867" y="491" on="0"/>
        <pt x="929" y="425" on="0"/>
        <pt x="964" y="332" on="0"/>
        <pt x="964" y="278" on="1"/>
        <pt x="964" y="267" on="0"/>
        <pt x="962" y="242" on="0"/>
        <pt x="958" y="215" on="1"/>
        <pt x="579" y="215" on="1"/>
        <pt x="588" y="165" on="0"/>
        <pt x="664" y="103" on="0"/>
        <pt x="720" y="103" on="1"/>
        <pt x="753" y="103" on="0"/>
        <pt x="811" y="123" on="0"/>
        <pt x="833" y="141" on="1"/>
        <pt x="908" y="54" on="1"/>
        <pt x="860" y="20" on="0"/>
        <pt x="765" y="-11" on="0"/>
        <pt x="709" y="-11" on="1"/>
        <pt x="642" y="-11" on="0"/>
        <pt x="533" y="44" on="0"/>
        <pt x="499" y="90" on="1"/>
        <pt x="460" y="44" on="0"/>
        <pt x="349" y="-10" on="0"/>
        <pt x="286" y="-10" on="1"/>
        <pt x="232" y="-10" on="0"/>
        <pt x="137" y="28" on="0"/>
        <pt x="69" y="95" on="0"/>
        <pt x="30" y="188" on="0"/>
      </contour>
      <contour>
        <pt x="721" y="415" on="1"/>
        <pt x="676" y="415" on="0"/>
        <pt x="604" y="358" on="0"/>
        <pt x="588" y="312" on="1"/>
        <pt x="838" y="312" on="1"/>
        <pt x="829" y="358" on="0"/>
        <pt x="766" y="415" on="0"/>
      </contour>
      <contour>
        <pt x="292" y="109" on="1"/>
        <pt x="323" y="109" on="0"/>
        <pt x="379" y="135" on="0"/>
        <pt x="421" y="180" on="0"/>
        <pt x="445" y="241" on="0"/>
        <pt x="445" y="275" on="1"/>
        <pt x="445" y="334" on="0"/>
        <pt x="371" y="412" on="0"/>
        <pt x="314" y="412" on="1"/>
        <pt x="283" y="412" on="0"/>
        <pt x="227" y="386" on="0"/>
        <pt x="186" y="341" on="0"/>
        <pt x="162" y="281" on="0"/>
        <pt x="162" y="247" on="1"/>
        <pt x="162" y="187" on="0"/>
        <pt x="236" y="109" on="0"/>
      </contour>
    </TTGlyph>
    <TTGlyph name="ogonek" xMin="70" yMin="-221" xMax="265" yMax="21">
      <contour>
        <pt x="265" y="0" on="1"/>
        <pt x="208" y="-30" on="0"/>
        <pt x="153" y="-87" on="0"/>
        <pt x="153" y="-115" on="1"/>
        <pt x="153" y="-131" on="0"/>
        <pt x="176" y="-150" on="0"/>
        <pt x="195" y="-150" on="1"/>
        <pt x="205" y="-150" on="0"/>
        <pt x="226" y="-144" on="0"/>
        <pt x="235" y="-139" on="1"/>
        <pt x="241" y="-200" on="1"/>
        <pt x="222" y="-210" on="0"/>
        <pt x="179" y="-221" on="0"/>
        <pt x="158" y="-221" on="1"/>
        <pt x="118" y="-221" on="0"/>
        <pt x="70" y="-182" on="0"/>
        <pt x="70" y="-148" on="1"/>
        <pt x="70" y="-101" on="0"/>
        <pt x="148" y="-17" on="0"/>
        <pt x="226" y="21" on="1"/>
      </contour>
    </TTGlyph>
    <TTGlyph name="ograve" xMin="30" yMin="-10" xMax="577" yMax="738">
      <component glyphName="o" x="0" y="0" flags="0x204"/>
      <component glyphName="grave" x="0" y="0" flags="0x4"/>
    </TTGlyph>
    <TTGlyph name="ohungarumlaut" xMin="30" yMin="-10" xMax="653" yMax="737">
      <component glyphName="o" x="0" y="0" flags="0x204"/>
      <component glyphName="hungarumlaut" x="30" y="0" flags="0x4"/>
    </TTGlyph>
    <TTGlyph name="omacron" xMin="30" yMin="-10" xMax="577" yMax="713">
      <component glyphName="o" x="0" y="0" flags="0x204"/>
      <component glyphName="macron" x="20" y="0" flags="0x4"/>
    </TTGlyph>
    <TTGlyph name="one" xMin="72" yMin="0" xMax="383" yMax="700">
      <contour>
        <pt x="383" y="700" on="1"/>
        <pt x="234" y="0" on="1"/>
        <pt x="100" y="0" on="1"/>
        <pt x="218" y="560" on="1"/>
        <pt x="72" y="505" on="1"/>
        <pt x="98" y="624" on="1"/>
        <pt x="298" y="700" on="1"/>
      </contour>
    </TTGlyph>
    <TTGlyph name="onehalf" xMin="0" yMin="0" xMax="664" yMax="700">
      <component glyphName="onesuperior" x="0" y="0" flags="0x4"/>
      <component glyphName="fraction" x="29" y="0" flags="0x4"/>
      <component glyphName="uni2082" x="386" y="0" flags="0x4"/>
    </TTGlyph>
    <TTGlyph name="onequarter" xMin="1" yMin="0" xMax="636" yMax="700">
      <component glyphName="uni2084" x="309" y="0" flags="0x4"/>
      <component glyphName="onesuperior" x="0" y="0" flags="0x4"/>
      <component glyphName="fraction" x="30" y="0" flags="0x4"/>
    </TTGlyph>
    <TTGlyph name="onesuperior" xMin="85" yMin="350" xMax="265" yMax="700">
      <component glyphName="uni2081" x="74" y="350" flags="0x4"/>
    </TTGlyph>
    <TTGlyph name="ordfeminine" xMin="66" yMin="306" xMax="450" yMax="710">
      <contour>
        <pt x="200" y="306" on="1"/>
        <pt x="139" y="306" on="0"/>
        <pt x="66" y="366" on="0"/>
        <pt x="66" y="416" on="1"/>
        <pt x="66" y="476" on="0"/>
        <pt x="156" y="545" on="0"/>
        <pt x="232" y="545" on="1"/>
        <pt x="258" y="545" on="0"/>
        <pt x="312" y="535" on="0"/>
        <pt x="337" y="527" on="1"/>
        <pt x="341" y="544" on="1"/>
        <pt x="349" y="583" on="0"/>
        <pt x="309" y="621" on="0"/>
        <pt x="262" y="621" on="1"/>
        <pt x="242" y="621" on="0"/>
        <pt x="190" y="608" on="0"/>
        <pt x="153" y="595" on="1"/>
        <pt x="127" y="676" on="1"/>
        <pt x="170" y="693" on="0"/>
        <pt x="250" y="710" on="0"/>
        <pt x="287" y="710" on="1"/>
        <pt x="377" y="710" on="0"/>
        <pt x="462" y="621" on="0"/>
        <pt x="446" y="545" on="1"/>
        <pt x="396" y="311" on="1"/>
        <pt x="291" y="311" on="1"/>
        <pt x="296" y="333" on="1"/>
        <pt x="272" y="319" on="0"/>
        <pt x="225" y="306" on="0"/>
      </contour>
      <contour>
        <pt x="168" y="424" on="1"/>
        <pt x="168" y="404" on="0"/>
        <pt x="203" y="382" on="0"/>
        <pt x="237" y="382" on="1"/>
        <pt x="256" y="382" on="0"/>
        <pt x="294" y="391" on="0"/>
        <pt x="310" y="401" on="1"/>
        <pt x="323" y="459" on="1"/>
        <pt x="304" y="466" on="0"/>
        <pt x="261" y="475" on="0"/>
        <pt x="242" y="475" on="1"/>
        <pt x="207" y="475" on="0"/>
        <pt x="168" y="448" on="0"/>
      </contour>
    </TTGlyph>
    <TTGlyph name="ordmasculine" xMin="83" yMin="303" xMax="497" yMax="710">
      <contour>
        <pt x="83" y="491" on="1"/>
        <pt x="83" y="536" on="0"/>
        <pt x="118" y="616" on="0"/>
        <pt x="177" y="675" on="0"/>
        <pt x="258" y="710" on="0"/>
        <pt x="303" y="710" on="1"/>
        <pt x="386" y="710" on="0"/>
        <pt x="497" y="602" on="0"/>
        <pt x="497" y="521" on="1"/>
        <pt x="497" y="477" on="0"/>
        <pt x="462" y="397" on="0"/>
        <pt x="402" y="338" on="0"/>
        <pt x="321" y="303" on="0"/>
        <pt x="277" y="303" on="1"/>
        <pt x="194" y="303" on="0"/>
        <pt x="83" y="411" on="0"/>
      </contour>
      <contour>
        <pt x="393" y="517" on="1"/>
        <pt x="393" y="560" on="0"/>
        <pt x="339" y="616" on="0"/>
        <pt x="297" y="616" on="1"/>
        <pt x="252" y="616" on="0"/>
        <pt x="187" y="546" on="0"/>
        <pt x="187" y="497" on="1"/>
        <pt x="187" y="454" on="0"/>
        <pt x="241" y="396" on="0"/>
        <pt x="282" y="396" on="1"/>
        <pt x="328" y="396" on="0"/>
        <pt x="393" y="468" on="0"/>
      </contour>
    </TTGlyph>
    <TTGlyph name="oslash" xMin="-9" yMin="-10" xMax="615" yMax="531">
      <contour>
        <pt x="-9" y="0" on="1"/>
        <pt x="80" y="89" on="1"/>
        <pt x="56" y="120" on="0"/>
        <pt x="30" y="198" on="0"/>
        <pt x="30" y="241" on="1"/>
        <pt x="30" y="300" on="0"/>
        <pt x="76" y="406" on="0"/>
        <pt x="155" y="485" on="0"/>
        <pt x="262" y="531" on="0"/>
        <pt x="321" y="531" on="1"/>
        <pt x="365" y="531" on="0"/>
        <pt x="444" y="505" on="0"/>
        <pt x="476" y="483" on="1"/>
        <pt x="514" y="521" on="1"/>
        <pt x="615" y="521" on="1"/>
        <pt x="527" y="433" on="1"/>
        <pt x="551" y="402" on="0"/>
        <pt x="577" y="324" on="0"/>
        <pt x="577" y="281" on="1"/>
        <pt x="577" y="222" on="0"/>
        <pt x="530" y="116" on="0"/>
        <pt x="451" y="37" on="0"/>
        <pt x="345" y="-10" on="0"/>
        <pt x="286" y="-10" on="1"/>
        <pt x="241" y="-10" on="0"/>
        <pt x="162" y="16" on="0"/>
        <pt x="130" y="39" on="1"/>
        <pt x="91" y="0" on="1"/>
      </contour>
      <contour>
        <pt x="162" y="247" on="1"/>
        <pt x="162" y="230" on="0"/>
        <pt x="169" y="197" on="0"/>
        <pt x="175" y="183" on="1"/>
        <pt x="385" y="392" on="1"/>
        <pt x="370" y="402" on="0"/>
        <pt x="334" y="412" on="0"/>
        <pt x="314" y="412" on="1"/>
        <pt x="283" y="412" on="0"/>
        <pt x="227" y="386" on="0"/>
        <pt x="186" y="341" on="0"/>
        <pt x="162" y="281" on="0"/>
      </contour>
      <contour>
        <pt x="292" y="109" on="1"/>
        <pt x="323" y="109" on="0"/>
        <pt x="379" y="135" on="0"/>
        <pt x="421" y="180" on="0"/>
        <pt x="445" y="241" on="0"/>
        <pt x="445" y="275" on="1"/>
        <pt x="445" y="292" on="0"/>
        <pt x="438" y="325" on="0"/>
        <pt x="431" y="339" on="1"/>
        <pt x="221" y="129" on="1"/>
        <pt x="236" y="119" on="0"/>
        <pt x="272" y="109" on="0"/>
      </contour>
    </TTGlyph>
    <TTGlyph name="otilde" xMin="30" yMin="-10" xMax="577" yMax="742">
      <component glyphName="o" x="0" y="0" flags="0x204"/>
      <component glyphName="tilde" x="24" y="0" flags="0x4"/>
    </TTGlyph>
    <TTGlyph name="p" xMin="-47" yMin="-209" xMax="589" yMax="528">
      <contour>
        <pt x="-47" y="-209" on="1"/>
        <pt x="108" y="521" on="1"/>
        <pt x="241" y="521" on="1"/>
        <pt x="236" y="495" on="1"/>
        <pt x="264" y="511" on="0"/>
        <pt x="325" y="528" on="0"/>
        <pt x="357" y="528" on="1"/>
        <pt x="406" y="528" on="0"/>
        <pt x="492" y="491" on="0"/>
        <pt x="553" y="427" on="0"/>
        <pt x="589" y="338" on="0"/>
        <pt x="589" y="287" on="1"/>
        <pt x="589" y="226" on="0"/>
        <pt x="543" y="119" on="0"/>
        <pt x="465" y="39" on="0"/>
        <pt x="359" y="-7" on="0"/>
        <pt x="299" y="-7" on="1"/>
        <pt x="253" y="-7" on="0"/>
        <pt x="173" y="22" on="0"/>
        <pt x="143" y="50" on="1"/>
        <pt x="87" y="-209" on="1"/>
      </contour>
      <contour>
        <pt x="322" y="412" on="1"/>
        <pt x="291" y="412" on="0"/>
        <pt x="235" y="392" on="0"/>
        <pt x="212" y="373" on="1"/>
        <pt x="168" y="168" on="1"/>
        <pt x="187" y="141" on="0"/>
        <pt x="255" y="110" on="0"/>
        <pt x="294" y="110" on="1"/>
        <pt x="363" y="110" on="0"/>
        <pt x="458" y="206" on="0"/>
        <pt x="458" y="275" on="1"/>
        <pt x="458" y="333" on="0"/>
        <pt x="381" y="412" on="0"/>
      </contour>
    </TTGlyph>
    <TTGlyph name="paragraph" xMin="90" yMin="0" xMax="735" yMax="700">
      <contour>
        <pt x="271" y="0" on="1"/>
        <pt x="325" y="253" on="1"/>
        <pt x="312" y="253" on="1"/>
        <pt x="213" y="253" on="0"/>
        <pt x="90" y="359" on="0"/>
        <pt x="90" y="446" on="1"/>
        <pt x="90" y="501" on="0"/>
        <pt x="131" y="594" on="0"/>
        <pt x="202" y="662" on="0"/>
        <pt x="302" y="700" on="0"/>
        <pt x="360" y="700" on="1"/>
        <pt x="735" y="700" on="1"/>
        <pt x="586" y="0" on="1"/>
        <pt x="476" y="0" on="1"/>
        <pt x="530" y="253" on="1"/>
        <pt x="436" y="253" on="1"/>
        <pt x="382" y="0" on="1"/>
      </contour>
      <contour>
        <pt x="553" y="361" on="1"/>
        <pt x="601" y="589" on="1"/>
        <pt x="507" y="589" on="1"/>
        <pt x="459" y="361" on="1"/>
      </contour>
      <contour>
        <pt x="319" y="361" on="1"/>
        <pt x="348" y="361" on="1"/>
        <pt x="396" y="589" on="1"/>
        <pt x="342" y="589" on="1"/>
        <pt x="285" y="589" on="0"/>
        <pt x="209" y="516" on="0"/>
        <pt x="209" y="462" on="1"/>
        <pt x="209" y="416" on="0"/>
        <pt x="269" y="361" on="0"/>
      </contour>
    </TTGlyph>
    <TTGlyph name="parenleft" xMin="39" yMin="-218" xMax="458" yMax="711">
      <contour>
        <pt x="39" y="137" on="1"/>
        <pt x="39" y="230" on="0"/>
        <pt x="90" y="404" on="0"/>
        <pt x="184" y="553" on="0"/>
        <pt x="319" y="673" on="0"/>
        <pt x="402" y="711" on="1"/>
        <pt x="458" y="620" on="1"/>
        <pt x="391" y="587" on="0"/>
        <pt x="282" y="488" on="0"/>
        <pt x="206" y="367" on="0"/>
        <pt x="165" y="226" on="0"/>
        <pt x="165" y="151" on="1"/>
        <pt x="165" y="61" on="0"/>
        <pt x="233" y="-87" on="0"/>
        <pt x="298" y="-140" on="1"/>
        <pt x="208" y="-218" on="1"/>
        <pt x="126" y="-156" on="0"/>
        <pt x="39" y="27" on="0"/>
      </contour>
    </TTGlyph>
    <TTGlyph name="parenright" xMin="-54" yMin="-217" xMax="365" yMax="712">
      <contour>
        <pt x="365" y="357" on="1"/>
        <pt x="365" y="264" on="0"/>
        <pt x="314" y="90" on="0"/>
        <pt x="220" y="-59" on="0"/>
        <pt x="85" y="-179" on="0"/>
        <pt x="2" y="-217" on="1"/>
        <pt x="-54" y="-126" on="1"/>
        <pt x="13" y="-93" on="0"/>
        <pt x="122" y="6" on="0"/>
        <pt x="198" y="127" on="0"/>
        <pt x="239" y="268" on="0"/>
        <pt x="239" y="343" on="1"/>
        <pt x="239" y="433" on="0"/>
        <pt x="171" y="581" on="0"/>
        <pt x="106" y="634" on="1"/>
        <pt x="196" y="712" on="1"/>
        <pt x="278" y="650" on="0"/>
        <pt x="365" y="467" on="0"/>
      </contour>
    </TTGlyph>
    <TTGlyph name="percent" xMin="73" yMin="-5" xMax="765" yMax="706">
      <component glyphName="uni2070" x="0" y="0" flags="0x4"/>
      <component glyphName="fraction" x="126" y="0" flags="0x4"/>
      <component glyphName="uni2080" x="444" y="0" flags="0x4"/>
    </TTGlyph>
    <TTGlyph name="period" xMin="-3" yMin="-10" xMax="157" yMax="152">
      <contour>
        <pt x="88" y="152" on="1"/>
        <pt x="118" y="152" on="0"/>
        <pt x="157" y="111" on="0"/>
        <pt x="157" y="81" on="1"/>
        <pt x="157" y="45" on="0"/>
        <pt x="103" y="-10" on="0"/>
        <pt x="68" y="-10" on="1"/>
        <pt x="38" y="-10" on="0"/>
        <pt x="-3" y="31" on="0"/>
        <pt x="-3" y="61" on="1"/>
        <pt x="-3" y="98" on="0"/>
        <pt x="51" y="152" on="0"/>
      </contour>
    </TTGlyph>
    <TTGlyph name="periodcentered" xMin="46" yMin="204" xMax="206" yMax="366">
      <component glyphName="period" x="49" y="214" flags="0x4"/>
    </TTGlyph>
    <TTGlyph name="periodcentered.cap" xMin="61" yMin="269" xMax="221" yMax="431">
      <component glyphName="periodcentered" x="15" y="65" flags="0x4"/>
    </TTGlyph>
    <TTGlyph name="perthousand" xMin="73" yMin="-5" xMax="1118" yMax="706">
      <component glyphName="uni2070" x="0" y="0" flags="0x4"/>
      <component glyphName="fraction" x="126" y="0" flags="0x4"/>
      <component glyphName="uni2080" x="444" y="0" flags="0x4"/>
      <component glyphName="uni2080" x="797" y="0" flags="0x4"/>
    </TTGlyph>
    <TTGlyph name="plus" xMin="55" yMin="129" xMax="526" yMax="584">
      <contour>
        <pt x="294" y="129" on="1"/>
        <pt x="190" y="129" on="1"/>
        <pt x="227" y="306" on="1"/>
        <pt x="55" y="306" on="1"/>
        <pt x="78" y="412" on="1"/>
        <pt x="250" y="412" on="1"/>
        <pt x="286" y="584" on="1"/>
        <pt x="391" y="584" on="1"/>
        <pt x="354" y="412" on="1"/>
        <pt x="526" y="412" on="1"/>
        <pt x="504" y="306" on="1"/>
        <pt x="332" y="306" on="1"/>
      </contour>
    </TTGlyph>
    <TTGlyph name="plusminus" xMin="-10" yMin="-1" xMax="537" yMax="616">
      <contour>
        <pt x="309" y="199" on="1"/>
        <pt x="204" y="199" on="1"/>
        <pt x="238" y="356" on="1"/>
        <pt x="66" y="356" on="1"/>
        <pt x="88" y="462" on="1"/>
        <pt x="260" y="462" on="1"/>
        <pt x="293" y="616" on="1"/>
        <pt x="398" y="616" on="1"/>
        <pt x="365" y="462" on="1"/>
        <pt x="537" y="462" on="1"/>
        <pt x="514" y="356" on="1"/>
        <pt x="343" y="356" on="1"/>
      </contour>
      <contour>
        <pt x="461" y="105" on="1"/>
        <pt x="438" y="-1" on="1"/>
        <pt x="-10" y="-1" on="1"/>
        <pt x="12" y="105" on="1"/>
      </contour>
    </TTGlyph>
    <TTGlyph name="q" xMin="30" yMin="-209" xMax="621" yMax="528">
      <contour>
        <pt x="262" y="-7" on="1"/>
        <pt x="213" y="-7" on="0"/>
        <pt x="128" y="30" on="0"/>
        <pt x="66" y="94" on="0"/>
        <pt x="30" y="183" on="0"/>
        <pt x="30" y="234" on="1"/>
        <pt x="30" y="295" on="0"/>
        <pt x="76" y="402" on="0"/>
        <pt x="154" y="482" on="0"/>
        <pt x="260" y="528" on="0"/>
        <pt x="320" y="528" on="1"/>
        <pt x="367" y="528" on="0"/>
        <pt x="448" y="499" on="0"/>
        <pt x="478" y="472" on="1"/>
        <pt x="488" y="521" on="1"/>
        <pt x="621" y="521" on="1"/>
        <pt x="466" y="-209" on="1"/>
        <pt x="332" y="-209" on="1"/>
        <pt x="382" y="25" on="1"/>
        <pt x="354" y="9" on="0"/>
        <pt x="293" y="-7" on="0"/>
      </contour>
      <contour>
        <pt x="162" y="246" on="1"/>
        <pt x="162" y="187" on="0"/>
        <pt x="240" y="109" on="0"/>
        <pt x="298" y="109" on="1"/>
        <pt x="329" y="109" on="0"/>
        <pt x="385" y="130" on="0"/>
        <pt x="408" y="149" on="1"/>
        <pt x="452" y="355" on="1"/>
        <pt x="432" y="380" on="0"/>
        <pt x="364" y="411" on="0"/>
        <pt x="325" y="411" on="1"/>
        <pt x="257" y="411" on="0"/>
        <pt x="162" y="315" on="0"/>
      </contour>
    </TTGlyph>
    <TTGlyph name="question" xMin="72" yMin="-10" xMax="547" yMax="709">
      <contour>
        <pt x="391" y="341" on="1"/>
        <pt x="354" y="320" on="1"/>
        <pt x="319" y="301" on="0"/>
        <pt x="285" y="252" on="0"/>
        <pt x="278" y="212" on="1"/>
        <pt x="165" y="212" on="1"/>
        <pt x="175" y="283" on="0"/>
        <pt x="226" y="364" on="0"/>
        <pt x="279" y="395" on="1"/>
        <pt x="341" y="433" on="1"/>
        <pt x="375" y="452" on="0"/>
        <pt x="412" y="500" on="0"/>
        <pt x="412" y="524" on="1"/>
        <pt x="412" y="555" on="0"/>
        <pt x="358" y="594" on="0"/>
        <pt x="313" y="594" on="1"/>
        <pt x="271" y="594" on="0"/>
        <pt x="194" y="552" on="0"/>
        <pt x="169" y="517" on="1"/>
        <pt x="72" y="568" on="1"/>
        <pt x="116" y="634" on="0"/>
        <pt x="255" y="709" on="0"/>
        <pt x="331" y="709" on="1"/>
        <pt x="426" y="709" on="0"/>
        <pt x="547" y="616" on="0"/>
        <pt x="547" y="543" on="1"/>
        <pt x="547" y="484" on="0"/>
        <pt x="473" y="388" on="0"/>
      </contour>
      <contour>
        <pt x="203" y="152" on="1"/>
        <pt x="233" y="152" on="0"/>
        <pt x="273" y="111" on="0"/>
        <pt x="273" y="81" on="1"/>
        <pt x="273" y="45" on="0"/>
        <pt x="219" y="-10" on="0"/>
        <pt x="184" y="-10" on="1"/>
        <pt x="153" y="-10" on="0"/>
        <pt x="113" y="31" on="0"/>
        <pt x="113" y="61" on="1"/>
        <pt x="113" y="98" on="0"/>
        <pt x="166" y="152" on="0"/>
      </contour>
    </TTGlyph>
    <TTGlyph name="questiondown" xMin="8" yMin="-8" xMax="483" yMax="711">
      <contour>
        <pt x="164" y="360" on="1"/>
        <pt x="201" y="381" on="1"/>
        <pt x="236" y="400" on="0"/>
        <pt x="270" y="449" on="0"/>
        <pt x="277" y="489" on="1"/>
        <pt x="390" y="489" on="1"/>
        <pt x="380" y="418" on="0"/>
        <pt x="329" y="337" on="0"/>
        <pt x="276" y="306" on="1"/>
        <pt x="214" y="268" on="1"/>
        <pt x="180" y="249" on="0"/>
        <pt x="143" y="201" on="0"/>
        <pt x="143" y="177" on="1"/>
        <pt x="143" y="146" on="0"/>
        <pt x="197" y="107" on="0"/>
        <pt x="242" y="107" on="1"/>
        <pt x="284" y="107" on="0"/>
        <pt x="361" y="149" on="0"/>
        <pt x="386" y="184" on="1"/>
        <pt x="483" y="133" on="1"/>
        <pt x="439" y="67" on="0"/>
        <pt x="300" y="-8" on="0"/>
        <pt x="224" y="-8" on="1"/>
        <pt x="129" y="-8" on="0"/>
        <pt x="8" y="85" on="0"/>
        <pt x="8" y="158" on="1"/>
        <pt x="8" y="217" on="0"/>
        <pt x="82" y="313" on="0"/>
      </contour>
      <contour>
        <pt x="352" y="549" on="1"/>
        <pt x="322" y="549" on="0"/>
        <pt x="282" y="590" on="0"/>
        <pt x="282" y="620" on="1"/>
        <pt x="282" y="656" on="0"/>
        <pt x="336" y="711" on="0"/>
        <pt x="371" y="711" on="1"/>
        <pt x="402" y="711" on="0"/>
        <pt x="442" y="670" on="0"/>
        <pt x="442" y="640" on="1"/>
        <pt x="442" y="603" on="0"/>
        <pt x="389" y="549" on="0"/>
      </contour>
    </TTGlyph>
    <TTGlyph name="quotedbl" xMin="109" yMin="425" xMax="468" yMax="705">
      <component glyphName="quotesingle" x="0" y="0" flags="0x4"/>
      <component glyphName="quotesingle" x="185" y="0" flags="0x4"/>
    </TTGlyph>
    <TTGlyph name="quotedblbase" xMin="-90" yMin="-151" xMax="365" yMax="112">
      <component glyphName="comma" x="192" y="0" flags="0x4"/>
      <component glyphName="comma" x="0" y="0" flags="0x4"/>
    </TTGlyph>
    <TTGlyph name="quotedblleft" xMin="63" yMin="478" xMax="518" yMax="741">
      <contour>
        <pt x="202" y="478" on="1"/>
        <pt x="63" y="478" on="1"/>
        <pt x="224" y="741" on="1"/>
        <pt x="326" y="741" on="1"/>
      </contour>
      <contour>
        <pt x="394" y="478" on="1"/>
        <pt x="255" y="478" on="1"/>
        <pt x="416" y="741" on="1"/>
        <pt x="518" y="741" on="1"/>
      </contour>
    </TTGlyph>
    <TTGlyph name="quotedblright" xMin="74" yMin="478" xMax="529" yMax="741">
      <component glyphName="comma" x="356" y="629" flags="0x4"/>
      <component glyphName="comma" x="164" y="629" flags="0x4"/>
    </TTGlyph>
    <TTGlyph name="quoteleft" xMin="67" yMin="478" xMax="330" yMax="741">
      <contour>
        <pt x="206" y="478" on="1"/>
        <pt x="67" y="478" on="1"/>
        <pt x="228" y="741" on="1"/>
        <pt x="330" y="741" on="1"/>
      </contour>
    </TTGlyph>
    <TTGlyph name="quoteright" xMin="74" yMin="478" xMax="337" yMax="741">
      <component glyphName="comma" x="164" y="629" flags="0x4"/>
    </TTGlyph>
    <TTGlyph name="quotesinglbase" xMin="-90" yMin="-151" xMax="173" yMax="112">
      <component glyphName="comma" x="0" y="0" flags="0x4"/>
    </TTGlyph>
    <TTGlyph name="quotesingle" xMin="109" yMin="425" xMax="283" yMax="705">
      <contour>
        <pt x="109" y="425" on="1"/>
        <pt x="152" y="705" on="1"/>
        <pt x="283" y="705" on="1"/>
        <pt x="206" y="425" on="1"/>
      </contour>
    </TTGlyph>
</ttFont>
